<?xml version="1.0" encoding="utf-8"?>
<!-- Generator: Adobe Illustrator 14.0.0, SVG Export Plug-In . SVG Version: 6.00 Build 43363)  -->
<!DOCTYPE svg PUBLIC "-//W3C//DTD SVG 1.1//EN" "http://www.w3.org/Graphics/SVG/1.1/DTD/svg11.dtd">
<svg version="1.1" id="图层_1" xmlns="http://www.w3.org/2000/svg" xmlns:xlink="http://www.w3.org/1999/xlink" x="0px" y="0px"
	 width="34px" height="35px" viewBox="0 0 34 35" enable-background="new 0 0 34 35" xml:space="preserve">
<path opacity="0.4" fill="#FFFFFF" enable-background="new    " d="M17,1.5c8.836,0,16,7.163,16,16c0,8.836-7.164,16-16,16
	s-16-7.164-16-16C1,8.663,8.164,1.5,17,1.5z"/>
<g opacity="0.4">
	<g>
		<path d="M26.042,25.318l-7.816-7.827l7.8-7.809c0.34-0.341,0.34-0.893,0-1.232c-0.34-0.341-0.892-0.341-1.23,0l-7.8,7.809
			L9.207,8.462c-0.34-0.34-0.891-0.34-1.23,0s-0.34,0.893,0,1.232l7.787,7.797l-7.806,7.813c-0.34,0.342-0.34,0.893,0,1.231
			c0.34,0.342,0.892,0.342,1.23,0l7.805-7.813l7.818,7.827c0.34,0.341,0.891,0.341,1.229,0
			C26.382,26.209,26.382,25.658,26.042,25.318z"/>
	</g>
</g>
</svg>
