<?xml version="1.0" encoding="utf-8"?>
<!-- Generator: Adobe Illustrator 16.0.0, SVG Export Plug-In . SVG Version: 6.00 Build 0)  -->
<!DOCTYPE svg PUBLIC "-//W3C//DTD SVG 1.1//EN" "http://www.w3.org/Graphics/SVG/1.1/DTD/svg11.dtd">
<svg version="1.1" id="图层_1" xmlns="http://www.w3.org/2000/svg" xmlns:xlink="http://www.w3.org/1999/xlink" x="0px" y="0px"
	 width="25px" height="25.009px" viewBox="0 0 25 25.009" enable-background="new 0 0 25 25.009" xml:space="preserve">
<g>
	<g>
		<path fill-rule="evenodd" clip-rule="evenodd" fill="#7F8080" d="M24.643,23.009L14.139,12.492L24.619,2
			c0.457-0.458,0.457-1.199,0-1.656s-1.197-0.458-1.654,0l-10.48,10.493L2.021,0.36c-0.457-0.458-1.197-0.458-1.654,0
			c-0.457,0.458-0.457,1.199,0,1.656l10.464,10.476l-10.488,10.5c-0.457,0.458-0.457,1.199,0,1.657c0.457,0.457,1.198,0.457,1.654,0
			l10.488-10.501l10.504,10.517c0.456,0.458,1.197,0.458,1.654,0C25.099,24.208,25.099,23.467,24.643,23.009z"/>
	</g>
</g>
</svg>
