<?xml version="1.0" encoding="iso-8859-1"?>
<!-- Generator: Adobe Illustrator 16.0.0, SVG Export Plug-In . SVG Version: 6.00 Build 0)  -->
<!DOCTYPE svg PUBLIC "-//W3C//DTD SVG 1.1 Tiny//EN" "http://www.w3.org/Graphics/SVG/1.1/DTD/svg11-tiny.dtd">
<svg version="1.1" baseProfile="tiny" id="&#x56FE;&#x5C42;_1"
	 xmlns="http://www.w3.org/2000/svg" xmlns:xlink="http://www.w3.org/1999/xlink" x="0px" y="0px" width="13px" height="24px"
	 viewBox="0 0 13 24" xml:space="preserve">
<g>
	<path fill-rule="evenodd" fill="#B3B3B3" d="M12.639,11.018c-0.013-0.015-0.029-0.019-0.043-0.033L2.051,0.394
		c-0.466-0.538-1.223-0.538-1.689,0c-0.467,0.537-0.467,1.408,0,1.946l9.614,9.656l-9.614,9.657c-0.467,0.537-0.467,1.408,0,1.945
		s1.224,0.537,1.689,0l10.543-10.59c0.014-0.015,0.032-0.019,0.045-0.034c0.234-0.271,0.351-0.625,0.35-0.979
		C12.989,11.642,12.873,11.288,12.639,11.018z"/>
</g>
</svg>
