<?xml version="1.0" encoding="utf-8"?>
<!-- Generator: Adobe Illustrator 16.0.0, SVG Export Plug-In . SVG Version: 6.00 Build 0)  -->
<!DOCTYPE svg PUBLIC "-//W3C//DTD SVG 1.1//EN" "http://www.w3.org/Graphics/SVG/1.1/DTD/svg11.dtd">
<svg version="1.1" id="图层_1" xmlns="http://www.w3.org/2000/svg" xmlns:xlink="http://www.w3.org/1999/xlink" x="0px" y="0px"
	 width="60px" height="60px" viewBox="0 0 60 60" enable-background="new 0 0 60 60" xml:space="preserve">
<g>
	<g>
		<path fill-rule="evenodd" clip-rule="evenodd" fill="#7F8080" d="M29.133,14.896c1.516,2.769,3.98,8.644,3.98,8.644
			s7.148,1.104,10.325,1.455c0.848,0.181,1.346,0.727,0,1.997c-0.205,0.223-0.439,0.458-0.685,0.698
			c0.758,0.264,1.494,0.599,2.202,1.006c0.931-0.934,1.817-1.846,2.52-2.613c1.689-1.61,0.768-2.625-0.297-2.854
			c-3.998-0.605-11.555-2.087-11.555-2.087s-3.707-6.445-5.852-10.043c-0.781-1.312-2.202-1.546-3.075,0.102
			c-1.913,3.61-5.37,10.089-5.37,10.089s-8.181,1.52-11.881,2.121c-0.981,0.298-1.317,1.513-0.437,2.396
			c2.797,2.808,8.115,8.537,8.115,8.537s-1.1,7.852-1.585,11.82c-0.157,1.219,1.246,2.146,2.228,1.551
			c2.296-1.101,5.882-2.913,8.177-4.081c-0.272-0.938-0.426-1.901-0.483-2.869c-1.567,0.664-3.526,1.511-4.989,2.208
			c-0.782,0.469-2.123,0.963-1.997,0c0.386-3.133,1.997-9.988,1.997-9.988s-4.764-3.775-6.99-5.992
			c-0.701-0.697-0.813-1.325-0.031-1.561c2.946-0.474,10.531-1.823,10.531-1.823s2.348-5.887,3.618-8.602
			C28.222,13.671,28.538,13.811,29.133,14.896z M46.923,44.447l4.4-5.479l-2.947-0.005c-0.227-2.2-1.18-4.34-2.865-6.025
			c-3.893-3.894-10.207-3.894-14.101,0c-3.894,3.894-3.894,10.208,0,14.102c2.989,2.989,7.401,3.674,11.053,2.074l-0.141-0.32
			c0.333,0.047,0.681-0.039,0.937-0.295c0.434-0.433,0.434-1.136,0-1.568c-0.434-0.434-1.135-0.434-1.568,0
			c-0.05,0.049-0.073,0.111-0.111,0.167l-0.045-0.103c-2.804,1.229-6.191,0.703-8.487-1.593c-2.99-2.989-2.99-7.837,0-10.826
			c2.99-2.99,7.837-2.99,10.827,0c1.232,1.232,1.948,2.781,2.164,4.384l-3.504-0.006L46.923,44.447z"/>
	</g>
</g>
</svg>
