<?xml version="1.0" encoding="utf-8"?>
<!-- Generator: Adobe Illustrator 16.0.0, SVG Export Plug-In . SVG Version: 6.00 Build 0)  -->
<!DOCTYPE svg PUBLIC "-//W3C//DTD SVG 1.1//EN" "http://www.w3.org/Graphics/SVG/1.1/DTD/svg11.dtd">
<svg version="1.1" id="图层_1" xmlns="http://www.w3.org/2000/svg" xmlns:xlink="http://www.w3.org/1999/xlink" x="0px" y="0px"
	 width="60px" height="60px" viewBox="0 0 60 60" enable-background="new 0 0 60 60" xml:space="preserve">
<g>
	<g>
		<path fill-rule="evenodd" clip-rule="evenodd" fill="#7F8080" d="M29.984,19.674c-2.209,0-4,1.791-4,4s1.791,4,4,4s4-1.791,4-4
			S32.193,19.674,29.984,19.674z M29.984,30.674c-1.032,0.094-2,0.343-2,2l-2,17c0,1.656,2.343,3,4,3s4-1.344,4-3l-2-17
			C31.984,31.018,30.954,30.706,29.984,30.674z M47.541,8.118L47.47,8.189c-0.072-0.152-0.157-0.3-0.282-0.425
			c-0.586-0.585-1.536-0.585-2.122,0c-0.585,0.586-0.585,1.536,0,2.122c0.126,0.125,0.273,0.21,0.426,0.282l-0.072,0.071
			c7.421,7.42,7.421,19.45,0,26.871l0.072,0.07c-0.152,0.072-0.3,0.157-0.426,0.283c-0.585,0.586-0.585,1.536,0,2.122
			c0.586,0.586,1.536,0.586,2.122,0c0.125-0.125,0.21-0.273,0.282-0.426l0.071,0.072C56.132,30.639,56.132,16.709,47.541,8.118z
			 M41.884,13.775l-0.071,0.071c-0.071-0.152-0.157-0.3-0.282-0.425c-0.586-0.586-1.535-0.586-2.121,0
			c-0.586,0.585-0.586,1.536,0,2.121c0.125,0.125,0.273,0.21,0.425,0.282l-0.071,0.071c4.296,4.296,4.296,11.261,0,15.557
			l0.071,0.071c-0.151,0.072-0.3,0.157-0.425,0.282c-0.586,0.586-0.586,1.535,0,2.121s1.535,0.586,2.121,0
			c0.125-0.125,0.211-0.273,0.282-0.425l0.071,0.071C47.352,28.106,47.352,19.242,41.884,13.775z M14.491,37.782l0.071-0.072
			c-7.404-7.484-7.404-19.618,0-27.102l-0.071-0.072c0.151-0.072,0.299-0.158,0.424-0.285c0.585-0.591,0.585-1.549,0-2.14
			c-0.584-0.591-1.532-0.591-2.116,0c-0.125,0.126-0.21,0.276-0.282,0.429l-0.071-0.072c-8.573,8.666-8.573,22.715,0,31.38
			l0.071-0.072c0.072,0.154,0.157,0.303,0.282,0.43c0.584,0.59,1.532,0.59,2.116,0c0.585-0.592,0.585-1.549,0-2.141
			C14.79,37.939,14.643,37.854,14.491,37.782z M20.561,13.817c-0.584-0.591-1.532-0.591-2.117,0
			c-0.125,0.126-0.21,0.276-0.281,0.428l-0.071-0.072c-5.456,5.515-5.456,14.455,0,19.969l0.071-0.072
			c0.071,0.153,0.156,0.302,0.281,0.429c0.585,0.59,1.533,0.59,2.117,0c0.585-0.591,0.585-1.549,0-2.14
			c-0.125-0.126-0.272-0.212-0.424-0.285l0.071-0.072c-4.287-4.333-4.287-11.357,0-15.69l-0.071-0.072
			c0.151-0.073,0.299-0.158,0.424-0.285C21.146,15.366,21.146,14.408,20.561,13.817z"/>
	</g>
</g>
</svg>
