<?xml version="1.0" encoding="utf-8"?>
<!-- Generator: Adobe Illustrator 16.0.0, SVG Export Plug-In . SVG Version: 6.00 Build 0)  -->
<!DOCTYPE svg PUBLIC "-//W3C//DTD SVG 1.1//EN" "http://www.w3.org/Graphics/SVG/1.1/DTD/svg11.dtd">
<svg version="1.1" id="图层_1" xmlns="http://www.w3.org/2000/svg" xmlns:xlink="http://www.w3.org/1999/xlink" x="0px" y="0px"
	 width="60px" height="60px" viewBox="-9.986 -10.003 60 60" enable-background="new -9.986 -10.003 60 60" xml:space="preserve">
<g>
	<g>
		<g>
			<path fill="#B3B3B3" d="M-33.819-3.84h-15.145l-0.854-3c-0.474-1.278-1.346-2-3-2h-14c-1.657,0-3,1.343-3,3v27
				c0,1.656,1.343,3,3,3h33c1.654,0,3-1.344,3-3v-22C-30.819-2.498-32.163-3.84-33.819-3.84z M-33.819,20.161c0,0.552-0.446,1-1,1
				h-31c-0.554,0-1-0.447-1-1V-4.84c0-0.552,0.446-1,1-1h12c0.553,0,0.887,0.391,1,1l1.143,4h16.857c0.554,0,1,0.448,1,1V20.161z
				 M-39.319,3.16h-22c-0.829,0-1.5,0.672-1.5,1.5c0,0.829,0.671,1.5,1.5,1.5h22c0.826,0,1.5-0.671,1.5-1.5
				C-37.819,3.832-38.491,3.16-39.319,3.16z"/>
		</g>
	</g>
</g>
<g>
	<g>
		<path fill="#B3B3B3" d="M79.398-22.502c-11.185,0.243-19.812,9.255-19.561,20.428c0.253,11.172,9.28,19.797,20.462,19.555
			c11.185-0.242,19.812-9.256,19.56-20.427C99.605-14.119,90.58-22.747,79.398-22.502z M96.795-3.502h-4.251l-2.206-0.08
			c-0.107-2.356-0.854-5.428-2.102-8.434c1.513-0.695,2.873-1.435,3.979-2.213C94.869-11.422,96.554-7.691,96.795-3.502z
			 M80.84-9.756c1.833-0.191,3.891-0.771,5.895-1.666c1.07,2.672,1.75,5.354,1.92,7.876L86.66-3.503h-5.817L80.84-9.756L80.84-9.756
			z M78.859,4.733c-1.834,0.191-3.888,0.771-5.893,1.666c-1.07-2.617-1.75-5.24-1.921-7.877l1.995-0.043h5.816L78.859,4.733
			L78.859,4.733z M80.84-1.521h7.828c-0.093,2.527-0.63,5.064-1.541,7.611c-2.112-0.834-4.396-1.338-6.287-1.426V-1.521z
			 M91.021-15.379c-0.984,0.717-2.139,1.39-3.438,1.973c-0.778-1.978-1.812-3.842-3.028-5.476
			C86.986-18.2,89.174-16.982,91.021-15.379z M86.138-12.757c-1.772,0.669-3.601,1.084-5.3,1.26v-7.973
			c0.512,0.028,1.018,0.069,1.514,0.141C83.838-17.373,85.141-15.099,86.138-12.757z M78.859-9.069v5.566h-7.825
			c0.094-2.432,0.631-5.015,1.54-7.611c2.154,0.852,4.356,1.365,6.271,1.436L78.859-9.069z M78.812-19.476l-0.007,8.057
			c-1.803-0.073-3.776-0.423-5.702-1.055c0.894-2.383,2.092-4.71,3.486-6.73C77.314-19.34,78.056-19.431,78.812-19.476z
			 M74.408-18.661c-1.144,1.685-2.09,3.592-2.778,5.601c-1.322-0.525-2.503-1.147-3.519-1.82
			C69.883-16.561,72.011-17.872,74.408-18.661z M66.967-13.68c1.145,0.729,2.534,1.409,4.077,2.037
			c-1.054,2.9-1.646,5.832-1.706,8.141h-6.423C63.126-7.403,64.594-10.933,66.967-13.68z M62.904-1.521h3.453l3.006,0.08
			c0.166,2.412,0.91,5.428,2.102,8.436c-1.513,0.693-2.873,1.435-3.979,2.211C64.833,6.399,63.146,2.669,62.904-1.521z
			 M68.685,10.358c0.938-0.672,2.084-1.338,3.375-1.916c0.815,1.941,1.877,3.818,3.03,5.398
			C72.685,13.157,70.517,11.948,68.685,10.358z M73.508,7.792c1.727-0.67,3.598-1.135,5.354-1.315v7.971
			c-0.508-0.026-1.013-0.067-1.508-0.141C75.904,12.36,74.558,10.182,73.508,7.792z M80.857,14.452l0.037-8.059
			c1.854,0.072,3.891,0.479,5.758,1.111c-0.94,2.434-2.188,4.668-3.545,6.674C82.374,14.317,81.624,14.409,80.857,14.452z
			 M85.34,13.62c1.082-1.629,2.061-3.551,2.788-5.529c1.315,0.523,2.487,1.14,3.457,1.771C89.826,11.526,87.714,12.829,85.34,13.62z
			 M92.732,8.655c-1.145-0.729-2.533-1.408-4.076-2.035c1.002-2.902,1.592-5.787,1.699-8.141h6.43
			C96.572,2.38,95.105,5.909,92.732,8.655z"/>
	</g>
</g>
<g>
	<g>
		<path fill="#7F8080" d="M33.632,16.979c-0.482-6.246-5.688-11.167-12.053-11.167c-4.895,0-9.101,2.915-11.005,7.1
			c-2.834,0.412-5.012,2.844-5.012,5.792c0,0.188,0.011,0.374,0.027,0.557c-3.145,0.704-5.498,3.505-5.498,6.861
			c0,3.619,2.735,6.599,6.251,6.988v0.049h25.783v-0.021c4.348-0.203,7.813-3.783,7.813-8.183
			C39.94,21.077,37.247,17.834,33.632,16.979z M32.127,30.803v0.021H6.344v-0.072c-2.215-0.375-3.903-2.297-3.903-4.619
			c0-2.586,2.096-4.684,4.685-4.688V21.44h0.782v-2.344h0.022c-0.016-0.128-0.022-0.259-0.022-0.391
			c0-1.942,1.575-3.516,3.516-3.516c0.261,0,0.512,0.032,0.754,0.084c1.157-4.109,4.925-7.126,9.403-7.126
			c5.399,0,9.777,4.377,9.777,9.776c0,0.403-0.033,0.797-0.081,1.188c0.152-0.013,0.307-0.023,0.464-0.023
			c3.233,0,5.854,2.627,5.854,5.868C37.594,28.065,35.177,30.604,32.127,30.803z"/>
	</g>
</g>
</svg>
