<?xml version="1.0" encoding="utf-8"?>
<!-- Generator: Adobe Illustrator 16.0.0, SVG Export Plug-In . SVG Version: 6.00 Build 0)  -->
<!DOCTYPE svg PUBLIC "-//W3C//DTD SVG 1.1//EN" "http://www.w3.org/Graphics/SVG/1.1/DTD/svg11.dtd">
<svg version="1.1" id="图层_1" xmlns="http://www.w3.org/2000/svg" xmlns:xlink="http://www.w3.org/1999/xlink" x="0px" y="0px"
	 width="70px" height="70px" viewBox="0 0 70 70" enable-background="new 0 0 70 70" xml:space="preserve">
<path fill-rule="evenodd" clip-rule="evenodd" fill="#B3B3B3" d="M65.974,8.445c0.169,1.067-0.616,2.076-1.755,2.255l-39.138,5.985
	c-1.139,0.179-2.199-0.541-2.368-1.608s0.616-2.077,1.755-2.255l39.138-5.986C64.744,6.658,65.804,7.378,65.974,8.445z"/>
<path fill-rule="evenodd" clip-rule="evenodd" fill="#B3B3B3" d="M24.656,12.861c1.086,0,1.967,0.875,1.967,1.956v34.222
	c0,1.08-0.88,1.955-1.967,1.955c-1.086,0-1.966-0.875-1.966-1.955V14.817C22.689,13.737,23.57,12.861,24.656,12.861z"/>
<path fill-rule="evenodd" clip-rule="evenodd" fill="#B3B3B3" d="M64.029,6.81c1.086,0,1.967,0.875,1.967,1.956v36.178
	c0,1.08-0.881,1.955-1.967,1.955s-1.967-0.875-1.967-1.955V8.765C62.063,7.685,62.943,6.81,64.029,6.81z"/>
<path fill="none" stroke="#B3B3B3" stroke-width="4" stroke-miterlimit="10" d="M15.777,42.558c5.087,0,9.211,4.101,9.211,9.159
	c0,5.058-4.124,9.158-9.211,9.158s-9.211-4.101-9.211-9.158C6.566,46.658,10.69,42.558,15.777,42.558z"/>
<path fill-rule="evenodd" clip-rule="evenodd" fill="none" stroke="#B3B3B3" stroke-width="4" stroke-miterlimit="10" d="
	M54.818,35.688c5.086,0,9.211,4.101,9.211,9.159c0,5.058-4.125,9.158-9.211,9.158c-5.088,0-9.211-4.101-9.211-9.158
	C45.607,39.788,49.73,35.688,54.818,35.688z"/>
</svg>
