<?xml version="1.0" encoding="utf-8"?>
<!-- Generator: Adobe Illustrator 16.0.0, SVG Export Plug-In . SVG Version: 6.00 Build 0)  -->
<!DOCTYPE svg PUBLIC "-//W3C//DTD SVG 1.1//EN" "http://www.w3.org/Graphics/SVG/1.1/DTD/svg11.dtd">
<svg version="1.1" id="图层_1" xmlns="http://www.w3.org/2000/svg" xmlns:xlink="http://www.w3.org/1999/xlink" x="0px" y="0px"
	 width="70px" height="70px" viewBox="0 0 70 70" enable-background="new 0 0 70 70" xml:space="preserve">
<path fill-rule="evenodd" clip-rule="evenodd" fill="#B3B3B3" d="M22.238,26.73c0.749,0.75,0.749,1.965,0,2.713l0,0
	c-0.75,0.75-1.965,0.75-2.714,0l-7.192-7.191c-0.748-0.75-0.75-1.964,0-2.714l0,0c0.749-0.749,1.964-0.749,2.714,0L22.238,26.73z"/>
<g>
	<g>
		<path fill="none" stroke="#B3B3B3" stroke-width="3" stroke-miterlimit="10" d="M35.564,25.835
			c-15.59,0-28.229,12.639-28.229,28.227c0,3.242-0.195,3.242,0,3.242c13.036,0,56.458-0.028,56.458,0c0-0.132,0,0,0-3.242
			C63.794,38.474,51.155,25.835,35.564,25.835z"/>
	</g>
</g>
<circle fill-rule="evenodd" clip-rule="evenodd" fill="#B3B3B3" cx="25.574" cy="42.459" r="3.534"/>
<circle fill-rule="evenodd" clip-rule="evenodd" fill="#B3B3B3" cx="44.51" cy="42.459" r="3.534"/>
<path fill-rule="evenodd" clip-rule="evenodd" fill="#B3B3B3" d="M48.404,26.731c-0.749,0.749-0.749,1.964,0,2.713l0,0
	c0.75,0.75,1.965,0.749,2.714,0l7.192-7.192c0.748-0.75,0.75-1.964,0-2.714l0,0c-0.749-0.749-1.964-0.749-2.714,0L48.404,26.731z"/>
<path fill-rule="evenodd" clip-rule="evenodd" fill="#B3B3B3" d="M65.19,56.779c0,0.796-0.645,1.44-1.439,1.44H7.293
	c-0.795,0-1.44-0.645-1.44-1.44l0,0c0-0.795,0.645-1.439,1.44-1.439h56.458C64.546,55.34,65.19,55.984,65.19,56.779L65.19,56.779z"
	/>
<path fill-rule="evenodd" clip-rule="evenodd" fill="#B3B3B3" d="M65.19,57.037c0,0.937-0.76,1.696-1.696,1.696H7.55
	c-0.937,0-1.697-0.76-1.697-1.696l0,0c0-0.938,0.76-1.697,1.697-1.697h55.944C64.431,55.34,65.19,56.1,65.19,57.037L65.19,57.037z"
	/>
</svg>
