<?xml version="1.0" encoding="utf-8"?>
<!-- Generator: Adobe Illustrator 16.0.0, SVG Export Plug-In . SVG Version: 6.00 Build 0)  -->
<!DOCTYPE svg PUBLIC "-//W3C//DTD SVG 1.1//EN" "http://www.w3.org/Graphics/SVG/1.1/DTD/svg11.dtd">
<svg version="1.1" id="图层_1" xmlns="http://www.w3.org/2000/svg" xmlns:xlink="http://www.w3.org/1999/xlink" x="0px" y="0px"
	 width="70px" height="70px" viewBox="0 0 70 70" enable-background="new 0 0 70 70" xml:space="preserve">
<path fill="#B3B3B3" d="M36.484,45.801c0.564,0.563,0.563,1.475,0,2.037l0,0c-0.563,0.563-1.474,0.563-2.037,0L17.604,30.994
	c-0.563-0.563-0.563-1.475,0-2.038l0,0c0.563-0.563,1.475-0.563,2.037,0L36.484,45.801z"/>
<path fill="#B3B3B3" d="M6.051,61.5c0,0.828,0.686,1.5,1.532,1.5h55.866c0.846,0,1.531-0.672,1.531-1.5l0,0
	c0-0.828-0.686-1.5-1.531-1.5H7.583C6.737,60,6.051,60.672,6.051,61.5L6.051,61.5z"/>
<path fill="#B3B3B3" d="M36.918,46.827c0,0.791-0.645,1.433-1.442,1.433l0,0c-0.793,0-1.437-0.642-1.437-1.433V10.193
	c0-0.792,0.644-1.435,1.437-1.435l0,0c0.798,0,1.442,0.643,1.442,1.435V46.827z"/>
<path fill="#B3B3B3" d="M8.931,61.561c0,0.795-0.645,1.439-1.44,1.439l0,0c-0.795,0-1.44-0.645-1.44-1.439V40.43
	c0-0.796,0.645-1.44,1.44-1.44l0,0c0.795,0,1.44,0.645,1.44,1.44V61.561z"/>
<path fill="#B3B3B3" d="M64.98,61.561c0,0.795-0.645,1.439-1.44,1.439l0,0c-0.796,0-1.44-0.645-1.44-1.439V40.43
	c0-0.796,0.645-1.44,1.44-1.44l0,0c0.796,0,1.44,0.645,1.44,1.44V61.561z"/>
<path fill="#B3B3B3" d="M34.468,45.801c-0.564,0.563-0.563,1.475,0,2.037l0,0c0.563,0.563,1.474,0.563,2.037,0l16.844-16.844
	c0.563-0.563,0.563-1.475,0-2.038l0,0c-0.563-0.563-1.475-0.563-2.037,0L34.468,45.801z"/>
</svg>
