<?xml version="1.0" encoding="utf-8"?>
<!-- Generator: Adobe Illustrator 16.0.0, SVG Export Plug-In . SVG Version: 6.00 Build 0)  -->
<!DOCTYPE svg PUBLIC "-//W3C//DTD SVG 1.1//EN" "http://www.w3.org/Graphics/SVG/1.1/DTD/svg11.dtd">
<svg version="1.1" id="图层_1" xmlns="http://www.w3.org/2000/svg" xmlns:xlink="http://www.w3.org/1999/xlink" x="0px" y="0px"
	 width="70px" height="70px" viewBox="0 0 70 70" enable-background="new 0 0 70 70" xml:space="preserve">
<path fill-rule="evenodd" clip-rule="evenodd" fill="none" stroke="#B3B3B3" stroke-width="3" stroke-miterlimit="10" d="
	M15.188,9.546h29.259c1.87,0,1.884,0,1.885,0c0.002,0,12.252,13.211,12.269,13.212c0.044,0.002,0,4.733,0,5.413
	c0,13.394,0,30.45,0,30.45c0,1.563-1.267,2.832-2.83,2.832H15.188c-1.563,0-2.831-1.27-2.831-2.832V12.377
	C12.358,10.813,13.626,9.546,15.188,9.546z"/>
<path fill-rule="evenodd" clip-rule="evenodd" fill="#B3B3B3" d="M41.938,28.469c0,0.811-0.657,1.469-1.469,1.469l0,0
	c-0.812,0-1.469-0.658-1.469-1.469v-17C39,10.658,39.657,10,40.469,10l0,0c0.812,0,1.469,0.658,1.469,1.469V28.469z"/>
<path fill-rule="evenodd" clip-rule="evenodd" fill="#B3B3B3" d="M59.375,28.469c0,0.811-0.657,1.469-1.469,1.469H40.469
	c-0.812,0-1.469-0.658-1.469-1.469l0,0C39,27.658,39.657,27,40.469,27h17.438C58.718,27,59.375,27.658,59.375,28.469L59.375,28.469z
	"/>
</svg>
