<?xml version="1.0" encoding="utf-8"?>
<!-- Generator: Adobe Illustrator 16.0.0, SVG Export Plug-In . SVG Version: 6.00 Build 0)  -->
<!DOCTYPE svg PUBLIC "-//W3C//DTD SVG 1.1//EN" "http://www.w3.org/Graphics/SVG/1.1/DTD/svg11.dtd">
<svg version="1.1" id="图层_1" xmlns="http://www.w3.org/2000/svg" xmlns:xlink="http://www.w3.org/1999/xlink" x="0px" y="0px"
	 width="70px" height="70px" viewBox="0 0 70 70" enable-background="new 0 0 70 70" xml:space="preserve">
<path fill-rule="evenodd" clip-rule="evenodd" fill="none" stroke="#B3B3B3" stroke-width="4" stroke-miterlimit="10" d="
	M48.56,20.937c2.582,0,4.674,2.092,4.674,4.672c0,2.581-2.092,4.672-4.674,4.672c-2.58,0-4.671-2.092-4.671-4.672
	C43.889,23.029,45.979,20.937,48.56,20.937z"/>
<path fill-rule="evenodd" clip-rule="evenodd" fill="none" stroke="#B3B3B3" stroke-width="4" stroke-miterlimit="10" d="
	M8.063,51.729c-0.025-0.641,17.241-16.333,17.241-16.333l13.611,14.519l10.888-9.981l13.611,12.703c0,0,0.835,6.976-1.814,8.167
	c-1.822,0-50.458,0-50.815,0C7.043,60.804,8.113,52.938,8.063,51.729z"/>
<path fill="none" stroke="#B3B3B3" stroke-width="3" stroke-miterlimit="10" d="M9.428,9.595h52.21c1.573,0,2.848,1.257,2.848,2.807
	v45.864c0,1.55-1.274,2.806-2.848,2.806H9.428c-1.573,0-2.848-1.256-2.848-2.806V12.402C6.58,10.853,7.855,9.595,9.428,9.595z"/>
</svg>
