<?xml version="1.0" encoding="utf-8"?>
<!-- Generator: Adobe Illustrator 16.0.0, SVG Export Plug-In . SVG Version: 6.00 Build 0)  -->
<!DOCTYPE svg PUBLIC "-//W3C//DTD SVG 1.1//EN" "http://www.w3.org/Graphics/SVG/1.1/DTD/svg11.dtd">
<svg version="1.1" id="图层_1" xmlns="http://www.w3.org/2000/svg" xmlns:xlink="http://www.w3.org/1999/xlink" x="0px" y="0px"
	 width="70px" height="70px" viewBox="0 0 70 70" enable-background="new 0 0 70 70" xml:space="preserve">
<g>
	<path fill="none" d="M63.051,7.958h-55c-1.657,0-3,1.343-3,3v43c0,1.657,1.343,3,3,3h55c1.658,0,3-1.343,3-3v-43
		C66.051,9.301,64.709,7.958,63.051,7.958z M47.551,59.958h-24c-0.829,0-1.5,0.672-1.5,1.5s0.671,1.5,1.5,1.5h24
		c0.828,0,1.5-0.672,1.5-1.5S48.379,59.958,47.551,59.958z"/>
</g>
<g>
	<g>
		<path fill="none" stroke="#B3B3B3" stroke-width="3" stroke-miterlimit="10" d="M61.811,9.512H9.439
			c-1.577,0-2.856,1.258-2.856,2.81v40.271c0,1.553,1.279,2.811,2.856,2.811h52.371c1.58,0,2.856-1.258,2.856-2.811V12.321
			C64.667,10.77,63.391,9.512,61.811,9.512z"/>
	</g>
</g>
<g>
	<path fill="none" d="M63.052,7.958h-55c-1.657,0-3,1.343-3,3v43c0,1.658,1.343,3,3,3h55c1.657,0,3-1.342,3-3v-43
		C66.052,9.301,64.709,7.958,63.052,7.958z M47.552,59.957h-24c-0.829,0-1.5,0.672-1.5,1.5s0.671,1.5,1.5,1.5h24
		c0.828,0,1.5-0.672,1.5-1.5S48.38,59.957,47.552,59.957z"/>
</g>
<path fill-rule="evenodd" clip-rule="evenodd" fill="#B3B3B3" d="M23.551,59.958h24c0.828,0,1.5,0.672,1.5,1.5s-0.672,1.5-1.5,1.5
	h-24c-0.829,0-1.5-0.672-1.5-1.5S22.722,59.958,23.551,59.958z"/>
<polygon fill-rule="evenodd" clip-rule="evenodd" fill="#B3B3B3" points="30.083,25 42.917,32.917 30.083,40.917 "/>
</svg>
