<?xml version="1.0" encoding="utf-8"?>
<!-- Generator: Adobe Illustrator 16.0.0, SVG Export Plug-In . SVG Version: 6.00 Build 0)  -->
<!DOCTYPE svg PUBLIC "-//W3C//DTD SVG 1.1//EN" "http://www.w3.org/Graphics/SVG/1.1/DTD/svg11.dtd">
<svg version="1.1" id="图层_1" xmlns="http://www.w3.org/2000/svg" xmlns:xlink="http://www.w3.org/1999/xlink" x="0px" y="0px"
	 width="70px" height="70px" viewBox="0 0 70 70" enable-background="new 0 0 70 70" xml:space="preserve">
<path fill-rule="evenodd" clip-rule="evenodd" fill="none" stroke="#B3B3B3" stroke-width="3" stroke-miterlimit="10" d="
	M15.286,9.327h40.276c1.552,0,2.81,1.28,2.81,2.858v46.691c0,1.577-1.258,2.857-2.81,2.857H15.286c-1.552,0-2.81-1.28-2.81-2.857
	V12.186C12.476,10.607,13.734,9.327,15.286,9.327z"/>
<path fill-rule="evenodd" clip-rule="evenodd" fill="none" stroke="#B3B3B3" stroke-width="3" stroke-miterlimit="10" d="
	M29.109,9.327h13c1.657,0,3,1.343,3,3v29.998c0,1.658-1.343,3-3,3h-13c-1.657,0-3-1.342-3-3V12.327
	C26.109,10.67,27.453,9.327,29.109,9.327z"/>
<g>
	<g>
		<path fill-rule="evenodd" clip-rule="evenodd" fill="#B3B3B3" d="M36.109,43.871c-1.657,0-3,1.791-3,4s1.343,4,3,4
			c1.657,0,3-1.791,3-4S37.767,43.871,36.109,43.871z M28.609,14.997h7c0.828,0,1.5-0.671,1.5-1.5s-0.672-1.5-1.5-1.5h-7
			c-0.829,0-1.5,0.671-1.5,1.5S27.781,14.997,28.609,14.997z M34.109,17.497c0,0.829,0.672,1.5,1.5,1.5h7c0.828,0,1.5-0.671,1.5-1.5
			s-0.672-1.5-1.5-1.5h-7C34.781,15.997,34.109,16.668,34.109,17.497z M28.609,22.997h7c0.828,0,1.5-0.671,1.5-1.5
			s-0.672-1.5-1.5-1.5h-7c-0.829,0-1.5,0.671-1.5,1.5S27.781,22.997,28.609,22.997z M42.609,23.997h-7c-0.828,0-1.5,0.671-1.5,1.5
			s0.672,1.5,1.5,1.5h7c0.828,0,1.5-0.671,1.5-1.5S43.438,23.997,42.609,23.997z M28.609,30.997h7c0.828,0,1.5-0.671,1.5-1.5
			s-0.672-1.5-1.5-1.5h-7c-0.829,0-1.5,0.671-1.5,1.5S27.781,30.997,28.609,30.997z M42.609,31.997h-7c-0.828,0-1.5,0.671-1.5,1.5
			s0.672,1.5,1.5,1.5h7c0.828,0,1.5-0.671,1.5-1.5S43.438,31.997,42.609,31.997z M37.109,37.497c0-0.828-0.672-1.5-1.5-1.5h-7
			c-0.829,0-1.5,0.672-1.5,1.5s0.671,1.5,1.5,1.5h7C36.438,38.997,37.109,38.325,37.109,37.497z M42.609,39.997h-7
			c-0.828,0-1.5,0.672-1.5,1.5s0.672,1.5,1.5,1.5h7c0.828,0,1.5-0.672,1.5-1.5S43.438,39.997,42.609,39.997z"/>
	</g>
</g>
</svg>
