<?xml version="1.0" encoding="iso-8859-1"?>
<!-- Generator: Adobe Illustrator 16.0.0, SVG Export Plug-In . SVG Version: 6.00 Build 0)  -->
<!DOCTYPE svg PUBLIC "-//W3C//DTD SVG 1.1 Tiny//EN" "http://www.w3.org/Graphics/SVG/1.1/DTD/svg11-tiny.dtd">
<svg version="1.1" baseProfile="tiny" id="&#x56FE;&#x5C42;_1"
	 xmlns="http://www.w3.org/2000/svg" xmlns:xlink="http://www.w3.org/1999/xlink" x="0px" y="0px" width="102px" height="102px"
	 viewBox="0 0 102 102" xml:space="preserve">
<g>
	<path fill-rule="evenodd" fill="#C5C5C5" d="M51,0C22.834,0,0,22.833,0,51s22.834,51,51,51c28.166,0,51-22.834,51-51S79.166,0,51,0
		z M50.996,97.994c-25.958,0-47-21.042-47-47s21.042-47,47-47c25.956,0,46.999,21.042,46.999,47S76.951,97.994,50.996,97.994z
		 M72.494,51.993h-22.5v-30.5c0-0.828-0.672-1.5-1.5-1.5s-1.5,0.672-1.5,1.5v32c0,0.829,0.672,1.5,1.5,1.5
		c0.176,0,0.343-0.036,0.5-0.092c0.157,0.056,0.324,0.092,0.5,0.092h23c0.828,0,1.5-0.671,1.5-1.5
		C73.994,52.665,73.322,51.993,72.494,51.993z"/>
</g>
</svg>
