<?xml version="1.0" encoding="iso-8859-1"?>
<!-- Generator: Adobe Illustrator 16.0.0, SVG Export Plug-In . SVG Version: 6.00 Build 0)  -->
<!DOCTYPE svg PUBLIC "-//W3C//DTD SVG 1.1 Tiny//EN" "http://www.w3.org/Graphics/SVG/1.1/DTD/svg11-tiny.dtd">
<svg version="1.1" baseProfile="tiny" id="&#x56FE;&#x5C42;_1"
	 xmlns="http://www.w3.org/2000/svg" xmlns:xlink="http://www.w3.org/1999/xlink" x="0px" y="0px" width="121px" height="104px"
	 viewBox="0 0 121 104" xml:space="preserve">
<g>
	<path fill-rule="evenodd" fill="#C5C5C5" d="M87.389-0.006c-10.748,0-20.31,5.068-26.463,12.947
		C54.568,5.006,44.568-0.006,33.611-0.006C15.048-0.006,0,15.095,0,33.724C0,44.305,4.985,54.566,12.69,61.46
		c13.467,14.499,48.09,42.546,48.09,42.546s34.184-27.172,50.884-46.968c1.456-1.526,2.771-3.188,3.922-4.967
		c0.018-0.023,0.036-0.047,0.053-0.071c0.027-0.038,0.045-0.077,0.066-0.116C119.052,46.641,121,40.412,121,33.724
		C121,15.095,105.952-0.006,87.389-0.006z M109.315,54.192C96.967,69.274,62.906,99.83,61,99c-5.816-2.533-46.163-38.085-51.506-47
		c-0.002-0.003-0.001-0.009-0.003-0.013C6.027,47.251,3.995,41.33,3.995,34.602c0-17.402,12.741-30.558,29.69-30.617
		c11.88-0.042,22.482,6.469,27.767,16.355C65.018,9.551,74.899,3.988,87.996,3.988c16.567,0,28.323,14.824,29.371,28.564
		C117.968,40.422,114.754,48.294,109.315,54.192z"/>
</g>
</svg>
