<?xml version="1.0" encoding="iso-8859-1"?>
<!-- Generator: Adobe Illustrator 16.0.0, SVG Export Plug-In . SVG Version: 6.00 Build 0)  -->
<!DOCTYPE svg PUBLIC "-//W3C//DTD SVG 1.1 Tiny//EN" "http://www.w3.org/Graphics/SVG/1.1/DTD/svg11-tiny.dtd">
<svg version="1.1" baseProfile="tiny" id="&#x56FE;&#x5C42;_1"
	 xmlns="http://www.w3.org/2000/svg" xmlns:xlink="http://www.w3.org/1999/xlink" x="0px" y="0px" width="28px" height="28px"
	 viewBox="0 0 28 28" xml:space="preserve">
<g>
	<path fill-rule="evenodd" fill="#FFFFFF" d="M15.998,14.012L27.584,2.427c0.549-0.548,0.549-1.438,0-1.986
		c-0.548-0.548-1.438-0.548-1.985,0L14.013,12.027L2.427,0.44c-0.548-0.548-1.438-0.548-1.985,0c-0.549,0.548-0.549,1.438,0,1.986
		l11.586,11.585L0.441,25.599c-0.549,0.547-0.549,1.438,0,1.984c0.548,0.549,1.438,0.549,1.985,0l11.586-11.586l11.586,11.586
		c0.548,0.549,1.438,0.549,1.985,0c0.549-0.547,0.549-1.438,0-1.984L15.998,14.012z"/>
</g>
</svg>
