<?xml version="1.0" encoding="utf-8"?>
<!-- Generator: Adobe Illustrator 16.0.0, SVG Export Plug-In . SVG Version: 6.00 Build 0)  -->
<!DOCTYPE svg PUBLIC "-//W3C//DTD SVG 1.1//EN" "http://www.w3.org/Graphics/SVG/1.1/DTD/svg11.dtd">
<svg version="1.1" id="图层_1" xmlns="http://www.w3.org/2000/svg" xmlns:xlink="http://www.w3.org/1999/xlink" x="0px" y="0px"
	 width="40.029px" height="39.993px" viewBox="0 0 40.029 39.993" enable-background="new 0 0 40.029 39.993" xml:space="preserve">
<g>
	<g>
		<path fill-rule="evenodd" clip-rule="evenodd" fill="#B3B3B3" d="M19.563,0.005C8.381,0.248-0.247,9.26,0.005,20.432
			C0.258,31.604,9.285,40.23,20.467,39.988c11.182-0.244,19.81-9.256,19.558-20.428C39.771,8.389,30.745-0.239,19.563,0.005z
			 M36.96,19.005h-4.251l-2.206-0.08c-0.11-2.357-0.854-5.429-2.102-8.435c1.513-0.695,2.873-1.435,3.981-2.213
			C35.034,11.085,36.72,14.816,36.96,19.005z M21.005,12.751c1.833-0.191,3.888-0.771,5.892-1.666
			c1.072,2.672,1.751,5.354,1.921,7.877l-1.995,0.043h-5.817V12.751z M19.024,27.241c-1.833,0.191-3.887,0.771-5.89,1.665
			c-1.072-2.616-1.75-5.24-1.921-7.876l1.995-0.043h5.816V27.241z M21.005,20.987h7.828c-0.093,2.528-0.63,5.065-1.541,7.612
			c-2.113-0.835-4.396-1.339-6.287-1.426V20.987z M31.186,7.128c-0.984,0.717-2.136,1.39-3.435,1.973
			c-0.779-1.978-1.812-3.842-3.03-5.476C27.151,4.308,29.339,5.525,31.186,7.128z M26.304,9.75c-1.774,0.669-3.6,1.084-5.299,1.26
			V3.037c0.51,0.028,1.015,0.069,1.511,0.141C24.003,5.135,25.306,7.409,26.304,9.75z M19.024,13.438v5.567h-7.825
			c0.094-2.432,0.631-5.016,1.54-7.612c2.154,0.852,4.358,1.365,6.271,1.436L19.024,13.438z M18.978,3.032l-0.006,8.057
			c-1.802-0.073-3.777-0.423-5.703-1.055c0.893-2.383,2.091-4.71,3.488-6.73C17.48,3.167,18.221,3.077,18.978,3.032z M14.573,3.847
			c-1.142,1.685-2.089,3.592-2.778,5.601c-1.324-0.525-2.503-1.147-3.518-1.82C10.048,5.947,12.177,4.636,14.573,3.847z
			 M7.132,8.828c1.142,0.729,2.534,1.409,4.077,2.037c-1.054,2.9-1.645,5.832-1.706,8.141H3.08
			C3.291,15.104,4.76,11.575,7.132,8.828z M3.069,20.987h3.454l3.005,0.08c0.166,2.412,0.91,5.427,2.102,8.435
			c-1.513,0.694-2.873,1.434-3.981,2.212C4.998,28.906,3.311,25.176,3.069,20.987z M8.85,32.865c0.941-0.67,2.084-1.337,3.375-1.916
			c0.818,1.943,1.878,3.82,3.033,5.4C12.851,35.665,10.682,34.455,8.85,32.865z M13.673,30.299c1.724-0.67,3.596-1.134,5.352-1.315
			v7.969c-0.508-0.027-1.013-0.068-1.508-0.14C16.069,34.868,14.723,32.689,13.673,30.299z M21.022,36.96l0.038-8.058
			c1.856,0.072,3.89,0.477,5.758,1.111c-0.941,2.433-2.188,4.668-3.545,6.673C22.539,36.825,21.789,36.916,21.022,36.96z
			 M25.505,36.127c1.082-1.629,2.058-3.551,2.788-5.528c1.315,0.522,2.487,1.139,3.457,1.768
			C29.991,34.034,27.879,35.337,25.505,36.127z M32.897,31.163c-1.142-0.729-2.533-1.408-4.075-2.036
			c1.001-2.901,1.591-5.787,1.698-8.14h6.43C36.738,24.887,35.27,28.416,32.897,31.163z"/>
	</g>
</g>
</svg>
