<?xml version="1.0" encoding="utf-8"?>
<!-- Generator: Adobe Illustrator 16.0.0, SVG Export Plug-In . SVG Version: 6.00 Build 0)  -->
<!DOCTYPE svg PUBLIC "-//W3C//DTD SVG 1.1//EN" "http://www.w3.org/Graphics/SVG/1.1/DTD/svg11.dtd">
<svg version="1.1" id="图层_1" xmlns="http://www.w3.org/2000/svg" xmlns:xlink="http://www.w3.org/1999/xlink" x="0px" y="0px"
	 width="40.029px" height="39.993px" viewBox="0 0 40.029 39.993" enable-background="new 0 0 40.029 39.993" xml:space="preserve">
<g>
	<g>
		<g>
			<path fill="#B3B3B3" d="M36.514,8.493H21.371l-0.856-3c-0.472-1.278-1.344-2-3-2h-14c-1.657,0-3,1.343-3,3v27.001
				c0,1.656,1.343,3,3,3h33c1.656,0,3-1.344,3-3V11.493C39.514,9.836,38.171,8.493,36.514,8.493z M36.514,32.495
				c0,0.553-0.446,1-1,1h-31c-0.552,0-1-0.447-1-1V7.493c0-0.552,0.448-1,1-1h12c0.553,0,0.887,0.391,1,1l1.143,4h16.857
				c0.554,0,1,0.448,1,1V32.495z M31.014,15.493h-22c-0.829,0-1.5,0.672-1.5,1.5c0,0.829,0.671,1.5,1.5,1.5h22
				c0.828,0,1.5-0.671,1.5-1.5C32.514,16.165,31.843,15.493,31.014,15.493z"/>
		</g>
	</g>
</g>
<g>
	<g>
		<path fill="#B3B3B3" d="M62.434-37.753c-11.183,0.243-19.811,9.255-19.559,20.428c0.253,11.172,9.28,19.797,20.462,19.555
			c11.183-0.242,19.81-9.256,19.558-20.427C82.641-29.369,73.616-37.997,62.434-37.753z M79.831-18.753H75.58l-2.206-0.08
			c-0.109-2.356-0.854-5.428-2.102-8.434c1.513-0.695,2.873-1.435,3.98-2.213C77.905-26.673,79.591-22.942,79.831-18.753z
			 M63.876-25.007c1.833-0.191,3.889-0.771,5.893-1.666c1.071,2.672,1.75,5.354,1.92,7.876l-1.994,0.043h-5.817L63.876-25.007
			L63.876-25.007z M61.895-10.517c-1.834,0.191-3.887,0.771-5.891,1.666c-1.072-2.617-1.75-5.24-1.921-7.877l1.995-0.043h5.816
			V-10.517z M63.876-16.771h7.828c-0.093,2.527-0.63,5.064-1.541,7.611c-2.113-0.834-4.396-1.338-6.287-1.426V-16.771z
			 M74.057-30.63c-0.984,0.717-2.137,1.39-3.436,1.973c-0.779-1.978-1.813-3.842-3.029-5.476
			C70.022-33.45,72.21-32.233,74.057-30.63z M69.175-28.008c-1.773,0.669-3.6,1.084-5.299,1.26v-7.973
			c0.51,0.028,1.016,0.069,1.512,0.141C66.874-32.623,68.177-30.349,69.175-28.008z M61.895-24.32v5.566H54.07
			c0.094-2.432,0.631-5.015,1.54-7.611c2.154,0.852,4.357,1.365,6.271,1.436L61.895-24.32z M61.848-34.726l-0.006,8.057
			c-1.802-0.073-3.777-0.423-5.703-1.055c0.894-2.383,2.092-4.71,3.488-6.73C60.35-34.591,61.093-34.681,61.848-34.726z
			 M57.444-33.911c-1.143,1.685-2.09,3.592-2.778,5.601c-1.323-0.525-2.503-1.147-3.519-1.82
			C52.919-31.811,55.048-33.122,57.444-33.911z M50.003-28.93c1.143,0.729,2.534,1.409,4.077,2.037
			c-1.054,2.9-1.646,5.832-1.706,8.141h-6.423C46.162-22.654,47.631-26.183,50.003-28.93z M45.94-16.771h3.453l3.006,0.08
			c0.166,2.412,0.91,5.428,2.102,8.436c-1.513,0.693-2.873,1.434-3.98,2.211C47.869-8.851,46.182-12.581,45.94-16.771z
			 M51.721-4.892c0.94-0.672,2.084-1.338,3.375-1.916c0.817,1.941,1.877,3.818,3.032,5.398C55.721-2.093,53.553-3.302,51.721-4.892z
			 M56.544-7.458c1.725-0.67,3.596-1.135,5.352-1.316v7.971c-0.508-0.027-1.012-0.068-1.508-0.141
			C58.94-2.89,57.594-5.069,56.544-7.458z M63.893-0.798l0.037-8.059c1.856,0.072,3.891,0.479,5.758,1.111
			c-0.94,2.434-2.188,4.668-3.545,6.674C65.41-0.933,64.66-0.841,63.893-0.798z M68.376-1.63c1.082-1.629,2.059-3.551,2.788-5.529
			c1.315,0.523,2.487,1.139,3.457,1.77C72.862-3.724,70.75-2.421,68.376-1.63z M75.768-6.595c-1.143-0.729-2.533-1.408-4.076-2.035
			c1.002-2.902,1.592-5.787,1.699-8.141h6.43C79.608-12.87,78.141-9.341,75.768-6.595z"/>
	</g>
</g>
</svg>
