<?xml version="1.0" encoding="iso-8859-1"?>
<!-- Generator: Adobe Illustrator 16.0.0, SVG Export Plug-In . SVG Version: 6.00 Build 0)  -->
<!DOCTYPE svg PUBLIC "-//W3C//DTD SVG 1.1 Tiny//EN" "http://www.w3.org/Graphics/SVG/1.1/DTD/svg11-tiny.dtd">
<svg version="1.1" baseProfile="tiny" id="&#x56FE;&#x5C42;_1"
	 xmlns="http://www.w3.org/2000/svg" xmlns:xlink="http://www.w3.org/1999/xlink" x="0px" y="0px" width="34px" height="35px"
	 viewBox="0 0 34 35" xml:space="preserve">
<g>
	<path fill-rule="evenodd" fill="#FFFFFF" d="M33.827,18.19c0.036-0.073,0.066-0.144,0.09-0.221c0.039-0.12,0.063-0.246,0.07-0.377
		c0.005-0.076-0.001-0.148-0.007-0.225c-0.009-0.089-0.024-0.175-0.048-0.259c-0.064-0.256-0.168-0.503-0.359-0.703L18.538,0.458
		c-0.575-0.604-1.507-0.604-2.082,0c-0.574,0.604-0.574,1.583,0,2.186l12.606,13.371H1.495c-0.828,0-1.5,0.672-1.5,1.5
		s0.672,1.5,1.5,1.5h27.537L16.456,32.354c-0.574,0.604-0.574,1.583,0,2.187c0.575,0.604,1.507,0.604,2.082,0l15.035-15.948
		c0.046-0.048,0.064-0.11,0.103-0.162C33.734,18.355,33.784,18.275,33.827,18.19z"/>
</g>
</svg>
