<?xml version="1.0" encoding="iso-8859-1"?>
<!-- Generator: Adobe Illustrator 16.0.0, SVG Export Plug-In . SVG Version: 6.00 Build 0)  -->
<!DOCTYPE svg PUBLIC "-//W3C//DTD SVG 1.1 Tiny//EN" "http://www.w3.org/Graphics/SVG/1.1/DTD/svg11-tiny.dtd">
<svg version="1.1" baseProfile="tiny" id="&#x56FE;&#x5C42;_1"
	 xmlns="http://www.w3.org/2000/svg" xmlns:xlink="http://www.w3.org/1999/xlink" x="0px" y="0px" width="38px" height="38px"
	 viewBox="0 0 38 38" xml:space="preserve">
<g>
	<path fill-rule="evenodd" fill="#B3B3B3" d="M37.551,35.411l-8.927-8.941c2.3-2.795,3.681-6.376,3.681-10.28
		c0-8.935-7.23-16.178-16.15-16.178S0.005,7.255,0.005,16.189s7.23,16.178,16.15,16.178c3.931,0,7.532-1.41,10.333-3.749
		l8.922,8.938c0.592,0.592,1.549,0.592,2.141,0C38.142,36.963,38.142,36.003,37.551,35.411z M16.156,29.332
		c-7.246,0-13.119-5.884-13.119-13.142S8.91,3.049,16.156,3.049S29.274,8.933,29.274,16.19S23.401,29.332,16.156,29.332z"/>
</g>
</svg>
