<?xml version="1.0" encoding="utf-8"?>
<!-- Generator: Adobe Illustrator 16.0.0, SVG Export Plug-In . SVG Version: 6.00 Build 0)  -->
<!DOCTYPE svg PUBLIC "-//W3C//DTD SVG 1.1//EN" "http://www.w3.org/Graphics/SVG/1.1/DTD/svg11.dtd">
<svg version="1.1" id="图层_1" xmlns="http://www.w3.org/2000/svg" xmlns:xlink="http://www.w3.org/1999/xlink" x="0px" y="0px"
	 width="48px" height="48px" viewBox="0 0 48 48" enable-background="new 0 0 48 48" xml:space="preserve">
<path display="none" fill="#4678BC" d="M23.984,0c13.254,0,24,10.745,24,24s-10.746,24-24,24c-13.255,0-24-10.745-24-24
	S10.729,0,23.984,0z"/>
<path display="none" fill="#FFFFFF" d="M29.975,7.478c1.113,0.91,3.441,2.825,3.441,6.465c0,3.543-2.036,5.219-4.073,6.8
	c-0.629,0.623-1.356,1.293-1.356,2.346c0,1.055,0.729,1.629,1.261,2.062l1.746,1.34c2.134,1.771,4.071,3.4,4.071,6.705
	c0,4.502-4.412,9.052-12.752,9.052c-7.031,0-10.426-3.306-10.426-6.849c0-1.726,0.874-4.168,3.736-5.846
	c3.005-1.818,7.079-2.058,9.261-2.201c-0.679-0.861-1.454-1.771-1.454-3.254c0-0.815,0.242-1.293,0.485-1.868
	c-0.534,0.047-1.067,0.096-1.553,0.096c-5.14,0-8.049-3.785-8.049-7.519c0-2.203,1.018-4.645,3.103-6.417
	c2.765-2.251,6.062-2.633,8.679-2.633h9.989l-3.104,1.723L29.975,7.478L29.975,7.478z M26.529,28.74
	c-0.387-0.049-0.631-0.049-1.113-0.049c-0.436,0-3.056,0.096-5.093,0.768c-1.067,0.382-4.169,1.53-4.169,4.932
	c0,3.398,3.346,5.842,8.534,5.842c4.655,0,7.129-2.201,7.129-5.172C31.816,32.618,30.217,31.326,26.529,28.74L26.529,28.74z
	 M27.938,19.641c1.113-1.103,1.213-2.634,1.213-3.496c0-3.448-2.086-8.811-6.111-8.811c-1.26,0-2.618,0.623-3.395,1.581
	c-0.825,1.005-1.067,2.298-1.067,3.543c0,3.208,1.891,8.524,6.062,8.524C25.852,20.982,27.161,20.407,27.938,19.641L27.938,19.641z"
	/>
<path display="none" fill="#ECECEB" d="M24,0c13.255,0,24,10.745,24,24S37.255,48,24,48S0,37.255,0,24S10.745,0,24,0z"/>
<g display="none">
	<path display="inline" fill="#F5B417" d="M20.5,9.875l-8-3v29l8-7V9.875z M23.5,16.875c0,0,3.207,6.055,3,6c-0.059-0.016,5,3,5,3
		l-18,10l7,6l20-12v-8L23.5,16.875z"/>
</g>
<path display="none" fill="#ECECEB" d="M24,0c13.255,0,24,10.745,24,24S37.255,48,24,48S0,37.255,0,24S10.745,0,24,0z"/>
<g display="none">
	<path display="inline" d="M33.447,27.996c-2.998-2.969-1.68-2.313-1.68-11.998C31.77,12,28.924,8,22.537,8
		c-5.33,0-9.232,3.139-9.232,7.999c0.753,0.061,4.322,0.546,5.875,0.8c0-1.988,1.503-3.974,3.357-3.974
		c3.189,0,3.337,3.122,3.357,4.774C9.892,16.231,8.983,31.996,19.179,31.996c6.698,0,7.553-3.199,7.553-3.199
		s1.852,3.199,2.519,3.199S33.997,28.541,33.447,27.996z M20.001,27.143c-2.25-1.789-0.734-5.544,5.892-5.544
		C25.881,24.564,23.592,29.994,20.001,27.143z"/>
</g>
<g display="none">
	<path display="inline" fill="#F49E16" d="M23.184,36.898c-7.161,0-14.267-5.117-15.131-4.649c-0.863,0.468,7.151,7.75,14.722,7.75
		c7.725,0,13.305-4.657,12.269-5.425C34.334,34.048,29.198,36.898,23.184,36.898z M37.404,32.337
		c-1.729-1.063-5.37,0.622-4.901,1.45c0.257,0.454,3.449-1.066,4.037-0.339c0.549,0.682-1.218,3.179-0.554,3.666
		C36.913,37.791,39.057,33.354,37.404,32.337z"/>
</g>
<path fill="#E8E8E8" d="M24,0c13.255,0,24,10.745,24,24c0,13.256-10.745,24-24,24S0,37.256,0,24C0,10.745,10.745,0,24,0z"/>
<g>
	<path fill="#FF0033" d="M35.576,17.648l-3.773,0.802c-0.561,0.159-2.086,1.281-4.733,3.445c-2.809,2.242-4.254,3.684-4.494,4.405
		c-0.169,2.115-0.142,4.14,0.081,6.248l4.974,0.079l-0.08,1.521h-8.105l-7.222,0.08l0.241-1.441l2.327-0.08
		c1.205-0.08,1.927-0.238,2.167-0.481c0.16-0.159,0.24-1.119,0.24-2.803v-1.04L17.12,26.3c-0.16-0.483-1.444-2.243-3.932-5.287
		c-2.568-3.124-4.254-4.968-5.056-5.608l-4.655-0.642v-1.361c0.242-0.159,2.809-0.159,7.543-0.079c3.29-0.08,6.019-0.08,8.186,0.079
		l-0.162,1.123l-4.895,0.481c1.524,2.243,3.852,5.366,6.981,9.291c4.093-3.125,6.259-5.127,6.339-6.007l-4.172-0.642l-0.321-1.442
		h6.983l6.579,0.082L35.576,17.648z"/>
	<g>
		<g>
			<path fill-rule="evenodd" clip-rule="evenodd" fill="#FF0033" d="M39.01,14.654l-4.133,13.711l1.837,0.979l7.809-12.242
				L39.01,14.654z M32.579,33.26l2.298,1.471l1.375-2.939l-2.295-1.467L32.579,33.26z"/>
		</g>
	</g>
</g>
</svg>
