<?xml version="1.0" encoding="utf-8"?>
<!-- Generator: Adobe Illustrator 16.0.0, SVG Export Plug-In . SVG Version: 6.00 Build 0)  -->
<!DOCTYPE svg PUBLIC "-//W3C//DTD SVG 1.1//EN" "http://www.w3.org/Graphics/SVG/1.1/DTD/svg11.dtd">
<svg version="1.1" id="图层_1" xmlns="http://www.w3.org/2000/svg" xmlns:xlink="http://www.w3.org/1999/xlink" x="0px" y="0px"
	 width="48px" height="48px" viewBox="0 0 48 48" enable-background="new 0 0 48 48" xml:space="preserve">
<circle fill="#B82822" cx="23.937" cy="24.001" r="23.971"/>
<circle fill="none" stroke="#FFFFFF" stroke-miterlimit="10" cx="23.937" cy="24.001" r="21.202"/>
<path fill="#FFFFFF" d="M15.652,10.411c1.835-0.433,3.977-0.647,5.576,0.618c0.08,0.063,0.681,0.919,0.552,0.913
	c3.659,0.179,7.006,3.205,8.09,6.689c0.875,2.813,0.368,6.5,0.368,6.5s-5.868,0.75-6.243,2.063s-0.267,6.584,0.244,9.167
	s2.537,6.396,4.511,8.271c0.635,0.604-5.631,0.693-9.437,0.057c-1.499-0.25-2.344,0.074-2.474-0.703
	c-0.874-5.235,0.411,2.313-2.901-17.547c-0.22-1.32-0.463-2.867-1.063-6.022C12.563,18.77,12,12.5,19.188,12.188
	c0.999-0.043-1.415-1.276-1.72-1.365c-0.654-0.19-1.328-0.309-2.003-0.394C15.515,10.435,15.579,10.428,15.652,10.411z"/>
<path fill="#F5BC1A" d="M36.063,22.757c-1.857,0.255-3.688,2.069-6.25,2.243c-2.346,0.158-4.278-0.271-5.188,0.1
	s-2.702,1.566-2.688,2.938c0.016,1.504,2.01,2.651,3.751,3.463c2.279,1.063,5.019,1.085,7.27,0.524
	c1.855-0.462,3.657-1.634,3.331-2.286s-3.803,1.377-7.289,1.049c-1.534-0.145-4.039-1.769-3.911-2.168
	c0.141-0.44,0.116-1.146,0.6-1.121c1.027,0.054,2.467,0.389,3.347,0.411c2.439,0.063,8.403-2.972,9.466-4.221
	C38.5,23.688,38.313,22.448,36.063,22.757z"/>
<circle fill="#11366E" cx="17.673" cy="21.881" r="1.241"/>
<circle fill="#11366E" cx="27.464" cy="20.947" r="1.241"/>
<polygon fill="#26903A" points="25.365,38.293 29.996,35.966 30.519,43.051 25.569,41.379 22.436,41.622 17.88,43.984 
	17.356,36.899 22.188,38.548 "/>
<path fill="#11366E" d="M17.8,17.53c0.362,0.581-0.701-0.169-1.485,0.125c-0.784,0.293-1.406,1.595-1.262,0.926
	c0.165-0.765,0.319-1.056,1.104-1.35C16.94,16.937,17.624,17.248,17.8,17.53z"/>
<path fill="#11366E" d="M28.313,17.069c0.193,0.653-0.567-0.344-1.302-0.262c-0.734,0.081-1.534,1.177-1.273,0.568
	c0.297-0.695,0.489-0.937,1.223-1.018C27.696,16.276,28.221,16.752,28.313,17.069z"/>
<circle fill="#7386AB" cx="27.967" cy="20.415" r="0.531"/>
<circle fill="#7386AB" cx="18.263" cy="21.673" r="0.531"/>
</svg>
