<?xml version="1.0" encoding="iso-8859-1"?>
<!-- Generator: Adobe Illustrator 16.0.0, SVG Export Plug-In . SVG Version: 6.00 Build 0)  -->
<!DOCTYPE svg PUBLIC "-//W3C//DTD SVG 1.1 Tiny//EN" "http://www.w3.org/Graphics/SVG/1.1/DTD/svg11-tiny.dtd">
<svg version="1.1" baseProfile="tiny" id="&#x56FE;&#x5C42;_1"
	 xmlns="http://www.w3.org/2000/svg" xmlns:xlink="http://www.w3.org/1999/xlink" x="0px" y="0px" width="48px" height="48px"
	 viewBox="0 0 48 48" xml:space="preserve">
<path display="none" fill-rule="evenodd" fill="#4678BC" d="M23.984,0c13.255,0,24,10.745,24,24s-10.745,24-24,24s-24-10.745-24-24
	S10.729,0,23.984,0z"/>
<path display="none" fill-rule="evenodd" fill="#FFFFFF" d="M29.975,7.478c1.113,0.91,3.441,2.825,3.441,6.465
	c0,3.543-2.036,5.219-4.073,6.8c-0.629,0.623-1.357,1.293-1.357,2.346c0,1.055,0.729,1.629,1.261,2.061l1.746,1.34
	c2.134,1.772,4.072,3.401,4.072,6.706c0,4.501-4.412,9.051-12.753,9.051c-7.031,0-10.426-3.305-10.426-6.849
	c0-1.725,0.874-4.167,3.736-5.845c3.005-1.819,7.079-2.058,9.261-2.201c-0.679-0.862-1.454-1.771-1.454-3.255
	c0-0.815,0.242-1.293,0.485-1.868c-0.534,0.047-1.067,0.096-1.553,0.096c-5.14,0-8.049-3.785-8.049-7.519
	c0-2.203,1.018-4.645,3.103-6.417c2.765-2.251,6.062-2.633,8.679-2.633h9.989l-3.104,1.723H29.975L29.975,7.478z M26.53,28.74
	c-0.388-0.049-0.631-0.049-1.114-0.049c-0.436,0-3.056,0.096-5.093,0.768c-1.067,0.382-4.169,1.53-4.169,4.932
	c0,3.398,3.346,5.841,8.534,5.841c4.655,0,7.128-2.201,7.128-5.171C31.816,32.618,30.217,31.326,26.53,28.74L26.53,28.74z
	 M27.938,19.641c1.113-1.103,1.212-2.634,1.212-3.496c0-3.448-2.086-8.811-6.111-8.811c-1.26,0-2.618,0.623-3.395,1.581
	c-0.825,1.005-1.067,2.298-1.067,3.543c0,3.208,1.891,8.524,6.061,8.524C25.852,20.982,27.161,20.407,27.938,19.641L27.938,19.641z"
	/>
<path display="none" fill-rule="evenodd" fill="#ECECEB" d="M24,0c13.255,0,24,10.745,24,24S37.255,48,24,48S0,37.255,0,24
	S10.745,0,24,0z"/>
<g display="none">
	<path display="inline" fill-rule="evenodd" fill="#F5B417" d="M20.5,9.875l-8-3v29l8-7V9.875z M23.5,16.875c0,0,3.207,6.055,3,6
		c-0.059-0.016,5,3,5,3l-18,10l7,6l20-12v-8L23.5,16.875z"/>
</g>
<path fill-rule="evenodd" fill="#ECECEB" d="M24,0c13.255,0,24,10.745,24,24S37.255,48,24,48S0,37.255,0,24S10.745,0,24,0z"/>
<g>
	<path d="M34.447,27.996c-2.998-2.969-1.679-2.313-1.679-11.998C32.769,12,29.924,8,23.537,8c-5.33,0-9.232,3.139-9.232,7.999
		c0.753,0.061,4.322,0.546,5.875,0.8c0-1.988,1.503-3.974,3.357-3.974c3.19,0,3.337,3.122,3.357,4.774
		c-16.001-1.367-16.911,14.398-6.714,14.398c6.698,0,7.554-3.199,7.554-3.199s1.851,3.199,2.518,3.199S34.997,28.541,34.447,27.996z
		 M21.001,27.143c-2.25-1.789-0.734-5.545,5.892-5.545C26.881,24.564,24.592,29.994,21.001,27.143z"/>
</g>
<g>
	<path fill-rule="evenodd" fill="#F49E16" d="M24.184,36.898c-7.161,0-14.267-5.117-15.131-4.649
		c-0.863,0.468,7.151,7.75,14.722,7.75c7.725,0,13.305-4.657,12.269-5.425C35.334,34.048,30.198,36.898,24.184,36.898z
		 M38.404,32.337c-1.729-1.064-5.37,0.622-4.901,1.45c0.257,0.454,3.449-1.067,4.037-0.339c0.549,0.682-1.218,3.179-0.553,3.666
		C37.913,37.791,40.057,33.354,38.404,32.337z"/>
</g>
<path display="none" fill-rule="evenodd" fill="#46288B" d="M24,0c13.255,0,24,10.745,24,24S37.255,48,24,48S0,37.255,0,24
	S10.745,0,24,0z"/>
<path display="none" fill-rule="evenodd" fill="#FFFFFF" d="M40.513,17.528l-4.001,0.851c-0.595,0.168-2.213,1.358-5.021,3.653
	c-2.979,2.378-4.512,3.907-4.766,4.673c-0.18,2.244-0.151,4.39,0.085,6.626l5.276,0.085l-0.085,1.614h-8.596l-7.661,0.085L16,33.585
	l2.468-0.084c1.278-0.085,2.044-0.254,2.299-0.511c0.17-0.168,0.255-1.188,0.255-2.973v-1.104l-0.084-2.209
	c-0.17-0.51-1.532-2.379-4.17-5.607c-2.724-3.313-4.512-5.269-5.363-5.949l-4.937-0.68v-1.444c0.256-0.169,2.979-0.169,8.001-0.084
	c3.489-0.085,6.384-0.085,8.682,0.084l-0.171,1.191l-5.192,0.51c1.617,2.379,4.086,5.691,7.405,9.854
	c4.341-3.314,6.639-5.438,6.724-6.371l-4.426-0.681l-0.34-1.529h7.405l6.979,0.086L40.513,17.528z"/>
</svg>
