<?xml version="1.0" encoding="iso-8859-1"?>
<!-- Generator: Adobe Illustrator 16.0.0, SVG Export Plug-In . SVG Version: 6.00 Build 0)  -->
<!DOCTYPE svg PUBLIC "-//W3C//DTD SVG 1.1 Tiny//EN" "http://www.w3.org/Graphics/SVG/1.1/DTD/svg11-tiny.dtd">
<svg version="1.1" baseProfile="tiny" id="&#x56FE;&#x5C42;_1"
	 xmlns="http://www.w3.org/2000/svg" xmlns:xlink="http://www.w3.org/1999/xlink" x="0px" y="0px" width="48px" height="48px"
	 viewBox="0 0 48 48" xml:space="preserve">
<path display="none" fill-rule="evenodd" fill="#4678BC" d="M23.984,0c13.255,0,24,10.745,24,24s-10.745,24-24,24s-24-10.745-24-24
	S10.729,0,23.984,0z"/>
<path display="none" fill-rule="evenodd" fill="#FFFFFF" d="M29.975,7.478c1.113,0.91,3.441,2.825,3.441,6.465
	c0,3.543-2.036,5.219-4.073,6.8c-0.629,0.623-1.357,1.293-1.357,2.346c0,1.055,0.729,1.629,1.261,2.061l1.746,1.34
	c2.134,1.772,4.072,3.401,4.072,6.706c0,4.501-4.412,9.051-12.753,9.051c-7.031,0-10.426-3.305-10.426-6.849
	c0-1.725,0.874-4.167,3.736-5.845c3.005-1.819,7.079-2.058,9.261-2.201c-0.679-0.862-1.454-1.771-1.454-3.255
	c0-0.815,0.242-1.293,0.485-1.868c-0.534,0.047-1.067,0.096-1.553,0.096c-5.14,0-8.049-3.785-8.049-7.519
	c0-2.203,1.018-4.645,3.103-6.417c2.765-2.251,6.062-2.633,8.679-2.633h9.989l-3.104,1.723H29.975L29.975,7.478z M26.53,28.74
	c-0.388-0.049-0.631-0.049-1.114-0.049c-0.436,0-3.056,0.096-5.093,0.768c-1.067,0.382-4.169,1.53-4.169,4.932
	c0,3.398,3.346,5.841,8.534,5.841c4.655,0,7.128-2.201,7.128-5.171C31.816,32.618,30.217,31.326,26.53,28.74L26.53,28.74z
	 M27.938,19.641c1.113-1.103,1.212-2.634,1.212-3.496c0-3.448-2.086-8.811-6.111-8.811c-1.26,0-2.618,0.623-3.395,1.581
	c-0.825,1.005-1.067,2.298-1.067,3.543c0,3.208,1.891,8.524,6.061,8.524C25.852,20.982,27.161,20.407,27.938,19.641L27.938,19.641z"
	/>
<path fill-rule="evenodd" fill="#ECECEB" d="M24,0c13.255,0,24,10.745,24,24S37.255,48,24,48S0,37.255,0,24S10.745,0,24,0z"/>
<g>
	<path fill-rule="evenodd" fill="#F5B417" d="M20.5,9.875l-8-3v29l8-7V9.875z M23.5,16.875c0,0,3.207,6.055,3,6
		c-0.059-0.016,5,3,5,3l-18,10l7,6l20-12v-8L23.5,16.875z"/>
</g>
</svg>
