<?xml version="1.0" encoding="utf-8"?>
<!-- Generator: Adobe Illustrator 14.0.0, SVG Export Plug-In . SVG Version: 6.00 Build 43363)  -->
<!DOCTYPE svg PUBLIC "-//W3C//DTD SVG 1.1//EN" "http://www.w3.org/Graphics/SVG/1.1/DTD/svg11.dtd">
<svg version="1.1" id="图层_1" xmlns="http://www.w3.org/2000/svg" xmlns:xlink="http://www.w3.org/1999/xlink" x="0px" y="0px"
	 width="50px" height="50px" viewBox="0 0 50 50" enable-background="new 0 0 50 50" xml:space="preserve">
<g>
	<g>
		<path fill="#7F8080" d="M25.217,36.131c6.716,0,12.162-5.479,12.162-12.242V12.402c0-6.76-5.445-12.242-12.162-12.242
			c-6.716,0-12.161,5.482-12.161,12.242v11.486C13.056,30.651,18.502,36.131,25.217,36.131z M15.962,23.564h5.844
			c0.539,0,0.974-0.435,0.974-0.974c0-0.538-0.435-0.975-0.974-0.975h-5.844v-2.92h5.844c0.539,0,0.974-0.435,0.974-0.974
			c0-0.538-0.435-0.975-0.974-0.975h-5.844v-2.919h5.844c0.539,0,0.974-0.434,0.974-0.973c0-0.538-0.435-0.974-0.974-0.974h-5.811
			c0.329-4.896,4.328-8.766,9.225-8.766s8.895,3.87,9.225,8.766h-5.823c-0.538,0-0.974,0.436-0.974,0.974
			c0,0.539,0.436,0.973,0.974,0.973h5.858v2.922h-5.858c-0.538,0-0.974,0.436-0.974,0.974c0,0.539,0.436,0.974,0.974,0.974h5.858
			v2.92h-5.858c-0.538,0-0.974,0.437-0.974,0.975c0,0.539,0.436,0.974,0.974,0.974h5.858v1.287c0,5.201-4.146,8.442-9.258,8.442
			c-5.114,0-9.258-3.242-9.258-8.442L15.962,23.564L15.962,23.564z M44.867,27.522c-0.371-0.537-0.814-0.824-0.982-0.93
			c-0.387-0.238-0.768-0.294-1.529,0.068c-0.156,0.139-0.297,0.246-0.432,0.347c-1.5,8.021-8.408,14.087-16.715,14.087
			c-8.287,0-15.182-6.034-16.707-14.021c-0.192-0.156-0.394-0.279-0.624-0.412c-0.815-0.309-1.428-0.27-1.983-0.041
			c-0.232,0.078-0.532,0.332-0.763,0.802c1.501,8.183,7.816,14.651,15.871,16.291l-3.672,4.474
			c-0.241,0.458-0.265,0.859,0.001,1.063c0.386,0.297,1.601,0.477,3.521,0.477c0.201,0,0.325,0.046,0.417,0.114h8.927
			c0.092-0.068,0.217-0.114,0.416-0.114c1.922,0,3.207-0.095,3.521-0.477c0.33-0.396,0.121-1.137-0.625-1.889
			c-0.012-0.031-0.016-0.059-0.021-0.089l-2.992-3.919C37.805,41.274,43.426,35.153,44.867,27.522z"/>
	</g>
</g>
</svg>
