<?xml version="1.0" encoding="utf-8"?>
<!-- Generator: Adobe Illustrator 14.0.0, SVG Export Plug-In . SVG Version: 6.00 Build 43363)  -->
<!DOCTYPE svg PUBLIC "-//W3C//DTD SVG 1.1//EN" "http://www.w3.org/Graphics/SVG/1.1/DTD/svg11.dtd">
<svg version="1.1" id="图层_1" xmlns="http://www.w3.org/2000/svg" xmlns:xlink="http://www.w3.org/1999/xlink" x="0px" y="0px"
	 width="100px" height="100px" viewBox="0 0 100 100" enable-background="new 0 0 100 100" xml:space="preserve">
<g>
	<g>
		<path fill="#7F8080" d="M33.161,43.863c-0.438-0.484-1.146-0.484-1.585,0l-4.755,5.263c-0.438,0.485-0.438,1.271,0,1.755
			l4.755,5.266c0.438,0.481,1.147,0.481,1.585,0c0.438-0.484,0.438-1.271,0-1.756l-3.962-4.388l3.962-4.386
			C33.599,45.133,33.599,44.347,33.161,43.863z M54.402,66.811l-4.39,3.979l-4.39-3.979c-0.484-0.438-1.271-0.438-1.756,0
			c-0.483,0.438-0.483,1.149,0,1.594l5.268,4.773c0.484,0.438,1.271,0.438,1.757,0l5.267-4.773c0.485-0.439,0.485-1.152,0-1.594
			C55.673,66.369,54.889,66.369,54.402,66.811z M73.178,49.125l-4.775-5.263c-0.438-0.484-1.151-0.484-1.592,0
			c-0.439,0.483-0.438,1.27,0,1.754l3.979,4.386l-3.979,4.387c-0.438,0.482-0.438,1.271,0,1.756c0.438,0.481,1.15,0.481,1.592,0
			l4.775-5.266C73.617,50.396,73.617,49.611,73.178,49.125z M58.506,37.516H41.494c-2.211,0-4.002,1.791-4.002,4v17
			c0,2.209,1.792,4,4.002,4h17.012c2.211,0,4.002-1.791,4.002-4v-17C62.508,39.307,60.717,37.516,58.506,37.516z M59.506,58.518
			c0,0.553-0.445,1-1,1H41.494c-0.553,0-1-0.447-1-1v-17c0-0.553,0.447-1,1-1h17.012c0.555,0,1,0.447,1,1V58.518L59.506,58.518z
			 M45.624,33.162l4.39-3.962l4.39,3.962c0.484,0.438,1.271,0.438,1.754,0c0.486-0.438,0.486-1.147,0-1.585l-5.266-4.755
			c-0.484-0.438-1.271-0.438-1.758,0l-5.268,4.755c-0.483,0.438-0.483,1.146,0,1.585C44.354,33.599,45.139,33.599,45.624,33.162z"/>
	</g>
</g>
<g>
	<path fill="#7F8080" d="M50,5.35c24.62,0,44.65,20.03,44.65,44.65S74.62,94.65,50,94.65S5.35,74.62,5.35,50S25.38,5.35,50,5.35
		 M50,2.5C23.767,2.5,2.5,23.767,2.5,50S23.767,97.5,50,97.5c26.232,0,47.5-21.267,47.5-47.5S76.232,2.5,50,2.5L50,2.5z"/>
</g>
</svg>
