<?xml version="1.0" encoding="utf-8"?>
<!-- Generator: Adobe Illustrator 14.0.0, SVG Export Plug-In . SVG Version: 6.00 Build 43363)  -->
<!DOCTYPE svg PUBLIC "-//W3C//DTD SVG 1.1//EN" "http://www.w3.org/Graphics/SVG/1.1/DTD/svg11.dtd">
<svg version="1.1" id="图层_1" xmlns="http://www.w3.org/2000/svg" xmlns:xlink="http://www.w3.org/1999/xlink" x="0px" y="0px"
	 width="50px" height="50px" viewBox="0 0 50 50" enable-background="new 0 0 50 50" xml:space="preserve">
<g>
	<g>
		<path fill="#828282" d="M38.342,11.655c-7.454-7.457-19.469-7.527-26.837-0.156s-7.299,19.392,0.154,26.848
			c7.454,7.457,19.469,7.524,26.838,0.153C45.863,31.131,45.795,19.109,38.342,11.655z M36.443,13.595
			c2.906,2.902,4.49,6.611,4.775,10.386c-0.004,0.072,0.004,0.142,0.012,0.214c0.252,4.023-0.986,8.096-3.717,11.344L14.917,12.151
			C21.274,7.204,30.528,7.689,36.443,13.595z M13.556,36.44c-6.217-6.206-6.431-16.09-0.637-22.432L35.59,37.47
			C29.227,42.853,19.629,42.502,13.556,36.44z"/>
	</g>
</g>
</svg>
