<?xml version="1.0" encoding="utf-8"?>
<!-- Generator: Adobe Illustrator 14.0.0, SVG Export Plug-In . SVG Version: 6.00 Build 43363)  -->
<!DOCTYPE svg PUBLIC "-//W3C//DTD SVG 1.1//EN" "http://www.w3.org/Graphics/SVG/1.1/DTD/svg11.dtd">
<svg version="1.1" id="图层_1" xmlns="http://www.w3.org/2000/svg" xmlns:xlink="http://www.w3.org/1999/xlink" x="0px" y="0px"
	 width="66px" height="66px" viewBox="0 0 66 66" enable-background="new 0 0 66 66" xml:space="preserve">
<g>
	<g>
		<path fill="#B3B3B3" d="M54.559,18.589c0-0.021-0.006-0.042-0.006-0.063c0-0.217-0.043-0.43-0.125-0.624
			c-0.002-0.005-0.004-0.009-0.006-0.015c-0.02-0.041-0.039-0.078-0.063-0.117c-0.133-0.271-0.324-0.504-0.563-0.672l0,0
			c-2.705-1.941-6.104-3.951-9.366-5.02l-0.003,0.005C44.279,12.034,44.122,12,43.957,12h-4c-0.735,0-1.347,0.532-1.473,1.233
			l-0.025-0.002c-0.627,2.062-2.378,3.771-5.5,3.771c-3.121,0-4.872-1.438-5.5-3.5c0-0.828-0.672-1.5-1.5-1.5h-4
			c-0.136,0-0.264,0.022-0.388,0.058l-0.001-0.003c-0.033,0.011-0.063,0.021-0.095,0.032c-0.041,0.013-0.083,0.023-0.122,0.042
			c-3.56,1.191-6.276,2.805-9.161,5.049c-0.622,0.377-0.914,1.155-0.659,1.871l2.882,11.904c0.155,0.435,0.481,0.752,0.873,0.917
			c0.055,0.024,0.11,0.042,0.167,0.062c0.02,0.005,0.037,0.014,0.057,0.02c0.319,0.093,0.67,0.092,1.004-0.036l3.644-1.149
			l-2.533,19.602c-0.074,0.66,0.293,1.262,0.863,1.523v0.035C22.01,53.434,28.863,54,32.959,54c4.055,0,10.796-0.566,14.349-2.035
			c0.724-0.164,1.227-0.859,1.142-1.635l-2.742-19.583l3.698,1.167c0.335,0.128,0.687,0.129,1.005,0.035
			c0.021-0.004,0.034-0.012,0.053-0.017c0.06-0.02,0.114-0.037,0.173-0.063c0.391-0.166,0.717-0.484,0.87-0.917l2.892-11.604
			C54.496,19.119,54.559,18.861,54.559,18.589z M20.728,49.787l2.683-20.771c0.079-0.269,0.086-0.557,0.012-0.841
			c-0.013-0.053-0.026-0.104-0.043-0.156c-0.001-0.003-0.001-0.007-0.002-0.01c-0.002-0.004-0.005-0.008-0.007-0.012
			c-0.188-0.52-0.65-0.917-1.236-0.983c-0.037-0.004-0.073,0-0.109-0.001c-0.055-0.004-0.109-0.003-0.164-0.002
			c-0.017,0.001-0.033,0.002-0.05,0.003c-0.156,0.011-0.313,0.036-0.468,0.096l-4.329,1.366l-2.286-9.438
			c2.312-1.688,4.905-3.019,7.696-4.036h2.444c1.142,2.774,3.981,5,8.09,5s6.948-2.226,8.09-5h2.545
			c2.457,0.906,5.268,2.57,7.614,4.261l-2.294,9.215l-4.338-1.369c-0.447-0.172-0.924-0.12-1.313,0.092
			c-0.035,0.02-0.068,0.037-0.104,0.059c-0.037,0.023-0.07,0.051-0.104,0.077c-0.046,0.035-0.091,0.071-0.132,0.111
			c-0.03,0.029-0.061,0.062-0.089,0.093c-0.032,0.039-0.063,0.079-0.096,0.121c-0.033,0.047-0.063,0.095-0.093,0.146
			c-0.015,0.027-0.027,0.055-0.041,0.082c-0.021,0.041-0.045,0.077-0.063,0.12c-0.128,0.332-0.13,0.68-0.037,0.996l2.899,20.708
			C41.717,50.76,36.4,51,32.958,51C29.566,51,24.39,50.789,20.728,49.787z"/>
	</g>
</g>
</svg>
