<?xml version="1.0" encoding="utf-8"?>
<!-- Generator: Adobe Illustrator 14.0.0, SVG Export Plug-In . SVG Version: 6.00 Build 43363)  -->
<!DOCTYPE svg PUBLIC "-//W3C//DTD SVG 1.1//EN" "http://www.w3.org/Graphics/SVG/1.1/DTD/svg11.dtd">
<svg version="1.1" id="图层_1" xmlns="http://www.w3.org/2000/svg" xmlns:xlink="http://www.w3.org/1999/xlink" x="0px" y="0px"
	 width="50px" height="50px" viewBox="0 0 50 50" enable-background="new 0 0 50 50" xml:space="preserve">
<path fill="#3B9638" d="M38.886,15.012c-0.941-0.808-0.339-4.217-5.816-8.644c-2.196-1.774,2.365,7.082-4.028,6
	c-3.547-0.602-16.667-3.116-24.79,11.55c-7.373,13.31-2.972,11.998-2.26,10.181s4.955-6.346,4.955-6.346s7.164-6.541,14.872-4.829
	c2.116,0.47,3.566,1.597,5.798,3.467c1.301,1.094-5.047,3.405-5.68,2.932c-0.632-0.475,3.019,2.771,11.187,1.604
	c1.828-0.26,12.772,14.736,15.876,12.762c0,0,1.992,0.156-0.046-5.375C48.929,38.243,54.699,28.563,38.886,15.012z"/>
</svg>
