<?xml version="1.0" encoding="utf-8"?>
<!-- Generator: Adobe Illustrator 14.0.0, SVG Export Plug-In . SVG Version: 6.00 Build 43363)  -->
<!DOCTYPE svg PUBLIC "-//W3C//DTD SVG 1.1//EN" "http://www.w3.org/Graphics/SVG/1.1/DTD/svg11.dtd">
<svg version="1.1" id="图层_1" xmlns="http://www.w3.org/2000/svg" xmlns:xlink="http://www.w3.org/1999/xlink" x="0px" y="0px"
	 width="50px" height="50px" viewBox="0 0 50 50" enable-background="new 0 0 50 50" xml:space="preserve">
<g>
	<g>
		<path fill="#BBBABA" d="M45.818,25.694c0.036-0.075,0.068-0.147,0.094-0.228c0.037-0.119,0.063-0.241,0.067-0.371
			c0.004-0.078-0.001-0.152-0.008-0.231c-0.011-0.087-0.022-0.171-0.047-0.252c-0.063-0.257-0.168-0.504-0.358-0.706L26.544,3.958
			c-0.573-0.604-1.504-0.604-2.079,0c-0.574,0.604-0.574,1.583,0,2.188l16.564,17.37H5.518c-0.828,0-1.499,0.673-1.499,1.5
			c0,0.829,0.671,1.5,1.499,1.5h35.48L24.465,43.855c-0.574,0.604-0.574,1.582,0,2.187c0.574,0.604,1.504,0.604,2.079,0
			l19.021-19.948c0.046-0.048,0.065-0.109,0.104-0.165C45.727,25.855,45.775,25.777,45.818,25.694z"/>
	</g>
</g>
</svg>
