<?xml version="1.0" encoding="utf-8"?>
<!-- Generator: Adobe Illustrator 16.0.0, SVG Export Plug-In . SVG Version: 6.00 Build 0)  -->
<!DOCTYPE svg PUBLIC "-//W3C//DTD SVG 1.1//EN" "http://www.w3.org/Graphics/SVG/1.1/DTD/svg11.dtd">
<svg version="1.1" id="Layer_1" xmlns="http://www.w3.org/2000/svg" xmlns:xlink="http://www.w3.org/1999/xlink" x="0px" y="0px"
	 width="50px" height="50px" viewBox="0 0 50 50" enable-background="new 0 0 50 50" xml:space="preserve">
<g>
	<g>
		<path fill-rule="evenodd" clip-rule="evenodd" fill="#C7C8CA" d="M48.004,23.5H44.43c-0.325-4.254-2.019-8.12-4.635-11.171
			l3.119-3.117c0.585-0.586,0.585-1.536-0.001-2.122c-0.586-0.585-1.536-0.585-2.122,0l-3.117,3.118
			C34.622,7.593,30.756,5.9,26.5,5.576V2c0-0.828-0.672-1.5-1.5-1.5S23.5,1.172,23.5,2v3.576c-4.255,0.325-8.12,2.019-11.171,4.635
			L9.209,7.09c-0.586-0.585-1.536-0.585-2.122,0c-0.586,0.586-0.586,1.536,0,2.122l3.12,3.12c-2.615,3.05-4.308,6.915-4.633,11.168
			H1.996c-0.829,0-1.501,0.672-1.501,1.5s0.672,1.5,1.501,1.5h3.578c0.325,4.254,2.018,8.118,4.633,11.169l-3.121,3.12
			c-0.586,0.586-0.586,1.535,0,2.121s1.536,0.586,2.122,0l3.12-3.12c3.051,2.616,6.917,4.309,11.171,4.634V48
			c0,0.828,0.672,1.5,1.5,1.5s1.5-0.672,1.5-1.5v-3.575c4.255-0.324,8.121-2.018,11.173-4.633l3.118,3.118
			c0.586,0.586,1.536,0.586,2.122,0s0.586-1.535,0-2.121l-3.118-3.117c2.616-3.052,4.31-6.917,4.635-11.172h3.574
			c0.829,0,1.501-0.672,1.501-1.5S48.833,23.5,48.004,23.5z M25.002,41.5c-9.113,0-16.5-7.387-16.5-16.5
			c0-9.112,7.387-16.5,16.5-16.5s16.5,7.388,16.5,16.5C41.502,34.113,34.115,41.5,25.002,41.5z M25.006,16.505
			c-4.695,0-8.502,3.805-8.502,8.499c0,4.695,3.807,8.5,8.502,8.5c4.694,0,8.5-3.805,8.5-8.5
			C33.506,20.31,29.7,16.505,25.006,16.505z M25.004,30.502c-3.039,0-5.501-2.461-5.501-5.499s2.462-5.5,5.501-5.5
			c3.037,0,5.5,2.462,5.5,5.5S28.041,30.502,25.004,30.502z"/>
	</g>
</g>
</svg>
