<?xml version="1.0" encoding="utf-8"?>
<!-- Generator: Adobe Illustrator 14.0.0, SVG Export Plug-In . SVG Version: 6.00 Build 43363)  -->
<!DOCTYPE svg PUBLIC "-//W3C//DTD SVG 1.1//EN" "http://www.w3.org/Graphics/SVG/1.1/DTD/svg11.dtd">
<svg version="1.1" id="图层_1" xmlns="http://www.w3.org/2000/svg" xmlns:xlink="http://www.w3.org/1999/xlink" x="0px" y="0px"
	 width="45px" height="45px" viewBox="0 0 45 45" enable-background="new 0 0 45 45" xml:space="preserve">
<g>
	<g>
		<path fill="#7F8080" d="M22.5,25.5c0.828,0,1.5-0.672,1.5-1.5V3c0-0.828-0.672-1.5-1.5-1.5S21,2.172,21,3v21
			C21,24.828,21.672,25.5,22.5,25.5z M33.343,7.816C33.32,7.8,33.299,7.785,33.275,7.77c-0.068-0.046-0.137-0.098-0.207-0.144
			L33.055,7.65c-0.181-0.076-0.379-0.119-0.586-0.119c-0.828,0-1.5,0.672-1.5,1.5c0,0.477,0.229,0.897,0.575,1.172l-0.002,0.003
			c0.013,0.008,0.022,0.017,0.035,0.025c0.03,0.023,0.062,0.045,0.095,0.066C36.087,13.258,39,18.285,39,24
			c0,9.111-7.387,16.5-16.5,16.5C13.388,40.5,6,33.111,6,24c0-5.676,2.875-10.67,7.238-13.639C13.691,10.103,14,9.621,14,9.063
			c0-0.828-0.672-1.5-1.5-1.5c-0.192,0-0.374,0.04-0.543,0.105l-0.024-0.042C6.563,11.1,3,17.129,3,24c0,10.77,8.73,19.5,19.5,19.5
			C33.27,43.5,42,34.77,42,24C42,17.249,38.557,11.316,33.343,7.816z"/>
	</g>
</g>
</svg>
