<?xml version="1.0" encoding="utf-8"?>
<!-- Generator: Adobe Illustrator 14.0.0, SVG Export Plug-In . SVG Version: 6.00 Build 43363)  -->
<!DOCTYPE svg PUBLIC "-//W3C//DTD SVG 1.1//EN" "http://www.w3.org/Graphics/SVG/1.1/DTD/svg11.dtd">
<svg version="1.1" id="图层_1" xmlns="http://www.w3.org/2000/svg" xmlns:xlink="http://www.w3.org/1999/xlink" x="0px" y="0px"
	 width="50px" height="50px" viewBox="0 0 50 50" enable-background="new 0 0 50 50" xml:space="preserve">
<g>
	<g>
		<path fill="#7F8080" d="M6.068,19.398c0-7.623,6.164-13.802,13.768-13.802c6.717,0,12.303,4.825,13.516,11.206h2.617
			C34.73,8.98,27.992,2.995,19.842,2.995c-9.03,0-16.349,7.338-16.349,16.392c0,9.053,7.319,16.392,16.349,16.392h0.006v-2.578
			c-0.004,0-0.008,0.002-0.013,0.002C12.232,33.201,6.068,27.021,6.068,19.398z M46.311,35.565
			c-0.918-4.821-3.521-8.377-5.217-9.509c-1.801-1.203-4.47-2.225-5.847-2.225c-0.718,0-2.43,2.335-2.43,2.335
			s-0.578-2.536-2.277-2.593c-1.354-0.046-1.623,2.544-2.494,2.544c-0.667,0-5.188-8.579-6.155-9.144
			c-1.282-0.749-3.898,0.85-2.514,2.948c1.385,2.098,7.747,14.089,8.105,14.839c0.357,0.75,1.642,3.396,0.819,3.396
			c-0.819,0-3.437-4.047-5.693-2.449c-1.046,0.74-0.757,1.855,0.16,2.93c0.916,1.07,8.318,8.713,15.287,8.355
			C45.026,46.64,47.227,40.388,46.311,35.565z"/>
	</g>
</g>
</svg>
