<?xml version="1.0" encoding="utf-8"?>
<!-- Generator: Adobe Illustrator 14.0.0, SVG Export Plug-In . SVG Version: 6.00 Build 43363)  -->
<!DOCTYPE svg PUBLIC "-//W3C//DTD SVG 1.1//EN" "http://www.w3.org/Graphics/SVG/1.1/DTD/svg11.dtd">
<svg version="1.1" id="图层_1" xmlns="http://www.w3.org/2000/svg" xmlns:xlink="http://www.w3.org/1999/xlink" x="0px" y="0px"
	 width="45px" height="45px" viewBox="0 0 45 45" enable-background="new 0 0 45 45" xml:space="preserve">
<g>
	<g>
		<path fill="#7F8080" d="M36.517,21.989c-0.828,0-1.5,0.672-1.5,1.5c0,0.008,0.002,0.016,0.002,0.021h-0.002v15.479
			c0,0.553-0.447,1-1,1h-3h-2c-0.553,0-1-0.447-1-1V31.51h-0.004c0-0.008,0.006-0.016,0.006-0.021c0-0.652-0.42-1.201-1-1.408
			v-0.092h-9v0.092c-0.582,0.207-1,0.756-1,1.408c0,0.01,0.004,0.016,0.004,0.021h-0.004v7.479c0,0.553-0.449,1-1,1h-2h-3
			c-0.552,0-1-0.447-1-1V23.511h-0.003c0-0.008,0.002-0.016,0.002-0.021c0-0.828-0.671-1.5-1.5-1.5s-1.5,0.672-1.5,1.5
			c0,0.008,0.002,0.016,0.002,0.021H7.017v16.479c0,1.656,1.343,3,3,3h4h3c1.657,0,3-1.344,3-3v-7h5v7c0,1.656,1.344,3,3,3h3h4
			c1.656,0,3-1.344,3-3V23.511h-0.002c0-0.008,0.002-0.016,0.002-0.021C38.017,22.661,37.345,21.989,36.517,21.989z M43.542,21.491
			L23.597,2.441c-0.605-0.575-1.584-0.575-2.189,0L1.458,21.491c-0.604,0.575-0.604,1.508,0,2.082c0.604,0.575,1.583,0.575,2.186,0
			L22.5,5.567l18.854,18.005c0.604,0.575,1.584,0.575,2.188,0C44.146,23,44.146,22.066,43.542,21.491z"/>
	</g>
</g>
</svg>
