<?xml version="1.0" encoding="utf-8"?>
<!-- Generator: Adobe Illustrator 14.0.0, SVG Export Plug-In . SVG Version: 6.00 Build 43363)  -->
<!DOCTYPE svg PUBLIC "-//W3C//DTD SVG 1.1//EN" "http://www.w3.org/Graphics/SVG/1.1/DTD/svg11.dtd">
<svg version="1.1" id="图层_1" xmlns="http://www.w3.org/2000/svg" xmlns:xlink="http://www.w3.org/1999/xlink" x="0px" y="0px"
	 width="66px" height="66px" viewBox="0 0 66 66" enable-background="new 0 0 66 66" xml:space="preserve">
<g>
	<g>
		<path fill="#7F8080" d="M33,43c-1.933,0-3.5,1.566-3.5,3.5S31.067,50,33,50c1.934,0,3.5-1.566,3.5-3.5S34.934,43,33,43z M33,48
			c-0.828,0-1.5-0.672-1.5-1.5S32.172,45,33,45s1.5,0.672,1.5,1.5S33.828,48,33,48z M45.5,11h-25c-1.657,0-3,1.343-3,3v38
			c0,1.657,1.343,3,3,3h25c1.657,0,3-1.343,3-3V14C48.5,12.343,47.157,11,45.5,11z M45.5,51c0,0.553-0.447,1-1,1h-23
			c-0.553,0-1-0.447-1-1V15c0-0.553,0.447-1,1-1h23c0.553,0,1,0.447,1,1V51z M35,16h-4c-0.828,0-1.5,0.672-1.5,1.5S30.172,19,31,19
			h4c0.828,0,1.5-0.672,1.5-1.5S35.828,16,35,16z"/>
	</g>
</g>
</svg>
