<?xml version="1.0" encoding="utf-8"?>
<!-- Generator: Adobe Illustrator 14.0.0, SVG Export Plug-In . SVG Version: 6.00 Build 43363)  -->
<!DOCTYPE svg PUBLIC "-//W3C//DTD SVG 1.1//EN" "http://www.w3.org/Graphics/SVG/1.1/DTD/svg11.dtd">
<svg version="1.1" id="图层_1" xmlns="http://www.w3.org/2000/svg" xmlns:xlink="http://www.w3.org/1999/xlink" x="0px" y="0px"
	 width="100px" height="100px" viewBox="0 0 100 100" enable-background="new 0 0 100 100" xml:space="preserve">
<g>
	<g>
		<path fill="#7F8080" d="M66.802,41c0.123-0.264,0.206-0.577,0.206-1c0-2.209-1.792-4-4.003-4h-6.011c-2.21,0-4.002,1.791-4.002,4
			c0,0.423,0.083,0.736,0.206,1H66.802z M66.005,43H51.016v3h14.989c0.554,0,1.001,0.448,1.001,1v15c0,0.553-0.447,1-1.001,1H33.994
			c-0.552,0-1-0.447-1-1v-5.143c0.007,0.002,0.015,0.004,0.022,0.006v-3.754c-0.004-0.039-0.022-0.07-0.022-0.109V38
			c0-0.552,0.448-1,1-1h13.012c0.552,0,1,0.448,1,1v8h3.002v-8c0-2.209-1.792-4-4.002-4H33.994c-2.21,0-4.002,1.791-4.002,4v24
			c0,2.209,1.792,4,4.002,4h32.011c2.211,0,4.003-1.791,4.003-4V47C70.008,44.791,68.216,43,66.005,43z"/>
	</g>
</g>
<g>
	<path fill="#7F8080" d="M50,5.35c24.62,0,44.65,20.03,44.65,44.65S74.62,94.65,50,94.65S5.35,74.62,5.35,50S25.38,5.35,50,5.35
		 M50,2.5C23.767,2.5,2.5,23.767,2.5,50S23.767,97.5,50,97.5c26.232,0,47.5-21.267,47.5-47.5S76.232,2.5,50,2.5L50,2.5z"/>
</g>
</svg>
