<?xml version="1.0" encoding="utf-8"?>
<!-- Generator: Adobe Illustrator 14.0.0, SVG Export Plug-In . SVG Version: 6.00 Build 43363)  -->
<!DOCTYPE svg PUBLIC "-//W3C//DTD SVG 1.1//EN" "http://www.w3.org/Graphics/SVG/1.1/DTD/svg11.dtd">
<svg version="1.1" id="图层_1" xmlns="http://www.w3.org/2000/svg" xmlns:xlink="http://www.w3.org/1999/xlink" x="0px" y="0px"
	 width="50px" height="50px" viewBox="0 0 50 50" enable-background="new 0 0 50 50" xml:space="preserve">
<g>
	<g>
		<path fill="#7F8080" d="M43.75,6.5h-31c-0.828,0-1.5,0.672-1.5,1.5s0.672,1.5,1.5,1.5h31c0.553,0,1,0.447,1,1V33
			c0,0.828,0.672,1.5,1.5,1.5s1.5-0.672,1.5-1.5V10.5C47.75,8.291,45.959,6.5,43.75,6.5z M37.75,12.5H6.25c-2.209,0-4,1.791-4,4v23
			c0,2.209,1.791,4,4,4h31.5c2.209,0,4-1.791,4-4v-23C41.75,14.291,39.959,12.5,37.75,12.5z M38.75,39.5c0,0.553-0.447,1-1,1H6.25
			c-0.553,0-1-0.447-1-1v-23c0-0.552,0.447-1,1-1h31.5c0.553,0,1,0.448,1,1V39.5z"/>
	</g>
</g>
</svg>
