<?xml version="1.0" encoding="utf-8"?>
<!-- Generator: Adobe Illustrator 16.0.0, SVG Export Plug-In . SVG Version: 6.00 Build 0)  -->
<!DOCTYPE svg PUBLIC "-//W3C//DTD SVG 1.1//EN" "http://www.w3.org/Graphics/SVG/1.1/DTD/svg11.dtd">
<svg version="1.1" id="图层_1" xmlns="http://www.w3.org/2000/svg" xmlns:xlink="http://www.w3.org/1999/xlink" x="0px" y="0px"
	 width="70px" height="70px" viewBox="0 0 70 70" enable-background="new 0 0 70 70" xml:space="preserve">
<g>
	<g>
		<path fill-rule="evenodd" clip-rule="evenodd" fill="#7F8080" d="M62,0H8C3.452,0,0,3.452,0,8v54c0,4.548,3.452,8,8,8h54
			c4.548,0,8-3.452,8-8V8.235C70,3.687,66.548,0,62,0z M68,61c0,4.334-2.666,7-7,7H9c-4.334,0-7-2.666-7-7V9c0-4.334,2.666-7,7-7h52
			c4.334,0,7,2.666,7,7V61z"/>
	</g>
</g>
</svg>
