<?xml version="1.0" encoding="utf-8"?>
<!-- Generator: Adobe Illustrator 14.0.0, SVG Export Plug-In . SVG Version: 6.00 Build 43363)  -->
<!DOCTYPE svg PUBLIC "-//W3C//DTD SVG 1.1//EN" "http://www.w3.org/Graphics/SVG/1.1/DTD/svg11.dtd">
<svg version="1.1" id="图层_1" xmlns="http://www.w3.org/2000/svg" xmlns:xlink="http://www.w3.org/1999/xlink" x="0px" y="0px"
	 width="66px" height="66px" viewBox="0 0 66 66" enable-background="new 0 0 66 66" xml:space="preserve">
<g>
	<g>
		<path fill="#7F8080" d="M47,42.5c-2.033,0-3.848,0.936-5.039,2.396L25.249,34.771C25.409,34.207,25.5,33.615,25.5,33
			c0-0.692-0.11-1.357-0.311-1.983l16.534-10.233C42.902,22.426,44.823,23.5,47,23.5c3.59,0,6.5-2.91,6.5-6.5s-2.91-6.5-6.5-6.5
			s-6.5,2.91-6.5,6.5c0,0.419,0.043,0.829,0.119,1.226L23.805,28.633C22.616,27.326,20.906,26.5,19,26.5c-3.59,0-6.5,2.91-6.5,6.5
			s2.91,6.5,6.5,6.5c2.053,0,3.88-0.953,5.071-2.439l16.693,10.114C40.596,47.754,40.5,48.365,40.5,49c0,3.59,2.91,6.5,6.5,6.5
			s6.5-2.91,6.5-6.5S50.59,42.5,47,42.5z M47,13.5c1.934,0,3.5,1.566,3.5,3.5c0,1.933-1.566,3.5-3.5,3.5s-3.5-1.567-3.5-3.5
			C43.5,15.066,45.066,13.5,47,13.5z M19,36.5c-1.933,0-3.5-1.566-3.5-3.5c0-1.934,1.567-3.5,3.5-3.5s3.5,1.566,3.5,3.5
			C22.5,34.934,20.933,36.5,19,36.5z M47,52.5c-1.934,0-3.5-1.566-3.5-3.5s1.566-3.5,3.5-3.5s3.5,1.566,3.5,3.5S48.934,52.5,47,52.5
			z"/>
	</g>
</g>
</svg>
