<?xml version="1.0" encoding="utf-8"?>
<!-- Generator: Adobe Illustrator 14.0.0, SVG Export Plug-In . SVG Version: 6.00 Build 43363)  -->
<!DOCTYPE svg PUBLIC "-//W3C//DTD SVG 1.1//EN" "http://www.w3.org/Graphics/SVG/1.1/DTD/svg11.dtd">
<svg version="1.1" id="图层_1" xmlns="http://www.w3.org/2000/svg" xmlns:xlink="http://www.w3.org/1999/xlink" x="0px" y="0px"
	 width="50px" height="50px" viewBox="0 0 50 50" enable-background="new 0 0 50 50" xml:space="preserve">
<g>
	<g>
		<path fill="#7E7E7F" d="M43.935,25.042H43.92c-0.015-0.33-0.142-0.658-0.396-0.913c-0.531-0.534-1.389-0.541-1.912-0.016
			c-0.33,0.332-0.424,0.792-0.334,1.222c0.299,4.532-1.242,9.142-4.676,12.583c-6.369,6.385-16.755,6.321-23.201-0.14
			c-6.443-6.459-6.505-16.868-0.135-23.251c6.107-6.123,15.903-6.298,22.383-0.604l-6.024,1.25c-0.806,0.167-1.341,0.84-1.193,1.504
			c0.145,0.664,0.915,1.066,1.719,0.899l7.771-1.611c0.356-0.074,0.655-0.25,0.87-0.479c0.386-0.326,0.578-0.9,0.449-1.496
			l-1.726-7.91c-0.179-0.819-0.896-1.365-1.6-1.218c-0.705,0.146-1.132,0.929-0.953,1.748l0.899,4.126
			c-7.445-5.284-17.76-4.666-24.359,1.932c-7.374,7.373-7.305,19.397,0.155,26.854c7.459,7.459,19.484,7.525,26.857,0.154
			C42.517,35.678,44.308,30.308,43.935,25.042z"/>
	</g>
</g>
</svg>
