<?xml version="1.0" encoding="utf-8"?>
<!-- Generator: Adobe Illustrator 16.0.0, SVG Export Plug-In . SVG Version: 6.00 Build 0)  -->
<!DOCTYPE svg PUBLIC "-//W3C//DTD SVG 1.1//EN" "http://www.w3.org/Graphics/SVG/1.1/DTD/svg11.dtd">
<svg version="1.1" id="图层_1" xmlns="http://www.w3.org/2000/svg" xmlns:xlink="http://www.w3.org/1999/xlink" x="0px" y="0px"
	 width="60px" height="60px" viewBox="0 0 60 60" enable-background="new 0 0 60 60" xml:space="preserve">
<g>
	<g>
		<path fill-rule="evenodd" clip-rule="evenodd" fill="#808080" d="M32,15.5c0.828,0,1.5-0.672,1.5-1.5s-0.672-1.5-1.5-1.5h-4
			c-0.828,0-1.5,0.672-1.5,1.5s0.672,1.5,1.5,1.5H32z M42.5,47.5c0,0.553-0.447,1-1,1h-23c-0.553,0-1-0.447-1-1v-36
			c0-0.553,0.447-1,1-1h23c0.024,0,0.045,0.012,0.069,0.014c1.599-0.008,2.931,0.001,3.931,0.014V10.5c0-1.657-1.343-3-3-3h-25
			c-1.657,0-3,1.343-3,3v38c0,1.657,1.343,3,3,3h25c1.657,0,3-1.343,3-3v-20h-3V47.5z M30,46.5c1.933,0,3.5-1.567,3.5-3.5
			s-1.567-3.5-3.5-3.5s-3.5,1.567-3.5,3.5S28.067,46.5,30,46.5z M30,41.5c0.828,0,1.5,0.672,1.5,1.5s-0.672,1.5-1.5,1.5
			s-1.5-0.672-1.5-1.5S29.172,41.5,30,41.5z M51.5,19.5l-8-8v4c0,0-9.857,0.857-14,13c7.143-6.286,14-6,14-6v4L51.5,19.5z"/>
	</g>
</g>
</svg>
