<?xml version="1.0" encoding="utf-8"?>
<!-- Generator: Adobe Illustrator 16.0.0, SVG Export Plug-In . SVG Version: 6.00 Build 0)  -->
<!DOCTYPE svg PUBLIC "-//W3C//DTD SVG 1.1//EN" "http://www.w3.org/Graphics/SVG/1.1/DTD/svg11.dtd">
<svg version="1.1" id="图层_1" xmlns="http://www.w3.org/2000/svg" xmlns:xlink="http://www.w3.org/1999/xlink" x="0px" y="0px"
	 width="42.006px" height="34.994px" viewBox="0 0 42.006 34.994" enable-background="new 0 0 42.006 34.994" xml:space="preserve">
<g>
	<g>
		<path fill-rule="evenodd" clip-rule="evenodd" fill="#7F8080" d="M1.506,18.994h6.5v-3h-6.5c-0.829,0-1.5,0.672-1.5,1.5
			S0.677,18.994,1.506,18.994z M9.006,12.494v10c0,0.828,0.671,1.5,1.5,1.5s1.5-0.672,1.5-1.5v-10c0-0.828-0.671-1.5-1.5-1.5
			S9.006,11.666,9.006,12.494z M33.506,12.994c0.828,0,1.5-0.672,1.5-1.5v-10c0-0.828-0.672-1.5-1.5-1.5s-1.5,0.672-1.5,1.5v10
			C32.006,12.322,32.678,12.994,33.506,12.994z M42.006,6.494c0-0.828-0.672-1.5-1.5-1.5h-4.5v3h4.5
			C41.334,7.994,42.006,7.322,42.006,6.494z M1.506,7.994h29.5v-3h-29.5c-0.829,0-1.5,0.672-1.5,1.5S0.677,7.994,1.506,7.994z
			 M0.006,28.494c0,0.828,0.671,1.5,1.5,1.5h29.5v-3h-29.5C0.677,26.994,0.006,27.666,0.006,28.494z M40.506,26.994h-4.5v3h4.5
			c0.828,0,1.5-0.672,1.5-1.5S41.334,26.994,40.506,26.994z M40.506,15.994h-27.5v3h27.5c0.828,0,1.5-0.672,1.5-1.5
			S41.334,15.994,40.506,15.994z M33.506,21.994c-0.828,0-1.5,0.672-1.5,1.5v10c0,0.828,0.672,1.5,1.5,1.5s1.5-0.672,1.5-1.5v-10
			C35.006,22.666,34.334,21.994,33.506,21.994z"/>
	</g>
</g>
</svg>
