<?xml version="1.0" encoding="utf-8"?>
<!-- Generator: Adobe Illustrator 14.0.0, SVG Export Plug-In . SVG Version: 6.00 Build 43363)  -->
<!DOCTYPE svg PUBLIC "-//W3C//DTD SVG 1.1//EN" "http://www.w3.org/Graphics/SVG/1.1/DTD/svg11.dtd">
<svg version="1.1" id="图层_1" xmlns="http://www.w3.org/2000/svg" xmlns:xlink="http://www.w3.org/1999/xlink" x="0px" y="0px"
	 width="100px" height="100px" viewBox="0 0 100 100" enable-background="new 0 0 100 100" xml:space="preserve">
<g>
	<g>
		<path fill="#7F8080" d="M77.014,49.013c-3.19-3.632-13.591-14.215-26.587-14.497c-0.134-0.003-0.265-0.02-0.4-0.02
			c-0.048,0-0.095,0.007-0.143,0.007C36.923,34.511,26.315,45.04,23.051,48.66c-0.726,0.888-0.765,1.766,0.039,2.57
			c3.146,3.758,12.973,13.994,26.747,14.26c0.063,0.002,0.125,0.01,0.189,0.01c0.023,0,0.047-0.004,0.07-0.004
			c0.095,0.002,0.188,0.008,0.282,0.008c11.683,0,23.24-10.777,26.646-14.23C77.648,50.662,77.682,49.783,77.014,49.013z
			 M26.907,50.992c-0.461-0.531-0.626-1.605,0.079-2.22c1.724-1.775,5.535-5.325,10.59-7.974c-1.904,2.575-3.044,5.75-3.044,9.2
			c0,3.494,1.169,6.707,3.118,9.298C32.32,56.579,28.557,52.837,26.907,50.992z M50.019,62.506c-6.905,0-12.503-5.599-12.503-12.504
			c0-6.905,5.598-12.504,12.503-12.504c6.904,0,12.5,5.598,12.5,12.504C62.521,56.908,56.924,62.506,50.019,62.506z M73.184,51.098
			c-1.711,1.619-5.572,5.021-10.396,7.688c1.724-2.498,2.735-5.522,2.735-8.788c0-3.397-1.104-6.529-2.959-9.083
			c5.019,2.682,8.773,6.248,10.511,8.07C73.559,49.37,73.732,50.399,73.184,51.098z M50.523,46.498c0-1.577,0.74-2.966,1.875-3.884
			c-0.442-0.083-0.9-0.131-1.371-0.131c-4.138,0-7.493,3.359-7.493,7.502c0,4.144,3.355,7.503,7.493,7.503
			c3.971,0,7.207-3.09,7.473-6.995c-0.834,0.629-1.857,1.017-2.98,1.017C52.762,51.508,50.523,49.265,50.523,46.498z"/>
	</g>
</g>
<g>
	<path fill="#7F8080" d="M50,5.35c24.62,0,44.65,20.03,44.65,44.65S74.62,94.65,50,94.65S5.35,74.62,5.35,50S25.38,5.35,50,5.35
		 M50,2.5C23.767,2.5,2.5,23.767,2.5,50S23.767,97.5,50,97.5c26.232,0,47.5-21.267,47.5-47.5S76.232,2.5,50,2.5L50,2.5z"/>
</g>
</svg>
