<?xml version="1.0" encoding="utf-8"?>
<!-- Generator: Adobe Illustrator 14.0.0, SVG Export Plug-In . SVG Version: 6.00 Build 43363)  -->
<!DOCTYPE svg PUBLIC "-//W3C//DTD SVG 1.1//EN" "http://www.w3.org/Graphics/SVG/1.1/DTD/svg11.dtd">
<svg version="1.1" id="图层_1" xmlns="http://www.w3.org/2000/svg" xmlns:xlink="http://www.w3.org/1999/xlink" x="0px" y="0px"
	 width="50px" height="50px" viewBox="0 0 50 50" enable-background="new 0 0 50 50" xml:space="preserve">
<g>
	<g>
		<path fill="#BBBABA" d="M4.182,24.307c-0.035,0.074-0.068,0.146-0.094,0.228c-0.037,0.119-0.063,0.241-0.066,0.371
			c-0.004,0.078,0,0.152,0.008,0.231c0.011,0.087,0.021,0.171,0.047,0.252c0.063,0.255,0.168,0.503,0.357,0.707l19.022,19.947
			c0.573,0.604,1.504,0.604,2.08,0c0.572-0.604,0.572-1.583,0-2.188L8.971,26.484h35.512c0.828,0,1.498-0.674,1.498-1.5
			c0-0.83-0.67-1.5-1.498-1.5H9.001l16.534-17.34c0.572-0.604,0.572-1.582,0-2.187c-0.575-0.604-1.504-0.604-2.08,0L4.436,23.906
			c-0.047,0.048-0.065,0.109-0.104,0.164C4.272,24.145,4.225,24.223,4.182,24.307z"/>
	</g>
</g>
</svg>
