<?xml version="1.0" encoding="utf-8"?>
<!-- Generator: Adobe Illustrator 14.0.0, SVG Export Plug-In . SVG Version: 6.00 Build 43363)  -->
<!DOCTYPE svg PUBLIC "-//W3C//DTD SVG 1.1//EN" "http://www.w3.org/Graphics/SVG/1.1/DTD/svg11.dtd">
<svg version="1.1" id="图层_1" xmlns="http://www.w3.org/2000/svg" xmlns:xlink="http://www.w3.org/1999/xlink" x="0px" y="0px"
	 width="66px" height="66px" viewBox="0 0 66 66" enable-background="new 0 0 66 66" xml:space="preserve">
<g>
	<g>
		<path fill="#7F8080" d="M47.016,32.489c-0.828,0-1.5,0.672-1.5,1.5c0,0.008,0.002,0.016,0.002,0.021h-0.002v15.479
			c0,0.553-0.447,1-1,1h-3h-2c-0.553,0-1-0.447-1-1V42.01h-0.004c0-0.008,0.006-0.016,0.006-0.021c0-0.652-0.42-1.201-1-1.408
			v-0.092h-9v0.092c-0.581,0.207-1,0.756-1,1.408c0,0.01,0.006,0.016,0.006,0.021h-0.006v7.479c0,0.553-0.447,1-1,1h-2h-3
			c-0.552,0-1-0.447-1-1V34.012h-0.003c0-0.009,0.002-0.017,0.002-0.022c0-0.828-0.671-1.5-1.5-1.5s-1.5,0.672-1.5,1.5
			c0,0.008,0.002,0.016,0.002,0.022h-0.002v16.478c0,1.656,1.344,3,3,3h4h3c1.657,0,3-1.344,3-3v-7h5v7c0,1.656,1.343,3,2.999,3h3h4
			c1.656,0,3-1.344,3-3V34.012h-0.002c0-0.009,0.002-0.017,0.002-0.022C48.516,33.161,47.844,32.489,47.016,32.489z M54.041,31.991
			L34.096,12.941c-0.604-0.575-1.583-0.575-2.188,0L11.959,31.991c-0.604,0.575-0.604,1.508,0,2.082
			c0.604,0.575,1.583,0.575,2.186,0L33,16.067l18.854,18.005c0.604,0.575,1.584,0.575,2.188,0
			C54.645,33.5,54.645,32.565,54.041,31.991z"/>
	</g>
</g>
</svg>
