<?xml version="1.0" encoding="utf-8"?>
<!-- Generator: Adobe Illustrator 14.0.0, SVG Export Plug-In . SVG Version: 6.00 Build 43363)  -->
<!DOCTYPE svg PUBLIC "-//W3C//DTD SVG 1.1//EN" "http://www.w3.org/Graphics/SVG/1.1/DTD/svg11.dtd">
<svg version="1.1" id="图层_1" xmlns="http://www.w3.org/2000/svg" xmlns:xlink="http://www.w3.org/1999/xlink" x="0px" y="0px"
	 width="100px" height="100px" viewBox="0 0 100 100" enable-background="new 0 0 100 100" xml:space="preserve">
<g>
	<g>
		<path fill="#7F8080" d="M72.839,51.161c-4.882-4.882-12.796-4.881-17.678,0c-4.882,4.882-4.882,12.796,0,17.678
			c4.882,4.882,12.796,4.882,17.678,0S77.721,56.043,72.839,51.161z M70.718,66.717c-3.71,3.711-9.726,3.711-13.435,0.001
			c-3.713-3.71-3.713-9.726,0-13.436c3.709-3.71,9.725-3.71,13.435,0C74.428,56.992,74.428,63.008,70.718,66.717z M37.5,44.5
			c-0.709,0-11,10.873-11,10.873V31.5c0-0.552,0.448-1,1-1h38c0.553,0,1,0.448,1,1v14h3v-15c0-1.657-1.344-3-3-3h-40
			c-1.657,0-3,1.343-3,3v32c0,1.656,1.343,3,3,3h23v-3h-22c-0.552,0-1-0.447-1-1v-2c0,0,10.702-11.046,10.926-11.046
			c0.157,0,8.992,12.046,9.762,12.046c0.16,0,1.083-0.604,2.313-1.443V55.27c-1.058,0.729-1.839,1.23-2,1.23
			C46.955,56.5,38.021,44.5,37.5,44.5z M52.5,38.5c0,2.762,2.236,5,5,5c2.762,0,5-2.238,5-5s-2.238-5-5-5
			C54.736,33.5,52.5,35.738,52.5,38.5z M59.5,38.5c0,1.104-0.896,2-2,2s-2-0.896-2-2s0.896-2,2-2S59.5,37.396,59.5,38.5z
			 M68.596,55.402c-0.586-0.586-1.535-0.586-2.121,0L64,57.879l-2.477-2.477c-0.586-0.586-1.533-0.586-2.121,0
			c-0.586,0.587-0.586,1.535,0,2.121L61.879,60l-2.477,2.475c-0.586,0.586-0.586,1.535,0,2.121c0.588,0.586,1.535,0.586,2.121,0
			L64,62.121l2.475,2.475c0.586,0.586,1.535,0.586,2.121,0s0.586-1.535,0-2.121L66.121,60l2.475-2.477
			C69.182,56.938,69.182,55.989,68.596,55.402z"/>
	</g>
</g>
<g>
	<path fill="#7F8080" d="M50,5.35c24.62,0,44.65,20.03,44.65,44.65S74.62,94.65,50,94.65S5.35,74.62,5.35,50S25.38,5.35,50,5.35
		 M50,2.5C23.767,2.5,2.5,23.767,2.5,50S23.767,97.5,50,97.5c26.232,0,47.5-21.267,47.5-47.5S76.232,2.5,50,2.5L50,2.5z"/>
</g>
</svg>
