<?xml version="1.0" encoding="utf-8"?>
<!-- Generator: Adobe Illustrator 14.0.0, SVG Export Plug-In . SVG Version: 6.00 Build 43363)  -->
<!DOCTYPE svg PUBLIC "-//W3C//DTD SVG 1.1//EN" "http://www.w3.org/Graphics/SVG/1.1/DTD/svg11.dtd">
<svg version="1.1" id="图层_1" xmlns="http://www.w3.org/2000/svg" xmlns:xlink="http://www.w3.org/1999/xlink" x="0px" y="0px"
	 width="66px" height="66px" viewBox="0 0 66 66" enable-background="new 0 0 66 66" xml:space="preserve">
<g>
	<g>
		<path fill="#7F8080" d="M42,11.5H17c-1.657,0-3,1.343-3,3v37c0,1.657,1.343,3,3,3h32c1.656,0,3-1.343,3-3v-30L42,11.5z M41,15.5
			l7,7h-7V15.5z M49,50.5c0,0.553-0.447,1-1,1H18c-0.552,0-1-0.447-1-1v-35c0-0.553,0.448-1,1-1h20v9c0,1.104,0.896,2,2,2h9V50.5z
			 M40,35.5c0-4.418-3.582-8-8-8s-8,3.582-8,8s3.582,8,8,8c1.537,0,2.968-0.439,4.188-1.189l4.678,4.678
			c0.587,0.586,1.535,0.586,2.119,0c0.586-0.586,0.586-1.536,0.002-2.121l-4.584-4.583C39.4,38.945,40,37.295,40,35.5z M32,40.5
			c-2.762,0-5-2.238-5-5c0-2.762,2.238-5,5-5c2.762,0,5,2.238,5,5C37,38.262,34.762,40.5,32,40.5z"/>
	</g>
</g>
</svg>
