<?xml version="1.0" encoding="iso-8859-1"?>
<!-- Generator: Adobe Illustrator 16.0.0, SVG Export Plug-In . SVG Version: 6.00 Build 0)  -->
<!DOCTYPE svg PUBLIC "-//W3C//DTD SVG 1.1 Tiny//EN" "http://www.w3.org/Graphics/SVG/1.1/DTD/svg11-tiny.dtd">
<svg version="1.1" baseProfile="tiny" id="&#x56FE;&#x5C42;_1"
	 xmlns="http://www.w3.org/2000/svg" xmlns:xlink="http://www.w3.org/1999/xlink" x="0px" y="0px" width="34px" height="29px"
	 viewBox="0 0 34 29" xml:space="preserve">
<g>
	<path fill-rule="evenodd" fill="#B3B3B3" d="M32.478,26.005h-19.5c-0.553,0-1-0.447-1-1V5.398l6.371,7.146
		c0.604,0.574,1.582,0.574,2.186,0c0.605-0.575,0.605-1.507,0-2.082L11.587,0.426c-0.604-0.575-1.583-0.575-2.187,0L0.453,10.462
		c-0.604,0.575-0.604,1.506,0,2.082c0.604,0.574,1.583,0.574,2.186,0l6.339-7.11v20.571c0,0.104,0.01,0.205,0.031,0.303
		c0.153,1.512,1.416,2.697,2.969,2.697h20.5c0.828,0,1.5-0.672,1.5-1.5S33.306,26.005,32.478,26.005z"/>
</g>
</svg>
