<svg xmlns="http://www.w3.org/2000/svg" height="30px" viewBox="0 0 30 30" width="30px" x="0px" y="0px">
<path d="M4.2,1.5h21.6c1.49,0,2.7,1.209,2.7,2.7v21.6  c0,1.49-1.21,2.7-2.7,2.7H4.2c-1.49,0-2.7-1.21-2.7-2.7V4.2C1.5,2.71,2.71,1.5,4.2,1.5z" fill="#389d00" stroke="#389d00" stroke-miterlimit="10" stroke-width="3" />
<path d="M24.48,8.506c-0.689-0.689-1.811-0.689-2.498,0l-9.409,9.349l-4.555-3.854    c-0.689-0.689-1.808-0.689-2.498,0s-0.69,1.808,0,2.499l5.903,4.994c0.689,0.688,1.808,0.688,2.498,0l10.559-10.49    C25.169,10.313,25.169,9.195,24.48,8.506z" fill="#FFFFFF" />
	</svg>