<?xml version="1.0" encoding="utf-8"?>
<!-- Generator: Adobe Illustrator 16.0.0, SVG Export Plug-In . SVG Version: 6.00 Build 0)  -->
<!DOCTYPE svg PUBLIC "-//W3C//DTD SVG 1.1//EN" "http://www.w3.org/Graphics/SVG/1.1/DTD/svg11.dtd">
<svg version="1.1" id="图层_1" xmlns="http://www.w3.org/2000/svg" xmlns:xlink="http://www.w3.org/1999/xlink" x="0px" y="0px"
	 width="45px" height="45px" viewBox="-2.5 -0.5 45 45" enable-background="new -2.5 -0.5 45 45" xml:space="preserve">
<g>
	<g>
		<path fill="#B3B3B3" d="M35,11c0,0-0.311,0-0.832,0c-0.688,0-1.745,0-2.984,0c-0.74,0-1.543,0-2.365,0
			c-1.168-0.46-1.996-1.577-2.037-2.898c0.096-0.377,0.156-0.766,0.185-1.166c0.007-0.018,0.009-0.038,0.017-0.056
			c0.002-0.044-0.004-0.085-0.002-0.129C26.982,6.667,27,6.586,27,6.5C27,2.91,24.09,0,20.5,0S14,2.91,14,6.5
			c0,0.083,0.018,0.162,0.021,0.244c0.002,0.046-0.004,0.09-0.001,0.137c0.007,0.02,0.011,0.042,0.018,0.062
			c0.027,0.396,0.088,0.781,0.184,1.155c-0.04,1.323-0.87,2.442-2.039,2.903c-0.851,0-1.643,0-2.366,0c-1.197,0-2.204,0-2.984,0
			C5.662,11,5,11,5,11c-2.762,0-5,2.238-5,5c0,0.267,0,1.025,0,2.977c0,0.004,0,0.008,0,0.012C0,18.993,0,18.996,0,19
			c0,0.025,0.003,0.049,0.004,0.074c0.018,2.1,0.566,3.271,1.192,3.509C2.29,24.048,4.031,25,6,25c0.706,0,1.375-0.125,1.999-0.34
			c0.336-0.051,0.637-0.133,0.853-0.248C9.342,24.148,9.904,24,10.5,24c1.934,0,3.5,1.566,3.5,3.5S12.434,31,10.5,31
			c-0.623,0-1.209-0.163-1.717-0.449c-0.299-0.168-0.78-0.285-1.3-0.346C7.007,30.082,6.515,30,6,30
			c-2.468,0-4.586,1.491-5.508,3.621C0.198,34.123,0,34.918,0,35.992C0,38.168,0,39,0,39c0,2.762,2.238,5,5,5h25.023H35
			c2.762,0,5-2.238,5-5v-3.939V16C40,13.238,37.762,11,35,11z M2.985,38.16c0.003,0.002,0.007,0.004,0.011,0.006
			C2.984,38.639,2.953,39.855,2.985,38.16z M37,38c0,1.656-1.344,3-3,3h-2.54H6c-1.657,0-3-1.344-3-3c0-0.021,0-0.059,0-0.074
			c0-0.002,0-0.029,0-0.093c0-0.092,0-0.265,0-0.583c0.005-0.008,0.008-0.014,0.014-0.021c-0.007-0.018-0.01-0.037-0.017-0.057
			c0.002-0.725-0.05-1.347-0.145-1.878C3.175,33.852,4.459,32.77,6,32.77c0.337,0,0.653,0.069,0.957,0.166
			c0.344,0.226,0.704,0.428,1.089,0.584C8.219,33.664,8.379,33.822,8.52,34c1.162,0,2.281,0,3.113,0
			c-0.012-0.034-0.031-0.064-0.043-0.1c3.069-0.518,5.41-3.183,5.41-6.4c0-3.215-2.337-5.878-5.404-6.4
			c0.001-0.002,0.002-0.004,0.003-0.007c-0.011,0-0.024,0.001-0.036,0.001C11.217,21.037,10.863,21,10.5,21
			c-0.656,0-1.285,0.107-1.882,0.289c-0.015,0-0.028,0.001-0.043,0.001c-0.006,0.007-0.014,0.011-0.02,0.018
			c-0.645,0.202-1.247,0.497-1.788,0.876C6.519,22.216,6.262,22.23,6,22.23c-1.784,0-3.008-1.445-3.008-3.229
			c0-0.049-0.002-0.082-0.005-0.106c0-0.024,0.002-0.046,0.002-0.071c0.007-0.015,0.014-0.028,0.024-0.053
			C3.008,18.764,3.005,18.758,3,18.75c0-0.089,0-0.143,0-0.21c0-0.139,0-0.254,0-0.373c0-0.03,0-0.064,0-0.093
			c0-0.088,0-0.165,0-0.242C3,17.437,3,17.165,3,17c0-1.657,1.343-3,3-3c0,0,0.906,0,4.939,0l0.002-0.004
			C10.962,13.996,10.979,14,11,14c3.313,0,6-2.687,6-6c0-0.059-0.008-0.114-0.01-0.172c0.06-0.28,0.083-0.563,0.045-0.828
			C17.012,6.836,17,6.669,17,6.5C17,4.567,18.566,3,20.5,3C22.434,3,24,4.567,24,6.5c0,0.18-0.014,0.357-0.04,0.53
			c-0.041,0.268-0.017,0.554,0.048,0.836C24.007,7.911,24,7.955,24,8c0,3.313,2.686,6,6,6c0.014,0,0.021-0.002,0.035-0.002
			L30.037,14C33.01,14,34,14,34,14c1.656,0,3,1.343,3,3v18.061V38z"/>
	</g>
</g>
</svg>
