<?xml version="1.0" encoding="utf-8"?>
<!-- Generator: Adobe Illustrator 16.0.0, SVG Export Plug-In . SVG Version: 6.00 Build 0)  -->
<!DOCTYPE svg PUBLIC "-//W3C//DTD SVG 1.1//EN" "http://www.w3.org/Graphics/SVG/1.1/DTD/svg11.dtd">
<svg version="1.1" id="图层_1" xmlns="http://www.w3.org/2000/svg" xmlns:xlink="http://www.w3.org/1999/xlink" x="0px" y="0px"
	 width="92px" height="92px" viewBox="0 0 92 92" enable-background="new 0 0 92 92" xml:space="preserve">
<path fill="#389D00" d="M46,0c25.404,0,46,20.595,46,46c0,25.404-20.596,46-46,46C20.595,92,0,71.404,0,46C0,20.595,20.595,0,46,0z"
	/>
<path fill="#FFFFFF" d="M16.273,55.753c-0.157-0.49-2.188-3.075-2.544-3.201c-0.582-0.46-1.119-0.817-2.107-1.032
	c-0.904-0.201-1.815,0.037-2.505,0.548c-0.687,0.508-0.972,1.359-0.972,2.248c0,0.753,0.233,1.316,0.896,1.784
	c0.663,0.47,1.812,0.587,2.814,0.682C13.929,56.708,15.08,56.074,16.273,55.753z M12.263,58.185
	c-0.824,0.603-1.765,1.307-2.11,2.058c-0.347,0.75-0.278,1.354,0.085,2.008c0.423,0.764,1.081,1.358,1.919,1.441
	c0.84,0.082,1.745-0.189,2.434-0.831c0.751-0.699,1.043-1.289,1.325-1.989c0.245-0.29,0.762-3.584,0.663-4.098
	C15.39,57.121,14.089,57.17,12.263,58.185z M64.501,28.454c-1.139-1.017-0.412-5.299-7.016-10.86
	c-2.65-2.23,2.846,8.898-4.859,7.538c-4.279-0.753-20.1-3.915-29.896,14.513c-8.893,16.722-3.586,15.07-2.727,12.79
	c0.858-2.281,5.976-7.973,5.976-7.973s8.641-8.215,17.937-6.065c1.146,0.267,2.132,0.706,3.114,1.317
	c-13.676-2.922-25.295,13.862-25.295,13.862l0.554,2.125c0,0,14.174-20.093,27.776-13.679c0.273,0.233,0.554,0.473,0.842,0.73
	c1.576,1.374-6.083,4.275-6.846,3.679c-0.761-0.597,3.642,3.48,13.488,2.02c2.209-0.329,15.404,18.509,19.147,16.026
	c0,0,2.402,0.201-0.051-6.751C76.61,57.64,83.567,45.479,64.501,28.454z"/>
</svg>
