<?xml version="1.0" encoding="utf-8"?>
<!-- Generator: Adobe Illustrator 16.0.0, SVG Export Plug-In . SVG Version: 6.00 Build 0)  -->
<!DOCTYPE svg PUBLIC "-//W3C//DTD SVG 1.1//EN" "http://www.w3.org/Graphics/SVG/1.1/DTD/svg11.dtd">
<svg version="1.1" id="图层_1" xmlns="http://www.w3.org/2000/svg" xmlns:xlink="http://www.w3.org/1999/xlink" x="0px" y="0px"
	 width="42.01px" height="42.988px" viewBox="0 0 42.01 42.988" enable-background="new 0 0 42.01 42.988" xml:space="preserve">
<g>
	<g>
		<path fill-rule="evenodd" clip-rule="evenodd" fill="#7F8080" d="M40.51,20.01H4.972L21.549,2.639
			c0.574-0.604,0.574-1.583,0-2.186c-0.575-0.604-1.508-0.604-2.082,0L0.431,20.401c-0.191,0.201-0.295,0.447-0.359,0.704
			c-0.023,0.083-0.039,0.168-0.047,0.257c-0.006,0.077-0.012,0.15-0.007,0.228c0.007,0.13,0.031,0.254,0.069,0.374
			c0.024,0.079,0.056,0.15,0.092,0.225c0.042,0.083,0.092,0.162,0.149,0.235c0.039,0.053,0.058,0.116,0.104,0.164l19.036,19.948
			c0.574,0.604,1.507,0.604,2.082,0c0.574-0.604,0.574-1.582,0-2.186L5.002,23.01H40.51c0.828,0,1.5-0.672,1.5-1.5
			C42.01,20.682,41.338,20.01,40.51,20.01z"/>
	</g>
</g>
</svg>
