<?xml version="1.0" encoding="utf-8"?>
<!-- Generator: Adobe Illustrator 16.0.0, SVG Export Plug-In . SVG Version: 6.00 Build 0)  -->
<!DOCTYPE svg PUBLIC "-//W3C//DTD SVG 1.1//EN" "http://www.w3.org/Graphics/SVG/1.1/DTD/svg11.dtd">
<svg version="1.1" id="图层_1" xmlns="http://www.w3.org/2000/svg" xmlns:xlink="http://www.w3.org/1999/xlink" x="0px" y="0px"
	 width="45px" height="45px" viewBox="-1.518 -2.509 45 45" enable-background="new -1.518 -2.509 45 45" xml:space="preserve">
<g>
	<g>
		<path fill="#B3B3B3" d="M40.672,13.913c-4.203-0.639-12.15-2.201-12.15-2.201s-3.897-6.798-6.152-10.594
			c-0.822-1.385-2.315-1.632-3.234,0.106c-2.011,3.809-5.646,10.644-5.646,10.644s-8.602,1.604-12.493,2.235
			c-1.032,0.315-1.385,1.598-0.46,2.528c2.941,2.962,8.533,9.005,8.533,9.005S7.912,33.92,7.402,38.105
			c-0.166,1.287,1.31,2.265,2.342,1.638c3.778-1.816,10.896-5.482,10.896-5.482s7.418,3.637,11.129,5.422
			c0.836,0.56,2.266,0.479,1.985-1.414c-0.5-4.098-1.545-12.63-1.545-12.63s5.873-5.538,8.772-8.713
			C42.762,15.226,41.791,14.155,40.672,13.913z M36.738,17.883c-2.307,2.506-7.35,6.321-7.35,6.321s0.651,6.248,1.051,9.481
			c0.221,1.494-0.387,1.494-1.051,1.056c-2.955-1.41-8.787-3.488-8.787-3.488s-5.008,2.053-8.016,3.488
			c-0.822,0.493-2.232,1.016-2.101,0c0.406-3.306,2.101-10.537,2.101-10.537s-5.01-3.982-7.351-6.321
			c-0.736-0.735-0.854-1.398-0.033-1.646c3.099-0.5,11.073-1.923,11.073-1.923s2.469-6.209,3.805-9.072
			c0.656-1.41,0.99-1.264,1.615-0.117c1.594,2.92,4.186,9.117,4.186,9.117s7.516,1.164,10.855,1.534
			C37.631,15.966,38.154,16.542,36.738,17.883z"/>
	</g>
</g>
</svg>
