<?xml version="1.0" encoding="utf-8"?>
<!-- Generator: Adobe Illustrator 16.0.0, SVG Export Plug-In . SVG Version: 6.00 Build 0)  -->
<!DOCTYPE svg PUBLIC "-//W3C//DTD SVG 1.1//EN" "http://www.w3.org/Graphics/SVG/1.1/DTD/svg11.dtd">
<svg version="1.1" id="图层_1" xmlns="http://www.w3.org/2000/svg" xmlns:xlink="http://www.w3.org/1999/xlink" x="0px" y="0px"
	 width="60px" height="60px" viewBox="0 0 60 60" enable-background="new 0 0 60 60" xml:space="preserve">
<g>
	<g>
		<path fill="#D62318" d="M23.86,44.328c0.848,0,1.535-0.688,1.535-1.536v-21.49c0-0.849-0.688-1.535-1.535-1.535
			c-0.847,0-1.536,0.686-1.536,1.535v21.49C22.324,43.641,23.013,44.328,23.86,44.328z M30,44.328c0.848,0,1.534-0.688,1.534-1.536
			v-21.49c0-0.849-0.687-1.535-1.534-1.535s-1.535,0.686-1.535,1.535v21.49C28.465,43.641,29.152,44.328,30,44.328z M47.397,13.627
			H31.534v-2.559c0-0.848-0.687-1.535-1.534-1.535s-1.535,0.687-1.535,1.535v2.559H12.604c-0.848,0-1.536,0.686-1.536,1.535
			c0,0.847,0.688,1.535,1.536,1.535h2.559v30.699c0,1.694,1.373,3.069,3.07,3.069h23.535c1.697,0,3.071-1.375,3.071-3.069V16.697
			h2.559c0.847,0,1.534-0.688,1.534-1.535C48.932,14.313,48.244,13.627,47.397,13.627z M41.768,46.373
			c0,0.565-0.457,1.023-1.023,1.023H19.256c-0.567,0-1.023-0.458-1.023-1.023V16.697h23.535V46.373z M36.141,44.328
			c0.848,0,1.535-0.688,1.535-1.536v-21.49c0-0.849-0.688-1.535-1.535-1.535c-0.847,0-1.535,0.686-1.535,1.535v21.49
			C34.605,43.641,35.294,44.328,36.141,44.328z"/>
	</g>
</g>
</svg>
