<?xml version="1.0" encoding="utf-8"?>
<!-- Generator: Adobe Illustrator 16.0.0, SVG Export Plug-In . SVG Version: 6.00 Build 0)  -->
<!DOCTYPE svg PUBLIC "-//W3C//DTD SVG 1.1//EN" "http://www.w3.org/Graphics/SVG/1.1/DTD/svg11.dtd">
<svg version="1.1" id="图层_1" xmlns="http://www.w3.org/2000/svg" xmlns:xlink="http://www.w3.org/1999/xlink" x="0px" y="0px"
	 width="60px" height="60px" viewBox="0 0 60 60" enable-background="new 0 0 60 60" xml:space="preserve">
<g>
	<g>
		<path fill="#B5B4B4" d="M12.55,24.354c0,0.851,0.689,1.54,1.54,1.54h16.035c1.123-1.217,2.425-2.26,3.877-3.079H14.09
			C13.24,22.815,12.55,23.504,12.55,24.354z M41.804,23.841c-7.087,0-12.83,5.746-12.83,12.831c0,7.086,5.743,12.83,12.83,12.83
			c7.085,0,12.831-5.744,12.831-12.83C54.635,29.587,48.891,23.841,41.804,23.841z M41.804,46.424c-5.385,0-9.751-4.367-9.751-9.752
			s4.366-9.751,9.751-9.751c5.386,0,9.752,4.366,9.752,9.751S47.189,46.424,41.804,46.424z M9.471,41.291
			c-0.566,0-1.026-0.459-1.026-1.027v-25.66c0-0.566,0.46-1.027,1.026-1.027h12.317c0.567,0,0.911,0.402,1.026,1.027l1.174,4.105
			h17.303c0.567,0,1.026,0.46,1.026,1.026v1.052c1.057,0.034,2.085,0.167,3.079,0.396v-2.475c0-1.701-1.379-3.079-3.079-3.079
			H26.774l-0.88-3.08c-0.483-1.312-1.379-2.053-3.08-2.053H8.444c-1.7,0-3.079,1.378-3.079,3.079v27.714
			c0,1.699,1.379,3.08,3.079,3.08h19.438c-0.537-0.969-0.976-2-1.303-3.08H9.471z M46.937,35.133h-3.593v-3.594
			c0-0.85-0.689-1.539-1.54-1.539c-0.85,0-1.539,0.689-1.539,1.539v3.594h-3.593c-0.85,0-1.54,0.689-1.54,1.539
			s0.69,1.539,1.54,1.539h3.593v3.594c0,0.85,0.689,1.539,1.539,1.539c0.851,0,1.54-0.689,1.54-1.539v-3.594h3.593
			c0.85,0,1.539-0.689,1.539-1.539S47.786,35.133,46.937,35.133z"/>
	</g>
</g>
</svg>
