<?xml version="1.0" encoding="utf-8"?>
<!-- Generator: Adobe Illustrator 16.0.0, SVG Export Plug-In . SVG Version: 6.00 Build 0)  -->
<!DOCTYPE svg PUBLIC "-//W3C//DTD SVG 1.1//EN" "http://www.w3.org/Graphics/SVG/1.1/DTD/svg11.dtd">
<svg version="1.1" id="图层_1" xmlns="http://www.w3.org/2000/svg" xmlns:xlink="http://www.w3.org/1999/xlink" x="0px" y="0px"
	 width="60px" height="60px" viewBox="0 0 60 60" enable-background="new 0 0 60 60" xml:space="preserve">
<path fill="#D9D9D9" d="M46.242,10.509H13.759c-1.794,0-3.249,1.454-3.249,3.249v32.484c0,1.796,1.454,3.249,3.249,3.249h32.483
	c1.793,0,3.248-1.453,3.248-3.249V13.758C49.49,11.963,48.035,10.509,46.242,10.509z M46.242,45.16c0,0.598-0.484,1.082-1.084,1.082
	H14.841c-0.597,0-1.083-0.484-1.083-1.082V14.84c0-0.599,0.485-1.082,1.083-1.082h30.317c0.6,0,1.084,0.483,1.084,1.082V45.16z"/>
</svg>
