<?xml version="1.0" encoding="utf-8"?>
<!-- Generator: Adobe Illustrator 16.0.0, SVG Export Plug-In . SVG Version: 6.00 Build 0)  -->
<!DOCTYPE svg PUBLIC "-//W3C//DTD SVG 1.1//EN" "http://www.w3.org/Graphics/SVG/1.1/DTD/svg11.dtd">
<svg version="1.1" id="图层_1" xmlns="http://www.w3.org/2000/svg" xmlns:xlink="http://www.w3.org/1999/xlink" x="0px" y="0px"
	 width="40.012px" height="40.045px" viewBox="0 0 40.012 40.045" enable-background="new 0 0 40.012 40.045" xml:space="preserve">
<g>
	<g>
		<path fill-rule="evenodd" clip-rule="evenodd" fill="#7F8080" d="M38.74,13.034H27.187c1.823,1.86,2.926,4.42,2.862,7.227
			c-0.056,2.487-1.023,4.735-2.567,6.449l-7.737,13.324c10.961,0.158,20.019-8.545,20.267-19.534
			C40.072,17.871,39.609,15.355,38.74,13.034z M19.655,13.034c-3.621,0.193-6.54,3.139-6.623,6.824
			c-0.088,3.868,2.978,7.078,6.848,7.169c3.87,0.092,7.078-2.971,7.167-6.838c0.086-3.802-2.876-6.96-6.651-7.155H19.655z
			 M20.267,10.026c0.036,0.001,0.07,0.007,0.105,0.008h16.942C33.934,4.193,27.704,0.188,20.47,0.017
			C14.079-0.135,8.333,2.742,4.566,7.324l5.782,10.204C11.478,13.125,15.52,9.914,20.267,10.026z M19.812,30.022
			c-3.655-0.086-6.798-2.125-8.479-5.087l-0.297,0.099L2.604,10.157c-1.576,2.78-2.51,5.978-2.588,9.399
			c-0.228,10.047,6.991,18.517,16.602,20.173l6.03-10.051C21.746,29.92,20.794,30.045,19.812,30.022z"/>
	</g>
</g>
</svg>
