<?xml version="1.0" encoding="utf-8"?>
<!-- Generator: Adobe Illustrator 16.0.0, SVG Export Plug-In . SVG Version: 6.00 Build 0)  -->
<!DOCTYPE svg PUBLIC "-//W3C//DTD SVG 1.1//EN" "http://www.w3.org/Graphics/SVG/1.1/DTD/svg11.dtd">
<svg version="1.1" id="图层_1" xmlns="http://www.w3.org/2000/svg" xmlns:xlink="http://www.w3.org/1999/xlink" x="0px" y="0px"
	 width="24px" height="20px" viewBox="0 0 24 20" enable-background="new 0 0 24 20" xml:space="preserve">
<g>
	<g>
		<path fill="#FFFFFF" d="M3.507,5.018L0.004,9.979l6.997,0.014L3.507,5.018z M21.98,10c0-2.561-0.978-5.121-2.931-7.074
			c-3.104-3.105-7.738-3.732-11.471-1.9c-0.41-0.027-0.828,0.102-1.141,0.416c-0.578,0.578-0.578,1.516,0,2.094
			c0.491,0.492,1.229,0.54,1.797,0.195l0.158,0.263c2.686-1.61,6.214-1.265,8.529,1.051c1.365,1.367,2.046,3.158,2.046,4.949
			L17,9.99l3.492,5.006l3.504-4.992L21.98,10z M15.732,16.225l-0.147-0.246c-2.688,1.625-6.229,1.282-8.548-1.039
			c-1.362-1.362-2.044-3.148-2.047-4.936H1.975c0.001,2.561,0.978,5.118,2.93,7.07c3.108,3.107,7.75,3.732,11.488,1.894
			c0.412,0.029,0.832-0.1,1.146-0.421c0.578-0.588,0.578-1.541,0-2.131C17.047,15.913,16.302,15.867,15.732,16.225z"/>
	</g>
</g>
</svg>
