<?xml version="1.0" encoding="utf-8"?>
<!-- Generator: Adobe Illustrator 16.0.0, SVG Export Plug-In . SVG Version: 6.00 Build 0)  -->
<!DOCTYPE svg PUBLIC "-//W3C//DTD SVG 1.1//EN" "http://www.w3.org/Graphics/SVG/1.1/DTD/svg11.dtd">
<svg version="1.1" id="图层_1" xmlns="http://www.w3.org/2000/svg" xmlns:xlink="http://www.w3.org/1999/xlink" x="0px" y="0px"
	 width="37px" height="40px" viewBox="0 0 37 40" enable-background="new 0 0 37 40" xml:space="preserve">
<g>
	<g>
		<path fill-rule="evenodd" clip-rule="evenodd" fill="#E41712" d="M12.5,34c0.828,0,1.5-0.672,1.5-1.5v-21
			c0-0.829-0.672-1.5-1.5-1.5S11,10.671,11,11.5v21C11,33.328,11.672,34,12.5,34z M18.5,34c0.828,0,1.5-0.672,1.5-1.5v-21
			c0-0.829-0.672-1.5-1.5-1.5S17,10.671,17,11.5v21C17,33.328,17.672,34,18.5,34z M35.5,4H20V1.5C20,0.671,19.328,0,18.5,0
			S17,0.671,17,1.5V4H1.5C0.672,4,0,4.671,0,5.5C0,6.328,0.672,7,1.5,7H4v30c0,1.656,1.343,3,3,3h23c1.657,0,3-1.344,3-3V7h2.5
			C36.328,7,37,6.328,37,5.5C37,4.671,36.328,4,35.5,4z M30,36c0,0.553-0.448,1-1,1H8c-0.553,0-1-0.447-1-1V7h23V36z M24.5,34
			c0.828,0,1.5-0.672,1.5-1.5v-21c0-0.829-0.672-1.5-1.5-1.5S23,10.671,23,11.5v21C23,33.328,23.672,34,24.5,34z"/>
	</g>
</g>
</svg>
