<?xml version="1.0" encoding="utf-8"?>
<!-- Generator: Adobe Illustrator 16.0.0, SVG Export Plug-In . SVG Version: 6.00 Build 0)  -->
<!DOCTYPE svg PUBLIC "-//W3C//DTD SVG 1.1//EN" "http://www.w3.org/Graphics/SVG/1.1/DTD/svg11.dtd">
<svg version="1.1" id="图层_1" xmlns="http://www.w3.org/2000/svg" xmlns:xlink="http://www.w3.org/1999/xlink" x="0px" y="0px"
	 width="46.014px" height="46.01px" viewBox="0 0 46.014 46.01" enable-background="new 0 0 46.014 46.01" xml:space="preserve">
<g>
	<g>
		<path fill-rule="evenodd" clip-rule="evenodd" fill="#7F8080" d="M33.443,26.344c-5.404-4.713-9.929-10.367-9.929-10.367
			c-0.139,0.061-20.831,8.879-21.53,9.144c0.356,2.925,2.301,20.536,2.361,20.119c2.205,1.203,6.644,0.771,11.57,0.225
			c0.527-1.861,0.894-3.207,1.131-4.955c1.302,1.544,2.423,2.804,3.519,3.859c5.502-1.039,10.894-2.822,12.792-3.723
			c2.264-1.073,12.656-6.853,12.656-6.853S39.375,30.673,33.443,26.344z M30.524,38.102c-1.684,0.798-2.724,1.053-8.714,2.575
			c-2.341-2.416-5.304-5.776-6.253-6.98c-0.67,2.501-1.222,5.18-2.227,8.972c-2.629,0.438-3.48,0.471-5.763,0.054
			C7.172,39.773,5.912,29.95,5.476,27.389c2.322-1.023,14.879-6.255,17.052-7.249c1.609,1.633,4.544,5.249,7.225,7.622
			c3.863,3.262,7.052,5.062,9.054,6.145C37.492,34.748,32.711,37.064,30.524,38.102z M22.502,12.8
			c-0.361-0.815-1.264-1.42-1.795-1.188c-0.237,0.104-4.167,1.83-8.498,3.731C10.671,11.868,5.851,0.975,5.654,0.531
			C5.42,0.002,4.367-0.168,3.56,0.187c-0.786,0.346-1.293,1.2-1.092,1.743c0.168,0.457,5.008,11.341,6.553,14.814
			c-4.338,1.905-8.273,3.633-8.496,3.73c-0.498,0.219-0.702,1.282-0.346,2.087c0.347,0.782,1.252,1.306,1.75,1.087
			c0.498-0.218,19.618-8.614,20.183-8.861C22.677,14.539,22.843,13.57,22.502,12.8z"/>
	</g>
</g>
</svg>
