<?xml version="1.0" encoding="utf-8"?>
<!-- Generator: Adobe Illustrator 16.0.0, SVG Export Plug-In . SVG Version: 6.00 Build 0)  -->
<!DOCTYPE svg PUBLIC "-//W3C//DTD SVG 1.1//EN" "http://www.w3.org/Graphics/SVG/1.1/DTD/svg11.dtd">
<svg version="1.1" id="图层_1" xmlns="http://www.w3.org/2000/svg" xmlns:xlink="http://www.w3.org/1999/xlink" x="0px" y="0px"
	 width="39px" height="39px" viewBox="0 0 39 39" enable-background="new 0 0 39 39" xml:space="preserve">
<g>
	<g>
		<path fill="#6D6D6D" d="M33.281,31.176l-11.66-11.674L33.296,7.841c0.586-0.585,0.586-1.535,0.001-2.121s-1.535-0.586-2.121-0.001
			L19.501,17.379L7.841,5.705C7.256,5.119,6.306,5.117,5.72,5.703C5.134,6.289,5.133,7.239,5.718,7.825l11.661,11.674L5.705,31.159
			c-0.586,0.585-0.586,1.535-0.001,2.121c0.585,0.586,1.536,0.587,2.122,0.001l11.674-11.66l11.661,11.675
			c0.585,0.586,1.535,0.586,2.121,0.001C33.867,32.711,33.867,31.762,33.281,31.176z"/>
	</g>
</g>
</svg>
