<?xml version="1.0" encoding="utf-8"?>
<!-- Generator: Adobe Illustrator 16.0.0, SVG Export Plug-In . SVG Version: 6.00 Build 0)  -->
<!DOCTYPE svg PUBLIC "-//W3C//DTD SVG 1.1//EN" "http://www.w3.org/Graphics/SVG/1.1/DTD/svg11.dtd">
<svg version="1.1" id="图层_1" xmlns="http://www.w3.org/2000/svg" xmlns:xlink="http://www.w3.org/1999/xlink" x="0px" y="0px"
	 width="51px" height="51px" viewBox="0 0 51 51" enable-background="new 0 0 51 51" xml:space="preserve">
<g>
	<g>
		<path fill="#040000" d="M42.925,22.292C42.307,14.297,35.646,8,27.5,8c-6.265,0-11.647,3.73-14.086,9.087
			C9.788,17.615,7,20.729,7,24.5c0,0.241,0.014,0.479,0.036,0.713C3.011,26.111,0,29.699,0,33.995c0,4.633,3.501,8.444,8.001,8.944
			V43h32.998v-0.025C46.564,42.716,51,38.132,51,32.5C51,27.535,47.553,23.386,42.925,22.292z M40.999,39.984v0.026H8.001v-0.093
			c-2.835-0.479-4.997-2.938-4.997-5.909c0-3.312,2.684-5.995,5.996-6V28h1v-3h0.029C10.011,24.836,10,24.669,10,24.5
			c0-2.484,2.015-4.5,4.5-4.5c0.332,0,0.653,0.041,0.965,0.109c1.48-5.259,6.302-9.12,12.035-9.12
			c6.91,0,12.514,5.602,12.514,12.511c0,0.516-0.043,1.021-0.104,1.521c0.196-0.017,0.394-0.03,0.595-0.03
			c4.139,0,7.492,3.362,7.492,7.51C47.996,36.48,44.904,39.729,40.999,39.984z"/>
	</g>
</g>
</svg>
