<?xml version="1.0" encoding="utf-8"?>
<!-- Generator: Adobe Illustrator 16.0.0, SVG Export Plug-In . SVG Version: 6.00 Build 0)  -->
<!DOCTYPE svg PUBLIC "-//W3C//DTD SVG 1.1//EN" "http://www.w3.org/Graphics/SVG/1.1/DTD/svg11.dtd">
<svg version="1.1" id="图层_1" xmlns="http://www.w3.org/2000/svg" xmlns:xlink="http://www.w3.org/1999/xlink" x="0px" y="0px"
	 width="55.983px" height="42.915px" viewBox="0 0 55.983 42.915" enable-background="new 0 0 55.983 42.915" xml:space="preserve">
<g>
	<g>
		<path fill-rule="evenodd" clip-rule="evenodd" fill="#7F8080" d="M29.949,32.012H8.001v-0.093
			c-2.835-0.479-4.996-2.938-4.996-5.909c0-3.311,2.683-5.996,5.995-6V20h1v-3h0.029C10.011,16.836,10,16.669,10,16.5
			c0-2.485,2.015-4.5,4.5-4.5c0.332,0,0.653,0.041,0.965,0.109c1.48-5.259,6.302-9.12,12.035-9.12
			c6.911,0,12.513,5.602,12.513,12.511c0,0.516-0.042,1.021-0.104,1.521c0.197-0.016,0.394-0.03,0.595-0.03
			c2.672,0,5.011,1.406,6.337,3.516c1.409,0.44,2.754,1.131,3.978,2.061c-0.762-4.081-3.882-7.327-7.894-8.276
			C42.307,6.297,35.646,0,27.5,0c-6.265,0-11.647,3.73-14.086,9.087C9.788,9.615,7,12.728,7,16.5c0,0.241,0.014,0.478,0.036,0.713
			C3.011,18.113,0,21.7,0,25.995c0,4.632,3.501,8.444,8.001,8.945V35h22.08C29.923,34.011,29.878,33.009,29.949,32.012z
			 M51.406,37.402l4.401-5.479l-2.948-0.005c-0.227-2.2-1.179-4.34-2.864-6.025C46.101,22,39.787,22,35.894,25.894
			C32,29.788,32,36.102,35.894,39.995c2.989,2.989,7.401,3.674,11.053,2.074l-0.141-0.32c0.333,0.047,0.681-0.039,0.937-0.295
			c0.434-0.433,0.434-1.136,0-1.568c-0.433-0.434-1.135-0.434-1.568,0c-0.05,0.05-0.073,0.112-0.111,0.167l-0.045-0.103
			c-2.804,1.229-6.191,0.703-8.487-1.593c-2.989-2.989-2.989-7.837,0-10.827c2.99-2.99,7.838-2.99,10.827,0
			c1.232,1.232,1.948,2.781,2.164,4.384l-3.504-0.006L51.406,37.402z"/>
	</g>
</g>
</svg>
