<?xml version="1.0" encoding="utf-8"?>
<!-- Generator: Adobe Illustrator 16.0.0, SVG Export Plug-In . SVG Version: 6.00 Build 0)  -->
<!DOCTYPE svg PUBLIC "-//W3C//DTD SVG 1.1//EN" "http://www.w3.org/Graphics/SVG/1.1/DTD/svg11.dtd">
<svg version="1.1" id="图层_1" xmlns="http://www.w3.org/2000/svg" xmlns:xlink="http://www.w3.org/1999/xlink" x="0px" y="0px"
	 width="38px" height="25px" viewBox="0 0 38 25" enable-background="new 0 0 38 25" xml:space="preserve">
<g>
	<g>
		<path fill-rule="evenodd" clip-rule="evenodd" fill="#7F8080" d="M1.5,3h35C37.328,3,38,2.328,38,1.5C38,0.671,37.328,0,36.5,0
			h-35C0.671,0,0,0.671,0,1.5C0,2.328,0.671,3,1.5,3z M36.5,11h-35C0.671,11,0,11.671,0,12.5C0,13.328,0.671,14,1.5,14h35
			c0.828,0,1.5-0.672,1.5-1.5C38,11.671,37.328,11,36.5,11z M36.5,22h-35C0.671,22,0,22.672,0,23.5S0.671,25,1.5,25h35
			c0.828,0,1.5-0.672,1.5-1.5S37.328,22,36.5,22z"/>
	</g>
</g>
</svg>
