<?xml version="1.0" encoding="utf-8"?>
<!-- Generator: Adobe Illustrator 16.0.0, SVG Export Plug-In . SVG Version: 6.00 Build 0)  -->
<!DOCTYPE svg PUBLIC "-//W3C//DTD SVG 1.1//EN" "http://www.w3.org/Graphics/SVG/1.1/DTD/svg11.dtd">
<svg version="1.1" id="图层_1" xmlns="http://www.w3.org/2000/svg" xmlns:xlink="http://www.w3.org/1999/xlink" x="0px" y="0px"
	 width="48px" height="38px" viewBox="0 0 48 38" enable-background="new 0 0 48 38" xml:space="preserve">
<g>
	<g>
		<path fill-rule="evenodd" clip-rule="evenodd" fill="#B4B4B4" d="M7.029,13.5c0,0.829,0.671,1.5,1.5,1.5h15.622
			c1.094-1.185,2.363-2.202,3.777-3H8.529C7.701,12,7.029,12.672,7.029,13.5z M35.529,13c-6.904,0-12.5,5.597-12.5,12.5
			S28.625,38,35.529,38c6.903,0,12.5-5.597,12.5-12.5S42.433,13,35.529,13z M35.529,35c-5.246,0-9.5-4.254-9.5-9.5
			s4.254-9.5,9.5-9.5s9.5,4.254,9.5,9.5S40.775,35,35.529,35z M4.029,30c-0.552,0-1-0.447-1-1V4c0-0.552,0.448-1,1-1h12
			c0.552,0,0.887,0.391,1,1l1.143,4h16.857c0.553,0,1,0.448,1,1v1.025c1.029,0.033,2.031,0.162,3,0.386V8c0-1.657-1.344-3-3-3
			H20.886l-0.857-3c-0.471-1.278-1.343-2-3-2h-14c-1.657,0-3,1.343-3,3v27c0,1.656,1.343,3,3,3h18.938
			c-0.523-0.944-0.951-1.948-1.27-3H4.029z M40.529,24h-3.5v-3.5c0-0.828-0.672-1.5-1.5-1.5s-1.5,0.672-1.5,1.5V24h-3.5
			c-0.828,0-1.5,0.672-1.5,1.5s0.672,1.5,1.5,1.5h3.5v3.5c0,0.828,0.672,1.5,1.5,1.5s1.5-0.672,1.5-1.5V27h3.5
			c0.828,0,1.5-0.672,1.5-1.5S41.357,24,40.529,24z"/>
	</g>
</g>
</svg>
