<?xml version="1.0" encoding="utf-8"?>
<!-- Generator: Adobe Illustrator 16.0.0, SVG Export Plug-In . SVG Version: 6.00 Build 0)  -->
<!DOCTYPE svg PUBLIC "-//W3C//DTD SVG 1.1//EN" "http://www.w3.org/Graphics/SVG/1.1/DTD/svg11.dtd">
<svg version="1.1" id="图层_1" xmlns="http://www.w3.org/2000/svg" xmlns:xlink="http://www.w3.org/1999/xlink" x="0px" y="0px"
	 width="39px" height="39px" viewBox="0 0 39 39" enable-background="new 0 0 39 39" xml:space="preserve">
<g>
	<g>
		<path fill-rule="evenodd" clip-rule="evenodd" fill="#B3B3B3" d="M28.372,18.016H11.614c-0.828,0-1.5,0.671-1.5,1.5
			s0.672,1.5,1.5,1.5h16.758c0.828,0,1.5-0.671,1.5-1.5S29.2,18.016,28.372,18.016z M19.5,0C8.73,0,0,8.73,0,19.5S8.73,39,19.5,39
			S39,30.27,39,19.5S30.27,0,19.5,0z M19.5,36C10.388,36,3,28.613,3,19.5c0-5.645,2.839-10.623,7.163-13.598
			c0.109-0.054,0.209-0.121,0.301-0.199C13.061,3.999,16.162,3,19.5,3c3.349,0,6.459,1.004,9.061,2.718
			c0.065,0.05,0.136,0.094,0.209,0.133C33.133,8.819,36,13.824,36,19.5C36,28.613,28.613,36,19.5,36z"/>
	</g>
</g>
</svg>
