<?xml version="1.0" encoding="utf-8"?>
<!-- Generator: Adobe Illustrator 16.0.0, SVG Export Plug-In . SVG Version: 6.00 Build 0)  -->
<!DOCTYPE svg PUBLIC "-//W3C//DTD SVG 1.1//EN" "http://www.w3.org/Graphics/SVG/1.1/DTD/svg11.dtd">
<svg version="1.1" id="图层_1" xmlns="http://www.w3.org/2000/svg" xmlns:xlink="http://www.w3.org/1999/xlink" x="0px" y="0px"
	 width="48px" height="33px" viewBox="0 0 48 33" enable-background="new 0 0 48 33" xml:space="preserve">
<g>
</g>
<g>
	<g>
		<path fill-rule="evenodd" clip-rule="evenodd" fill="#E71F19" d="M13.001,22.916c-1.777,0,0.03,0-2,0c-10.538,0-10.538-13,0-13
			c4.424,0.074,7.41,0,9,0c1.67,0,1.716-3,0-3s2.09,0-9,0C0.246,6.917-0.002,16.031,0,16.423c-0.017,0.135-1.033,9.493,11.001,9.493
			c2,0,0.223,0,2,0C14.777,25.916,14.777,22.916,13.001,22.916z M48.001,15.917c0,0.016,0.295-9-11.168-9c-2.124,0-0.387,0-2.124,0
			c-1.736,0-1.69,3,0,3c1.609,0,0,0,2.124,0c10.669,0,10.669,13,0,13c-8.746,0-7.325,0-9.124,0s-1.799,3,0,3s-2.712,0,9.124,0
			C49.114,25.916,48.001,15.901,48.001,15.917z M32.751,0.479c-0.718-0.415-1.635-0.168-2.049,0.549l-17,29.445
			c-0.414,0.717-0.169,1.635,0.549,2.049s1.635,0.168,2.049-0.549l17-29.445C33.714,1.81,33.469,0.893,32.751,0.479z"/>
	</g>
</g>
</svg>
