<?xml version="1.0" encoding="utf-8"?>
<!-- Generator: Adobe Illustrator 16.0.0, SVG Export Plug-In . SVG Version: 6.00 Build 0)  -->
<!DOCTYPE svg PUBLIC "-//W3C//DTD SVG 1.1//EN" "http://www.w3.org/Graphics/SVG/1.1/DTD/svg11.dtd">
<svg version="1.1" id="图层_1" xmlns="http://www.w3.org/2000/svg" xmlns:xlink="http://www.w3.org/1999/xlink" x="0px" y="0px"
	 width="35.026px" height="23.993px" viewBox="0 0 35.026 23.993" enable-background="new 0 0 35.026 23.993" xml:space="preserve">
<g>
	<g>
		<path fill-rule="evenodd" clip-rule="evenodd" fill="#7F8080" d="M34.432,0.588c-0.791-0.784-2.074-0.784-2.865,0L12.771,19.204
			l-9.274-8.646c-0.8-0.746-2.097-0.746-2.897,0c-0.8,0.746-0.8,1.955,0,2.701l10.525,9.813c0.077,0.118,0.166,0.23,0.27,0.334
			c0.412,0.407,0.956,0.599,1.495,0.582c0.549,0.019,1.104-0.162,1.522-0.553c0.194-0.182,0.34-0.391,0.44-0.613l19.58-19.394
			C35.225,2.644,35.225,1.372,34.432,0.588z"/>
	</g>
</g>
</svg>
