<?xml version="1.0" encoding="utf-8"?>
<!-- Generator: Adobe Illustrator 16.0.0, SVG Export Plug-In . SVG Version: 6.00 Build 0)  -->
<!DOCTYPE svg PUBLIC "-//W3C//DTD SVG 1.1//EN" "http://www.w3.org/Graphics/SVG/1.1/DTD/svg11.dtd">
<svg version="1.1" id="图层_1" xmlns="http://www.w3.org/2000/svg" xmlns:xlink="http://www.w3.org/1999/xlink" x="0px" y="0px"
	 width="45px" height="45px" viewBox="0.005 -1 45 45" enable-background="new 0.005 -1 45 45" xml:space="preserve">
<g>
	<g>
		<path fill="#B3B3B3" d="M21.396,29.578c0.117,0.111,0.254,0.188,0.396,0.25c0.1,0.049,0.199,0.082,0.306,0.107
			c0.001,0.002,0.001,0.002,0.002,0.002c0.084,0.022,0.17,0.039,0.258,0.047c0.001,0,0.002,0,0.002,0
			c0.088,0.008,0.171,0.009,0.259,0c0.118-0.008,0.232-0.027,0.342-0.063c0.001,0,0.001-0.001,0.002-0.001
			c0.228-0.069,0.44-0.173,0.621-0.344l12.95-12.035c0.604-0.575,0.604-1.506,0-2.081c-0.604-0.575-1.582-0.575-2.186,0
			l-10.343,9.611V1.5c0-0.829-0.672-1.5-1.5-1.5c-0.828,0-1.5,0.671-1.5,1.5v23.604l-10.373-9.642c-0.604-0.575-1.584-0.575-2.188,0
			c-0.604,0.575-0.604,1.506,0,2.081L21.396,29.578z M42.009,29v9c0,1.104-0.896,2-2,2H5.001c-1.104,0-2-0.896-2-2v-9H0v9
			c0,2.762,2.239,5,5.001,5h35.008c2.762,0,5.001-2.238,5.001-5v-9H42.009z"/>
	</g>
</g>
</svg>
