<?xml version="1.0" encoding="utf-8"?>
<!-- Generator: Adobe Illustrator 16.0.0, SVG Export Plug-In . SVG Version: 6.00 Build 0)  -->
<!DOCTYPE svg PUBLIC "-//W3C//DTD SVG 1.1//EN" "http://www.w3.org/Graphics/SVG/1.1/DTD/svg11.dtd">
<svg version="1.1" id="图层_1" xmlns="http://www.w3.org/2000/svg" xmlns:xlink="http://www.w3.org/1999/xlink" x="0px" y="0px"
	 width="32px" height="32px" viewBox="0 0 32 32" enable-background="new 0 0 32 32" xml:space="preserve">
<path fill-rule="evenodd" clip-rule="evenodd" fill="none" stroke="#B4B4B4" stroke-width="2" stroke-miterlimit="10" d="M16,1.032
	c8.267,0,14.968,6.701,14.968,14.968c0,8.265-6.701,14.968-14.968,14.968C7.733,30.968,1.032,24.265,1.032,16
	C1.032,7.733,7.733,1.032,16,1.032z"/>
<g>
	<g>
		<path fill-rule="evenodd" clip-rule="evenodd" fill="#B4B4B4" d="M25.042,23.818l-7.817-7.827l7.799-7.809
			c0.34-0.34,0.34-0.892,0-1.233c-0.34-0.34-0.891-0.34-1.231,0l-7.799,7.809L8.207,6.962c-0.34-0.34-0.892-0.34-1.231,0
			s-0.34,0.892,0,1.232l7.787,7.796l-7.804,7.814c-0.34,0.342-0.34,0.893,0,1.234c0.34,0.34,0.891,0.34,1.23,0l7.805-7.815
			l7.817,7.827c0.34,0.34,0.892,0.34,1.231,0S25.382,24.158,25.042,23.818z"/>
	</g>
</g>
</svg>
