<?xml version="1.0" encoding="utf-8"?>
<!-- Generator: Adobe Illustrator 16.0.0, SVG Export Plug-In . SVG Version: 6.00 Build 0)  -->
<!DOCTYPE svg PUBLIC "-//W3C//DTD SVG 1.1//EN" "http://www.w3.org/Graphics/SVG/1.1/DTD/svg11.dtd">
<svg version="1.1" id="图层_1" xmlns="http://www.w3.org/2000/svg" xmlns:xlink="http://www.w3.org/1999/xlink" x="0px" y="0px"
	 width="60px" height="60px" viewBox="-2.497 -14.497 60 60" enable-background="new -2.497 -14.497 60 60" xml:space="preserve">
<g>
	<g>
		<path fill="#7F8080" d="M54.515,14.517C51.324,10.885,40.926,0.302,27.929,0.02C27.795,0.017,27.664,0,27.529,0
			c-0.048,0-0.095,0.007-0.143,0.007C14.426,0.015,3.818,10.544,0.554,14.164c-0.726,0.888-0.765,1.766,0.039,2.57
			c3.146,3.758,12.973,13.995,26.747,14.26c0.063,0.002,0.125,0.01,0.189,0.01c0.023,0,0.047-0.004,0.07-0.004
			c0.095,0.002,0.188,0.008,0.282,0.008c11.681,0,23.24-10.778,26.646-14.231C55.153,16.166,55.183,15.287,54.515,14.517z
			 M4.41,16.496c-0.461-0.531-0.626-1.605,0.079-2.22c1.724-1.775,5.535-5.325,10.59-7.974c-1.904,2.575-3.044,5.75-3.044,9.2
			c0,3.494,1.169,6.707,3.118,9.298C9.823,22.083,6.06,18.341,4.41,16.496z M27.522,28.01c-6.905,0-12.503-5.599-12.503-12.504
			S20.617,3.002,27.522,3.002c6.904,0,12.502,5.598,12.502,12.504S34.427,28.01,27.522,28.01z M50.685,16.602
			c-1.711,1.618-5.572,5.021-10.396,7.688c1.723-2.498,2.736-5.523,2.736-8.788c0-3.397-1.105-6.529-2.959-9.083
			c5.018,2.682,8.775,6.248,10.51,8.07C51.06,14.874,51.237,15.903,50.685,16.602z M28.028,12.002c0-1.577,0.74-2.966,1.875-3.884
			c-0.444-0.083-0.902-0.131-1.371-0.131c-4.14,0-7.495,3.359-7.495,7.502c0,4.144,3.355,7.503,7.495,7.503
			c3.969,0,7.207-3.089,7.471-6.995c-0.834,0.629-1.859,1.016-2.982,1.016C30.265,17.012,28.028,14.769,28.028,12.002z"/>
	</g>
</g>
</svg>
