<?xml version="1.0" encoding="utf-8"?>
<!-- Generator: Adobe Illustrator 16.0.0, SVG Export Plug-In . SVG Version: 6.00 Build 0)  -->
<!DOCTYPE svg PUBLIC "-//W3C//DTD SVG 1.1//EN" "http://www.w3.org/Graphics/SVG/1.1/DTD/svg11.dtd">
<svg version="1.1" id="图层_1" xmlns="http://www.w3.org/2000/svg" xmlns:xlink="http://www.w3.org/1999/xlink" x="0px" y="0px"
	 width="40.047px" height="40.045px" viewBox="0 0 40.047 40.045" enable-background="new 0 0 40.047 40.045" xml:space="preserve">
<path fill-rule="evenodd" clip-rule="evenodd" fill="#7F8080" d="M20.989,5.203l-1.027-0.918l0.682-2.766
	c0,0,1.395-1.834-0.17-1.472c-1.565,0.362-5.626,2.163-6.092,2.627c0.245-0.245-6.015,3.184-9.08,6.12c0,0-12.7,13.3,1.21,25.723
	l1.185,1.059c0,0,14.524,11.064,27.425-1.764c0,0,10.027-10.573,1.466-21.464c0.798,2.024,2.96,10.502,0.059,12.154
	c-0.526,0.3-0.843-2.183-1.772-0.923c-0.93,1.261-2.425,4.985-3.772,5.542c-1.347,0.557-0.73-2.742-1.604-1.873
	c-0.874,0.87-7.979,8.607-14.559,2.729c0,0-4.581-5.961-3.051-5.915s1.298,0.499,1.654,0.816c0.355,0.318,2.66,1.606,3.36,1.021
	c0.701-0.585,1.055-0.489,1.885,0.252c0.829,0.741,2.187,1.294,2.412,0.286c0.227-1.009-1.258-2.665-2.146-3.459
	c-0.89-0.794-2.063-0.521-2.715-0.993c-0.65-0.472-1.305-1.275-1.305-1.275s0.575-1.467-0.139-2.324
	c-0.713-0.857,0.67-4.022,1.441-3.334c0.77,0.688,1.424,1.492,1.02,2.342c-0.404,0.849,0.896,1.57,1.887,0.585
	c0.991-0.985,1.807-1.797,1.569-2.12c-0.238-0.322,1.938-0.249,2.822-0.01c0.884,0.24,3.056-0.241,1.87-1.3
	s-3.318-2.854-2.386-3.781c0.933-0.927,3.396-1.697,4.278-1.569c0.883,0.129,1.932-0.914,0.163-1.505
	c-1.77-0.59-4.532-0.527-4.77-0.738L20.989,5.203z"/>
</svg>
