<?xml version="1.0" encoding="utf-8"?>
<!-- Generator: Adobe Illustrator 16.0.0, SVG Export Plug-In . SVG Version: 6.00 Build 0)  -->
<!DOCTYPE svg PUBLIC "-//W3C//DTD SVG 1.1//EN" "http://www.w3.org/Graphics/SVG/1.1/DTD/svg11.dtd">
<svg version="1.1" id="图层_1" xmlns="http://www.w3.org/2000/svg" xmlns:xlink="http://www.w3.org/1999/xlink" x="0px" y="0px"
	 width="41.969px" height="42.988px" viewBox="0 0 41.969 42.988" enable-background="new 0 0 41.969 42.988" xml:space="preserve">
<g>
	<g>
		<path fill-rule="evenodd" clip-rule="evenodd" fill="#7F8080" d="M41.8,22.189c0.036-0.075,0.068-0.147,0.092-0.227
			c0.038-0.119,0.063-0.242,0.069-0.371c0.004-0.079-0.001-0.153-0.008-0.232c-0.009-0.087-0.023-0.171-0.047-0.252
			c-0.063-0.257-0.167-0.504-0.358-0.706L22.526,0.453c-0.574-0.604-1.505-0.604-2.08,0c-0.574,0.604-0.574,1.583,0,2.187
			l16.565,17.371H1.499c-0.828,0-1.499,0.672-1.499,1.5s0.671,1.5,1.499,1.5H36.98L20.446,40.35c-0.574,0.604-0.574,1.582,0,2.187
			c0.574,0.604,1.505,0.604,2.08,0l19.022-19.948c0.046-0.048,0.065-0.111,0.104-0.165C41.708,22.35,41.757,22.272,41.8,22.189z"/>
	</g>
</g>
</svg>
