<?xml version="1.0" encoding="utf-8"?>
<!-- Generator: Adobe Illustrator 16.0.0, SVG Export Plug-In . SVG Version: 6.00 Build 0)  -->
<!DOCTYPE svg PUBLIC "-//W3C//DTD SVG 1.1//EN" "http://www.w3.org/Graphics/SVG/1.1/DTD/svg11.dtd">
<svg version="1.1" id="图层_1" xmlns="http://www.w3.org/2000/svg" xmlns:xlink="http://www.w3.org/1999/xlink" x="0px" y="0px"
	 width="43.016px" height="44.011px" viewBox="0 0 43.016 44.011" enable-background="new 0 0 43.016 44.011" xml:space="preserve">
<g>
	<g>
		<path fill-rule="evenodd" clip-rule="evenodd" fill="#7F8080" d="M2.575,16.403c0-7.623,6.164-13.802,13.768-13.802
			c6.718,0,12.303,4.825,13.516,11.206h2.618C31.238,5.985,24.5,0,16.35,0C7.32,0,0,7.338,0,16.391s7.32,16.391,16.35,16.391h0.006
			v-2.577c-0.004,0-0.008,0.001-0.013,0.001C8.739,30.205,2.575,24.025,2.575,16.403z M42.818,32.57
			c-0.917-4.822-3.522-8.377-5.217-9.509c-1.8-1.202-4.469-2.224-5.846-2.224c-0.718,0-2.43,2.335-2.43,2.335
			s-0.578-2.536-2.277-2.593c-1.355-0.046-1.623,2.543-2.494,2.543c-0.667,0-5.189-8.578-6.155-9.143
			c-1.283-0.749-3.899,0.85-2.514,2.948c1.385,2.098,7.746,14.088,8.104,14.837c0.359,0.75,1.642,3.397,0.821,3.397
			c-0.821,0-3.438-4.047-5.694-2.448c-1.045,0.74-0.756,1.855,0.161,2.928c0.916,1.071,8.318,8.714,15.287,8.356
			C41.534,43.643,43.735,37.392,42.818,32.57z"/>
	</g>
</g>
</svg>
