<?xml version="1.0" encoding="utf-8"?>
<!-- Generator: Adobe Illustrator 16.0.0, SVG Export Plug-In . SVG Version: 6.00 Build 0)  -->
<!DOCTYPE svg PUBLIC "-//W3C//DTD SVG 1.1//EN" "http://www.w3.org/Graphics/SVG/1.1/DTD/svg11.dtd">
<svg version="1.1" id="图层_1" xmlns="http://www.w3.org/2000/svg" xmlns:xlink="http://www.w3.org/1999/xlink" x="0px" y="0px"
	 width="41px" height="41px" viewBox="0 0 41 41" enable-background="new 0 0 41 41" xml:space="preserve">
<g>
	<g>
		<path fill-rule="evenodd" clip-rule="evenodd" fill="#B3B3B3" d="M20.501,0C9.179,0,0,9.178,0,20.5C0,31.822,9.179,41,20.501,41
			c11.32,0,20.5-9.178,20.5-20.5C41.001,9.178,31.821,0,20.501,0z M20.517,38.016c-9.665,0-17.5-7.834-17.5-17.499
			s7.835-17.5,17.5-17.5s17.5,7.835,17.5,17.5S30.182,38.016,20.517,38.016z M28.38,20.023h-7.371V9.748
			c0-0.956-0.67-1.731-1.496-1.731s-1.496,0.775-1.496,1.731v11.539c0,0.045,0.009,0.087,0.011,0.131
			c-0.002,0.035-0.011,0.067-0.011,0.103c0,0.476,0.248,0.895,0.626,1.168c0.028,0.023,0.057,0.044,0.087,0.065
			c0.005,0.004,0.011,0.007,0.017,0.011c0.225,0.156,0.485,0.251,0.766,0.251c0.021,0,0.041-0.006,0.062-0.007
			c0.027,0.001,0.052,0.007,0.079,0.007h8.727c0.904,0,1.637-0.67,1.637-1.496C30.017,20.693,29.284,20.023,28.38,20.023z"/>
	</g>
</g>
</svg>
