<?xml version="1.0" encoding="utf-8"?>
<!-- Generator: Adobe Illustrator 16.0.0, SVG Export Plug-In . SVG Version: 6.00 Build 0)  -->
<!DOCTYPE svg PUBLIC "-//W3C//DTD SVG 1.1//EN" "http://www.w3.org/Graphics/SVG/1.1/DTD/svg11.dtd">
<svg version="1.1" id="图层_1" xmlns="http://www.w3.org/2000/svg" xmlns:xlink="http://www.w3.org/1999/xlink" x="0px" y="0px"
	 width="9px" height="38px" viewBox="0 0 9 38" enable-background="new 0 0 9 38" xml:space="preserve">
<g>
	<g>
		<path fill-rule="evenodd" clip-rule="evenodd" fill="#FFFFFF" d="M6,0H3C1.343,0,0,1.343,0,3v3c0,1.657,1.343,3,3,3h3
			c1.657,0,3-1.343,3-3V3C9,1.343,7.657,0,6,0z M6,15H3c-1.657,0-3,1.343-3,3v3c0,1.657,1.343,3,3,3h3c1.657,0,3-1.343,3-3v-3
			C9,16.343,7.657,15,6,15z M6,29H3c-1.657,0-3,1.344-3,3v3c0,1.656,1.343,3,3,3h3c1.657,0,3-1.344,3-3v-3C9,30.344,7.657,29,6,29z"
			/>
	</g>
</g>
</svg>
