<?xml version="1.0" encoding="utf-8"?>
<!-- Generator: Adobe Illustrator 16.0.0, SVG Export Plug-In . SVG Version: 6.00 Build 0)  -->
<!DOCTYPE svg PUBLIC "-//W3C//DTD SVG 1.1//EN" "http://www.w3.org/Graphics/SVG/1.1/DTD/svg11.dtd">
<svg version="1.1" id="图层_1" xmlns="http://www.w3.org/2000/svg" xmlns:xlink="http://www.w3.org/1999/xlink" x="0px" y="0px"
	 width="43px" height="37.004px" viewBox="0 0 43 37.004" enable-background="new 0 0 43 37.004" xml:space="preserve">
<g>
	<g>
		<path fill-rule="evenodd" clip-rule="evenodd" fill="#7F8080" d="M31.056,0c-3.914,0-7.377,1.899-9.556,4.822
			C19.321,1.899,15.858,0,11.944,0C5.348,0,0,5.372,0,12c0,2.978,1.086,5.697,2.874,7.795c0.004,0.019,0.004,0.04,0.013,0.055
			C5.124,23.643,21.6,37.004,21.6,37.004S37.793,23.52,40.412,19.55c0.039-0.06,0.057-0.123,0.063-0.189
			C42.052,17.327,43,14.777,43,12C43,5.372,37.652,0,31.056,0z M38.125,17.721c-2.767,3.984-16.697,15.283-16.697,15.283
			S7.202,21.995,5,18.002c-0.041-0.074-0.024-0.188,0.022-0.323C3.759,16.129,3,14.154,3,12c0-4.97,4.032-9,9.005-9
			c4.367,0,8.005,3.108,8.829,7.23c0.301,0.188,0.562,0.333,0.729,0.333c0.168,0,0.377-0.12,0.606-0.282
			C22.972,6.134,26.62,3,31.006,3c4.973,0,9.005,4.03,9.005,9c0,1.984-0.65,3.812-1.738,5.299
			C38.258,17.449,38.215,17.591,38.125,17.721z"/>
	</g>
</g>
</svg>
