<?xml version="1.0" encoding="utf-8"?>
<!-- Generator: Adobe Illustrator 16.0.0, SVG Export Plug-In . SVG Version: 6.00 Build 0)  -->
<!DOCTYPE svg PUBLIC "-//W3C//DTD SVG 1.1//EN" "http://www.w3.org/Graphics/SVG/1.1/DTD/svg11.dtd">
<svg version="1.1" id="图层_1" xmlns="http://www.w3.org/2000/svg" xmlns:xlink="http://www.w3.org/1999/xlink" x="0px" y="0px"
	 width="35px" height="19px" viewBox="0 0 35 19" enable-background="new 0 0 35 19" xml:space="preserve">
<g>
	<g>
		<path fill-rule="evenodd" clip-rule="evenodd" fill="#B3B3B3" d="M1.5,3h32C34.328,3,35,2.329,35,1.5C35,0.672,34.328,0,33.5,0
			h-32C0.671,0,0,0.672,0,1.5C0,2.329,0.671,3,1.5,3z M33.5,8h-32C0.671,8,0,8.672,0,9.5C0,10.329,0.671,11,1.5,11h32
			c0.828,0,1.5-0.671,1.5-1.5C35,8.672,34.328,8,33.5,8z M33.5,16h-32C0.671,16,0,16.672,0,17.5S0.671,19,1.5,19h32
			c0.828,0,1.5-0.672,1.5-1.5S34.328,16,33.5,16z"/>
	</g>
</g>
</svg>
