<?xml version="1.0" encoding="utf-8"?>
<!-- Generator: Adobe Illustrator 16.0.0, SVG Export Plug-In . SVG Version: 6.00 Build 0)  -->
<!DOCTYPE svg PUBLIC "-//W3C//DTD SVG 1.1//EN" "http://www.w3.org/Graphics/SVG/1.1/DTD/svg11.dtd">
<svg version="1.1" id="图层_1" xmlns="http://www.w3.org/2000/svg" xmlns:xlink="http://www.w3.org/1999/xlink" x="0px" y="0px"
	 width="60px" height="60px" viewBox="0 0 60 60" enable-background="new 0 0 60 60" xml:space="preserve">
<g>
	<g>
		<path fill="#B5B4B4" d="M49.923,15.999H29.359l-1.072-4.308c-0.505-1.375-1.438-2.154-3.212-2.154H10.08
			c-1.776,0-3.214,1.445-3.214,3.23v18.308h3.214V13.846c0-0.596,0.477-1.076,1.07-1.076h12.852c0.595,0,0.951,0.42,1.072,1.076
			l1.338,5.385h22.438c0.594,0,1.072,0.481,1.072,1.076v25.85c0,0.596-0.479,1.074-1.072,1.074h-37.7
			c-0.594,0-1.07-0.479-1.07-1.074v-4.309H6.865v5.383c0,1.785,1.438,3.232,3.214,3.232h39.844c1.775,0,3.212-1.447,3.212-3.232v-28
			C53.135,17.445,51.698,15.999,49.923,15.999z M24.002,39.689l9.641-10.768L19.717,22.46c0,0,0.635,2.388,1.072,4.308
			c-8.247,3.14-13.924,10.771-13.924,10.771v3.232c0,0,7.858-4.153,16.065-5.386C23.287,36.917,24.002,39.689,24.002,39.689z"/>
	</g>
</g>
</svg>
