<?xml version="1.0" encoding="utf-8"?>
<!-- Generator: Adobe Illustrator 16.0.0, SVG Export Plug-In . SVG Version: 6.00 Build 0)  -->
<!DOCTYPE svg PUBLIC "-//W3C//DTD SVG 1.1//EN" "http://www.w3.org/Graphics/SVG/1.1/DTD/svg11.dtd">
<svg version="1.1" id="图层_1" xmlns="http://www.w3.org/2000/svg" xmlns:xlink="http://www.w3.org/1999/xlink" x="0px" y="0px"
	 width="180px" height="100px" viewBox="0 0 180 100" enable-background="new 0 0 180 100" xml:space="preserve">
<g>
	<g>
		<path fill="#666666" d="M168.801,50h-23.332c-2.76,0-5,2.239-5,5v40.001c0,2.759,2.24,4.999,5,4.999h23.332
			c2.762,0,5-2.24,5-4.999V55C173.801,52.239,171.563,50,168.801,50z M172.135,95.833c0,1.38-1.119,2.5-2.5,2.5h-25
			c-1.379,0-2.5-1.12-2.5-2.5V54.167c0-1.382,1.121-2.5,2.5-2.5h25c1.381,0,2.5,1.118,2.5,2.5V95.833z"/>
		<path fill="#666666" d="M160.469,54.167c0,0.459-0.373,0.833-0.834,0.833h-5c-0.461,0-0.832-0.374-0.832-0.833l0,0
			c0-0.46,0.371-0.834,0.832-0.834h5C160.096,53.333,160.469,53.707,160.469,54.167L160.469,54.167z"/>
		<rect x="142.135" y="56.666" fill="#666666" width="30" height="0.834"/>
		<rect x="142.135" y="92.501" fill="#666666" width="30" height="0.832"/>
		<path fill="#666666" d="M158.802,95.833c0,0.46-0.372,0.833-0.833,0.833h-1.667c-0.46,0-0.833-0.373-0.833-0.833l0,0
			c0-0.461,0.373-0.832,0.833-0.832h1.667C158.43,95.001,158.802,95.372,158.802,95.833L158.802,95.833z"/>
	</g>
	<path fill="#666666" d="M6.199,41.5v52c0,3.588,2.912,6.5,6.5,6.5H49.53c3.59,0,6.501-2.912,6.501-6.5v-52
		c0-3.588-2.911-6.5-6.501-6.5H12.699C9.111,35,6.199,37.912,6.199,41.5z M32.199,96.748c0.599,0,1.083,0.486,1.083,1.083
		c0,0.6-0.484,1.085-1.083,1.085h-2.167c-0.599,0-1.083-0.485-1.083-1.085c0-0.597,0.484-1.083,1.083-1.083H32.199z M48.447,39.333
		c1.795,0,3.252,1.455,3.252,3.25v49.833c0,1.793-1.457,3.25-3.252,3.25H13.783c-1.794,0-3.25-1.457-3.25-3.25V42.583
		c0-1.795,1.456-3.25,3.25-3.25H48.447z M31.657,37.167c0.298,0,0.542,0.244,0.542,0.542s-0.244,0.542-0.542,0.542h-1.083
		c-0.298,0-0.542-0.243-0.542-0.542s0.244-0.542,0.542-0.542H31.657z"/>
	<g>
		<path fill="#666666" d="M56.031,88.119h30.571v6.78h-23.2c-1.228,0-2.224,1.139-2.224,2.543c0,1.403,0.996,2.542,2.224,2.542
			h66.738c1.228,0,2.225-1.139,2.225-2.542c0-1.404-0.997-2.543-2.225-2.543h-23.199v-6.78h33.536V77.95H56.031V88.119z"/>
		<path fill="#666666" d="M148.619-0.016H44.923c-4.09,0-7.407,3.288-7.407,7.344l0.02,27.671h3.324L40.84,9.224
			c0-3.231,2.635-5.849,5.889-5.849h100.09c3.25,0,5.885,2.618,5.885,5.849v40.761h3.324V7.328
			C156.027,3.272,152.713-0.016,148.619-0.016z"/>
	</g>
</g>
</svg>
