<?xml version="1.0" encoding="utf-8"?>
<!-- Generator: Adobe Illustrator 16.0.0, SVG Export Plug-In . SVG Version: 6.00 Build 0)  -->
<!DOCTYPE svg PUBLIC "-//W3C//DTD SVG 1.1//EN" "http://www.w3.org/Graphics/SVG/1.1/DTD/svg11.dtd">
<svg version="1.1" id="图层_1" xmlns="http://www.w3.org/2000/svg" xmlns:xlink="http://www.w3.org/1999/xlink" x="0px" y="0px"
	 width="42px" height="42px" viewBox="-0.509 0.661 42 42" enable-background="new -0.509 0.661 42 42" xml:space="preserve">
<g>
	<g>
		<path fill="#7E7E7F" d="M39.444,20.703h-0.015c-0.015-0.328-0.141-0.653-0.396-0.906c-0.532-0.53-1.39-0.537-1.913-0.016
			c-0.331,0.33-0.426,0.785-0.335,1.211c0.298,4.495-1.244,9.069-4.68,12.481c-6.375,6.334-16.771,6.271-23.222-0.138
			c-6.45-6.407-6.511-16.733-0.137-23.065C14.86,4.198,24.665,4.024,31.15,9.673l-6.029,1.24c-0.806,0.166-1.342,0.833-1.195,1.492
			c0.146,0.659,0.916,1.058,1.721,0.892l7.777-1.598c0.356-0.074,0.656-0.248,0.871-0.475c0.386-0.324,0.578-0.894,0.449-1.484
			l-1.726-7.847c-0.179-0.813-0.896-1.354-1.602-1.208c-0.705,0.144-1.133,0.921-0.954,1.734l0.9,4.093
			C23.911,1.269,13.491,1.661,6.982,8.428c-7.38,7.314-7.311,19.242,0.155,26.639c7.466,7.399,19.502,7.465,26.882,0.153
			C38.024,31.252,39.817,25.926,39.444,20.703z"/>
	</g>
</g>
</svg>
