<?xml version="1.0" encoding="utf-8"?>
<!-- Generator: Adobe Illustrator 16.0.0, SVG Export Plug-In . SVG Version: 6.00 Build 0)  -->
<!DOCTYPE svg PUBLIC "-//W3C//DTD SVG 1.1//EN" "http://www.w3.org/Graphics/SVG/1.1/DTD/svg11.dtd">
<svg version="1.1" id="图层_1" xmlns="http://www.w3.org/2000/svg" xmlns:xlink="http://www.w3.org/1999/xlink" x="0px" y="0px"
	 width="45.01px" height="45px" viewBox="0 0 45.01 45" enable-background="new 0 0 45.01 45" xml:space="preserve">
<g>
	<g>
		<path fill-rule="evenodd" clip-rule="evenodd" fill="#B3B3B3" d="M43.509,21h-4.563c-0.312-3.431-1.675-6.555-3.763-9.053
			l3.236-3.236c0.585-0.585,0.585-1.535-0.001-2.121s-1.536-0.586-2.122,0l-3.237,3.238c-2.501-2.079-5.625-3.437-9.054-3.744V1.5
			c0-0.828-0.672-1.5-1.5-1.5s-1.5,0.672-1.5,1.5v4.585c-3.426,0.311-6.546,1.671-9.044,3.752L8.713,6.59
			c-0.586-0.586-1.536-0.586-2.122,0c-0.585,0.586-0.585,1.536,0,2.121l3.247,3.247C7.756,14.455,6.396,17.575,6.084,21H1.5
			C0.672,21,0,21.672,0,22.5S0.672,24,1.5,24h4.583c0.308,3.428,1.667,6.55,3.748,9.049l-3.24,3.239
			c-0.586,0.586-0.586,1.536,0,2.122s1.536,0.586,2.122,0l3.239-3.238c2.499,2.085,5.623,3.447,9.053,3.759V43.5
			c0,0.828,0.672,1.5,1.5,1.5s1.5-0.672,1.5-1.5v-4.568c3.433-0.308,6.56-1.668,9.062-3.751l3.229,3.229
			c0.586,0.586,1.536,0.586,2.122,0s0.586-1.536,0-2.122l-3.229-3.228c2.087-2.502,3.448-5.628,3.757-9.061h4.563
			c0.829,0,1.501-0.672,1.501-1.5S44.338,21,43.509,21z M22.513,36.006c-7.457,0-13.501-6.044-13.501-13.5
			c0-7.455,6.045-13.498,13.501-13.498c7.457,0,13.502,6.043,13.502,13.498C36.015,29.962,29.97,36.006,22.513,36.006z
			 M22.511,14.005c-4.695,0-8.502,3.805-8.502,8.499s3.807,8.499,8.502,8.499c4.694,0,8.5-3.805,8.5-8.499
			S27.205,14.005,22.511,14.005z M22.509,28.002c-3.039,0-5.501-2.462-5.501-5.499c0-3.038,2.462-5.5,5.501-5.5
			c3.037,0,5.5,2.462,5.5,5.5C28.009,25.54,25.546,28.002,22.509,28.002z"/>
	</g>
</g>
</svg>
