<?xml version="1.0" encoding="utf-8"?>
<!-- Generator: Adobe Illustrator 16.0.0, SVG Export Plug-In . SVG Version: 6.00 Build 0)  -->
<!DOCTYPE svg PUBLIC "-//W3C//DTD SVG 1.1//EN" "http://www.w3.org/Graphics/SVG/1.1/DTD/svg11.dtd">
<svg version="1.1" id="图层_1" xmlns="http://www.w3.org/2000/svg" xmlns:xlink="http://www.w3.org/1999/xlink" x="0px" y="0px"
	 width="41.225px" height="51.059px" viewBox="0 0 41.225 51.059" enable-background="new 0 0 41.225 51.059" xml:space="preserve">
<g>
	<g>
		<path fill-rule="evenodd" clip-rule="evenodd" fill="#7F8080" d="M20.653,36.977c6.899,0,12.493-5.631,12.493-12.577V12.601
			c0-6.945-5.594-12.576-12.493-12.576c-6.9,0-12.494,5.631-12.494,12.576V24.4C8.159,31.346,13.753,36.977,20.653,36.977z
			 M11.145,24.067h6.003c0.553,0,1-0.447,1-1s-0.447-1-1-1h-6.003v-3h6.003c0.553,0,1-0.447,1-1s-0.447-1-1-1h-6.003v-3h6.003
			c0.553,0,1-0.447,1-1s-0.447-1-1-1h-5.97c0.339-5.028,4.446-9.003,9.477-9.003s9.138,3.975,9.477,9.003h-5.983
			c-0.553,0-1,0.447-1,1s0.447,1,1,1h6.017v3h-6.017c-0.553,0-1,0.447-1,1s0.447,1,1,1h6.017v3h-6.017c-0.553,0-1,0.447-1,1
			s0.447,1,1,1h6.017v1.322c0,5.343-4.258,8.673-9.51,8.673s-9.51-3.331-9.51-8.673V24.067z M40.838,28.133
			c-0.381-0.554-0.838-0.849-1.01-0.955c-0.396-0.245-0.787-0.302-1.57,0.07c-0.162,0.142-0.307,0.252-0.445,0.357
			c-1.541,8.238-8.636,14.47-17.17,14.47c-8.513,0-15.596-6.199-17.162-14.405c-0.198-0.16-0.405-0.287-0.641-0.423
			c-0.837-0.317-1.467-0.276-2.037-0.042c-0.238,0.079-0.546,0.342-0.783,0.824c1.542,8.405,8.029,15.051,16.303,16.735
			l-3.772,4.596c-0.247,0.469-0.271,0.881,0.001,1.09c0.396,0.305,1.645,0.49,3.617,0.49c0.206,0,0.334,0.047,0.428,0.117h9.172
			c0.094-0.07,0.222-0.117,0.428-0.117c1.973,0,3.293-0.098,3.617-0.49c0.339-0.408,0.123-1.168-0.643-1.941
			c-0.011-0.031-0.015-0.059-0.021-0.09l-3.074-4.025C33.582,42.26,39.359,35.971,40.838,28.133z"/>
	</g>
</g>
</svg>
