<?xml version="1.0" encoding="utf-8"?>
<!-- Generator: Adobe Illustrator 16.0.0, SVG Export Plug-In . SVG Version: 6.00 Build 0)  -->
<!DOCTYPE svg PUBLIC "-//W3C//DTD SVG 1.1//EN" "http://www.w3.org/Graphics/SVG/1.1/DTD/svg11.dtd">
<svg version="1.1" id="图层_1" xmlns="http://www.w3.org/2000/svg" xmlns:xlink="http://www.w3.org/1999/xlink" x="0px" y="0px"
	 width="80px" height="80px" viewBox="0 0 80 80" enable-background="new 0 0 80 80" xml:space="preserve">
<g>
	<g>
		<path fill-rule="evenodd" clip-rule="evenodd" fill="#666666" d="M70.59,10H9.409c-2.413,0-4.37,1.94-4.37,4.333v43.334
			C5.039,60.06,6.996,62,9.409,62H34v4H20.313C19.588,66,19,66.672,19,67.5s0.588,1.5,1.313,1.5h39.374C60.412,69,61,68.328,61,67.5
			S60.412,66,59.687,66H46v-4h24.59c2.416,0,4.371-1.94,4.371-4.333V14.333C74.961,11.94,73.006,10,70.59,10z M73,52.549
			C73,54.455,71.445,56,69.526,56H10.474C8.555,56,7,54.455,7,52.549V15.451C7,13.545,8.555,12,10.474,12h59.053
			C71.445,12,73,13.545,73,15.451V52.549z"/>
	</g>
</g>
</svg>
