<?xml version="1.0" encoding="utf-8"?>
<!-- Generator: Adobe Illustrator 16.0.0, SVG Export Plug-In . SVG Version: 6.00 Build 0)  -->
<!DOCTYPE svg PUBLIC "-//W3C//DTD SVG 1.1//EN" "http://www.w3.org/Graphics/SVG/1.1/DTD/svg11.dtd">
<svg version="1.1" id="图层_1" xmlns="http://www.w3.org/2000/svg" xmlns:xlink="http://www.w3.org/1999/xlink" x="0px" y="0px"
	 width="41px" height="31px" viewBox="0 0 41 31" enable-background="new 0 0 41 31" xml:space="preserve">
<g>
	<g>
		<path fill-rule="evenodd" clip-rule="evenodd" fill="#7F8080" d="M37,0H10.5C9.672,0,9,0.672,9,1.5S9.672,3,10.5,3H37
			c0.553,0,1,0.447,1,1v16.5c0,0.828,0.672,1.5,1.5,1.5s1.5-0.672,1.5-1.5V4C41,1.791,39.209,0,37,0z M31,6H4c-2.209,0-4,1.791-4,4
			v17c0,2.209,1.791,4,4,4h27c2.209,0,4-1.791,4-4V10C35,7.791,33.209,6,31,6z M32,27c0,0.553-0.447,1-1,1H4c-0.553,0-1-0.447-1-1
			V10c0-0.552,0.447-1,1-1h27c0.553,0,1,0.448,1,1V27z"/>
	</g>
</g>
</svg>
