<?xml version="1.0" encoding="utf-8"?>
<!-- Generator: Adobe Illustrator 16.0.0, SVG Export Plug-In . SVG Version: 6.00 Build 0)  -->
<!DOCTYPE svg PUBLIC "-//W3C//DTD SVG 1.1//EN" "http://www.w3.org/Graphics/SVG/1.1/DTD/svg11.dtd">
<svg version="1.1" id="图层_1" xmlns="http://www.w3.org/2000/svg" xmlns:xlink="http://www.w3.org/1999/xlink" x="0px" y="0px"
	 width="60px" height="60px" viewBox="0 0 60 60" enable-background="new 0 0 60 60" xml:space="preserve">
<g>
	<g>
		<path fill-rule="evenodd" clip-rule="evenodd" fill="#666666" d="M28.5,47c1.934,0,3.5-1.566,3.5-3.5S30.434,40,28.5,40
			S25,41.566,25,43.5S26.566,47,28.5,47z M28.5,42c0.828,0,1.5,0.672,1.5,1.5S29.328,45,28.5,45S27,44.328,27,43.5
			S27.672,42,28.5,42z M41,48c0,0.553-0.447,1-1,1H17c-0.552,0-1-0.447-1-1V12c0-0.553,0.448-1,1-1h23c0.553,0,1,0.447,1,1v6h3v-7
			c0-1.656-1.344-3-3-3H16c-1.657,0-3,1.344-3,3v38c0,1.656,1.343,3,3,3h25c1.656,0,3-1,3-3V30h-3V48z M30.5,16
			c0.828,0,1.5-0.672,1.5-1.5S31.328,13,30.5,13h-4c-0.828,0-1.5,0.672-1.5,1.5s0.672,1.5,1.5,1.5H30.5z M36,15l-8,8l8,7v-4
			c0,0,6.857-0.285,14,6c-4.143-12.143-14-13-14-13V15z"/>
	</g>
</g>
</svg>
