<?xml version="1.0" encoding="utf-8"?>
<!-- Generator: Adobe Illustrator 16.0.0, SVG Export Plug-In . SVG Version: 6.00 Build 0)  -->
<!DOCTYPE svg PUBLIC "-//W3C//DTD SVG 1.1//EN" "http://www.w3.org/Graphics/SVG/1.1/DTD/svg11.dtd">
<svg version="1.1" id="图层_1" xmlns="http://www.w3.org/2000/svg" xmlns:xlink="http://www.w3.org/1999/xlink" x="0px" y="0px"
	 width="60px" height="60px" viewBox="0 0 60 60" enable-background="new 0 0 60 60" xml:space="preserve">
<g>
	<g>
		<path fill-rule="evenodd" clip-rule="evenodd" fill="#666666" d="M46,43h-2.5c-2.996-0.069-3.048-2.173-4-4
			c-1.001-1.92-1.343-3-3-3h-14c-1.657,0-2.036,1.108-3,3c-0.934,1.832-0.97,4.035-4,4H13c-0.828,0-1.5,0.672-1.5,1.5
			S12.172,46,13,46h33c0.828,0,1.5-0.672,1.5-1.5S46.828,43,46,43z M21.065,43c0.131-0.335,0.269-0.674,0.435-1
			c0.964-1.892,1.343-3,3-3h10c1.657,0,1.999,1.08,3,3c0.172,0.329,0.313,0.667,0.449,1H21.065z M55.5,35.5
			c0-4.965-3.447-9.114-8.075-10.208C46.807,17.297,40.145,11,32,11c-6.265,0-11.647,3.73-14.086,9.087
			c-3.626,0.527-6.414,3.64-6.414,7.413c0,0.241,0.014,0.479,0.036,0.713C7.511,29.112,4.5,32.699,4.5,36.995
			c0,2.14,0.753,4.099,2,5.643V41.5V41h0.092C6.536,41.157,6.5,41.324,6.5,41.5C6.5,42.328,7.172,43,8,43s1.5-0.672,1.5-1.5
			c0-0.707-0.491-1.296-1.15-1.455c-0.531-0.89-0.846-1.922-0.846-3.035c0-3.312,2.684-5.996,5.996-6V31h1v-3h0.029
			c-0.019-0.164-0.029-0.331-0.029-0.5c0-2.485,2.015-4.5,4.5-4.5c0.332,0,0.653,0.041,0.965,0.109
			c1.48-5.259,6.302-9.12,12.035-9.12c6.91,0,12.513,5.602,12.513,12.511c0,0.516-0.042,1.021-0.104,1.521
			c0.197-0.016,0.394-0.03,0.595-0.03c4.138,0,7.491,3.362,7.491,7.51c0,1.693-0.567,3.248-1.513,4.502
			c-0.82,0.01-1.482,0.676-1.482,1.498c0,0.828,0.672,1.5,1.5,1.5s1.5-0.672,1.5-1.5c0-0.176-0.036-0.343-0.092-0.5H52.5v0.5v1.334
			C54.354,40.944,55.5,38.359,55.5,35.5z"/>
	</g>
</g>
</svg>
