<?xml version="1.0" encoding="utf-8"?>
<!-- Generator: Adobe Illustrator 16.0.0, SVG Export Plug-In . SVG Version: 6.00 Build 0)  -->
<!DOCTYPE svg PUBLIC "-//W3C//DTD SVG 1.1//EN" "http://www.w3.org/Graphics/SVG/1.1/DTD/svg11.dtd">
<svg version="1.1" id="图层_1" xmlns="http://www.w3.org/2000/svg" xmlns:xlink="http://www.w3.org/1999/xlink" x="0px" y="0px"
	 width="80px" height="80px" viewBox="0 0 80 80" enable-background="new 0 0 80 80" xml:space="preserve">
<path fill-rule="evenodd" clip-rule="evenodd" fill="#666666" d="M64,17H16c-3.313,0-6,2.687-6,6v34c0,3.313,2.687,6,6,6h48
	c3.313,0,6-2.687,6-6V23C70,19.687,67.313,17,64,17z M13,41c0,0.553-0.447,1-1,1s-1-0.447-1-1v-2c0-0.553,0.447-1,1-1s1,0.447,1,1
	V41z M66,56c0,1.657-1.343,3-3,3H17c-1.656,0-3-1.343-3-3V24c0-1.656,1.344-3,3-3h46c1.657,0,3,1.344,3,3V56z M68,40.5
	c0,0.276-0.224,0.5-0.5,0.5S67,40.776,67,40.5v-1c0-0.276,0.224-0.5,0.5-0.5s0.5,0.224,0.5,0.5V40.5z"/>
</svg>
