<?xml version="1.0" encoding="utf-8"?>
<!-- Generator: Adobe Illustrator 16.0.0, SVG Export Plug-In . SVG Version: 6.00 Build 0)  -->
<!DOCTYPE svg PUBLIC "-//W3C//DTD SVG 1.1//EN" "http://www.w3.org/Graphics/SVG/1.1/DTD/svg11.dtd">
<svg version="1.1" id="图层_1" xmlns="http://www.w3.org/2000/svg" xmlns:xlink="http://www.w3.org/1999/xlink" x="0px" y="0px"
	 width="60px" height="60px" viewBox="0 0 60 60" enable-background="new 0 0 60 60" xml:space="preserve">
<g>
	<g>
		<path fill="#7F8080" d="M48,14H21.5c-0.828,0-1.5,0.672-1.5,1.5s0.672,1.5,1.5,1.5H48c0.553,0,1,0.447,1,1v16.5
			c0,0.828,0.672,1.5,1.5,1.5s1.5-0.672,1.5-1.5V18C52,15.791,50.209,14,48,14z M42,20H15c-2.209,0-4,1.791-4,4v17
			c0,2.209,1.791,4,4,4h27c2.209,0,4-1.791,4-4V24C46,21.791,44.209,20,42,20z M43,41c0,0.553-0.447,1-1,1H15c-0.553,0-1-0.447-1-1
			V24c0-0.552,0.447-1,1-1h27c0.553,0,1,0.448,1,1V41z"/>
	</g>
</g>
</svg>
