<?xml version="1.0" encoding="utf-8"?>
<!-- Generator: Adobe Illustrator 16.0.0, SVG Export Plug-In . SVG Version: 6.00 Build 0)  -->
<!DOCTYPE svg PUBLIC "-//W3C//DTD SVG 1.1//EN" "http://www.w3.org/Graphics/SVG/1.1/DTD/svg11.dtd">
<svg version="1.1" id="图层_1" xmlns="http://www.w3.org/2000/svg" xmlns:xlink="http://www.w3.org/1999/xlink" x="0px" y="0px"
	 width="150px" height="150px" viewBox="0 0 150 150" enable-background="new 0 0 150 150" xml:space="preserve">
<g>
	<g>
		<path fill-rule="evenodd" clip-rule="evenodd" fill="#B4B4B4" d="M126.967,67.591C126.479,43.159,106.537,23.5,81.991,23.5
			c-18.542,0-34.46,11.22-41.35,27.24c-10.559,1.613-18.647,10.738-18.647,21.754c0,0.228,0.01,0.452,0.017,0.678
			C9.983,75.896,1,86.644,1,99.5c0,5.19,1.466,10.035,4.004,14.149v-0.646v-0.92h0.179c-0.113,0.285-0.179,0.595-0.179,0.92
			c0,1.383,1.117,2.505,2.495,2.505s2.494-1.122,2.494-2.505c0-0.325-0.066-0.635-0.179-0.92h0.125
			c-2.486-3.563-3.948-7.895-3.948-12.569c0-12.075,9.729-21.874,21.774-21.995c-0.492-1.589-0.758-3.277-0.758-5.027
			c0-9.383,7.612-16.99,17.001-16.99c0.048,0,0.095,0.007,0.143,0.007c5.393-15.719,20.292-27.023,37.841-27.023
			c22.094,0,40.005,17.911,40.005,40.004c0,1.07-0.049,2.128-0.132,3.177c12.461,1.419,22.144,11.996,22.144,24.841
			c0,5.891-2.042,11.303-5.449,15.576h0.357c-0.552,0.459-0.911,1.145-0.911,1.92c0,1.383,1.117,2.505,2.494,2.505
			c0.321,0,0.625-0.066,0.907-0.177v0.101c0.047-0.053,0.091-0.107,0.137-0.16c0.685-0.318,1.197-0.936,1.377-1.687
			c3.812-5.026,6.08-11.285,6.08-18.08C149,82.702,139.667,71.083,126.967,67.591z M125.5,121.5h-5.758
			c-9.374-0.314-9.577-6.553-12.61-11.988c-3.215-5.762-4.315-9.002-9.64-9.002H52.504c-5.324,0-6.544,3.326-9.641,9.002
			c-2.949,5.405-3.132,11.867-12.386,11.988H24.5c-1.381,0-2.5,1.119-2.5,2.5s1.119,2.5,2.5,2.5h101c1.381,0,2.5-1.119,2.5-2.5
			S126.881,121.5,125.5,121.5z M42.761,121.5c1.202-2.101,1.965-4.606,3.239-7c3.096-5.814,3.057-8.877,10-9h38
			c6.07-0.092,6.854,2.907,10,9c1.236,2.396,2.323,4.898,3.756,7H42.761z"/>
	</g>
</g>
</svg>
