<?xml version="1.0" encoding="utf-8"?>
<!-- Generator: Adobe Illustrator 16.0.0, SVG Export Plug-In . SVG Version: 6.00 Build 0)  -->
<!DOCTYPE svg PUBLIC "-//W3C//DTD SVG 1.1//EN" "http://www.w3.org/Graphics/SVG/1.1/DTD/svg11.dtd">
<svg version="1.1" id="图层_1" xmlns="http://www.w3.org/2000/svg" xmlns:xlink="http://www.w3.org/1999/xlink" x="0px" y="0px"
	 width="60px" height="60px" viewBox="0 0 60 60" enable-background="new 0 0 60 60" xml:space="preserve">
<g>
	<g>
		<path fill-rule="evenodd" clip-rule="evenodd" fill="#666666" d="M39,12c-3.429,0-6.566,1.236-9,3.283V15H13c-1.657,0-3,1.343-3,3
			v26c0,1.657,1.343,3,3,3h32c1.657,0,3-1.343,3-3v-7.283c3.055-2.568,5-6.414,5-10.717C53,18.268,46.731,12,39,12z M13,19
			c0-0.553,0.447-1,1-1h13.52c-1.222,1.75-2.052,3.792-2.371,6H13V19z M45,43c0,0.552-0.448,1-1,1H14c-0.553,0-1-0.448-1-1V26h12
			c0,7.731,6.268,14,14,14c2.15,0,4.18-0.499,6-1.365V43z M39,37.991c-6.622,0-11.991-5.369-11.991-11.991
			c0-6.623,5.369-11.991,11.991-11.991S50.991,19.377,50.991,26C50.991,32.622,45.622,37.991,39,37.991z M46,25h-6v-6
			c0-0.553-0.447-1-1-1s-1,0.447-1,1v7c0,0.552,0.447,1,1,1h7c0.553,0,1-0.448,1-1C47,25.447,46.553,25,46,25z"/>
	</g>
</g>
</svg>
