<?xml version="1.0" encoding="utf-8"?>
<!-- Generator: Adobe Illustrator 16.0.0, SVG Export Plug-In . SVG Version: 6.00 Build 0)  -->
<!DOCTYPE svg PUBLIC "-//W3C//DTD SVG 1.1//EN" "http://www.w3.org/Graphics/SVG/1.1/DTD/svg11.dtd">
<svg version="1.1" id="图层_1" xmlns="http://www.w3.org/2000/svg" xmlns:xlink="http://www.w3.org/1999/xlink" x="0px" y="0px"
	 width="37.983px" height="40.322px" viewBox="0 0 37.983 40.322" enable-background="new 0 0 37.983 40.322" xml:space="preserve">
<g>
	<g>
		<path fill-rule="evenodd" clip-rule="evenodd" fill="#7E7E7F" d="M37.917,20.203l-0.014,0c-0.015-0.33-0.141-0.658-0.395-0.913
			c-0.532-0.534-1.389-0.541-1.912-0.016c-0.33,0.332-0.425,0.792-0.334,1.222c0.298,4.531-1.243,9.142-4.676,12.582
			c-6.369,6.385-16.756,6.322-23.201-0.139C0.941,26.48,0.879,16.07,7.248,9.687c6.108-6.123,15.905-6.298,22.383-0.603l-6.024,1.25
			c-0.805,0.167-1.34,0.84-1.194,1.504c0.145,0.664,0.915,1.066,1.719,0.899l7.771-1.611c0.356-0.074,0.655-0.25,0.87-0.479
			c0.385-0.326,0.578-0.9,0.449-1.496l-1.725-7.91c-0.178-0.819-0.895-1.365-1.599-1.218c-0.705,0.146-1.132,0.929-0.953,1.748
			l0.899,4.126C22.4,0.612,12.085,1.23,5.485,7.829c-7.374,7.373-7.305,19.396,0.155,26.853c7.459,7.459,19.484,7.527,26.857,0.156
			C36.499,30.838,38.29,25.469,37.917,20.203z"/>
	</g>
</g>
</svg>
