<?xml version="1.0" encoding="utf-8"?>
<!-- Generator: Adobe Illustrator 16.0.0, SVG Export Plug-In . SVG Version: 6.00 Build 0)  -->
<!DOCTYPE svg PUBLIC "-//W3C//DTD SVG 1.1//EN" "http://www.w3.org/Graphics/SVG/1.1/DTD/svg11.dtd">
<svg version="1.1" id="图层_1" xmlns="http://www.w3.org/2000/svg" xmlns:xlink="http://www.w3.org/1999/xlink" x="0px" y="0px"
	 width="37.953px" height="37.969px" viewBox="0 0 37.953 37.969" enable-background="new 0 0 37.953 37.969" xml:space="preserve">
<g>
	<g>
		<path fill-rule="evenodd" clip-rule="evenodd" fill="#828282" d="M32.318,5.638C24.864-1.819,12.849-1.888,5.481,5.483
			c-7.368,7.371-7.299,19.391,0.154,26.847c7.454,7.457,19.469,7.525,26.837,0.154C39.84,25.114,39.771,13.094,32.318,5.638z
			 M30.42,7.578c2.906,2.902,4.49,6.611,4.775,10.386c-0.004,0.072,0.004,0.142,0.012,0.214c0.252,4.023-0.986,8.096-3.717,11.344
			L8.893,6.136C15.251,1.188,24.505,1.674,30.42,7.578z M7.532,30.424C1.315,24.218,1.101,14.335,6.895,7.992l22.671,23.461
			C23.203,36.836,13.606,36.486,7.532,30.424z"/>
	</g>
</g>
</svg>
