<?xml version="1.0" encoding="utf-8"?>
<!-- Generator: Adobe Illustrator 16.0.0, SVG Export Plug-In . SVG Version: 6.00 Build 0)  -->
<!DOCTYPE svg PUBLIC "-//W3C//DTD SVG 1.1//EN" "http://www.w3.org/Graphics/SVG/1.1/DTD/svg11.dtd">
<svg version="1.1" id="图层_1" xmlns="http://www.w3.org/2000/svg" xmlns:xlink="http://www.w3.org/1999/xlink" x="0px" y="0px"
	 width="45px" height="45px" viewBox="-0.946 -1.469 45 45" enable-background="new -0.946 -1.469 45 45" xml:space="preserve">
<g>
	<g>
		<path fill="#B3B3B3" d="M43.109,6.649c0-0.021-0.006-0.042-0.006-0.063c0-0.217-0.042-0.43-0.125-0.624
			c-0.002-0.005-0.003-0.009-0.005-0.015c-0.02-0.041-0.04-0.078-0.063-0.117c-0.133-0.271-0.324-0.504-0.563-0.672l0,0
			c-2.704-1.941-6.103-3.951-9.366-5.02l-0.002,0.005c-0.148-0.049-0.306-0.083-0.471-0.083h-4c-0.736,0-1.347,0.533-1.473,1.234
			L27.01,1.292c-0.627,2.061-2.378,3.77-5.5,3.77c-3.121,0-4.872-1.438-5.5-3.5c0-0.828-0.672-1.5-1.5-1.5H10.51
			c-0.136,0-0.264,0.023-0.388,0.058l-0.001-0.003c-0.033,0.011-0.063,0.021-0.095,0.032C9.985,0.162,9.943,0.173,9.904,0.191
			C6.344,1.383,3.628,2.996,0.743,5.24C0.121,5.617-0.171,6.395,0.084,7.111l2.882,11.904c0.155,0.435,0.481,0.752,0.873,0.917
			c0.055,0.025,0.11,0.042,0.167,0.062c0.02,0.005,0.037,0.014,0.057,0.019c0.319,0.093,0.67,0.092,1.004-0.036l3.644-1.149
			L6.178,38.432c-0.074,0.66,0.293,1.261,0.863,1.523L7.041,39.99c3.52,1.505,10.373,2.07,14.469,2.07
			c4.054,0,10.796-0.566,14.349-2.035c0.723-0.163,1.226-0.859,1.141-1.635l-2.742-19.583l3.698,1.167
			c0.335,0.128,0.686,0.129,1.005,0.036c0.019-0.004,0.034-0.012,0.052-0.017c0.059-0.02,0.115-0.037,0.172-0.063
			c0.392-0.166,0.718-0.484,0.872-0.917l2.89-11.604C43.047,7.178,43.109,6.922,43.109,6.649z M9.278,37.848l2.683-20.773
			c0.079-0.269,0.086-0.557,0.012-0.841c-0.013-0.053-0.026-0.104-0.043-0.156c-0.001-0.003-0.001-0.007-0.002-0.01
			c-0.002-0.004-0.005-0.008-0.007-0.012c-0.188-0.519-0.65-0.917-1.236-0.983c-0.037-0.004-0.073,0-0.109-0.001
			c-0.055-0.004-0.109-0.003-0.164-0.002c-0.017,0.001-0.033,0.002-0.05,0.003c-0.156,0.011-0.313,0.036-0.468,0.096l-4.329,1.366
			L3.279,7.097c2.312-1.688,4.905-3.018,7.696-4.036h2.444c1.142,2.775,3.981,5,8.09,5s6.948-2.225,8.09-5h2.545
			c2.457,0.907,5.267,2.571,7.615,4.261l-2.294,9.215l-4.338-1.369c-0.447-0.172-0.924-0.12-1.314,0.092
			c-0.035,0.019-0.069,0.037-0.104,0.058c-0.037,0.024-0.07,0.051-0.105,0.077c-0.046,0.035-0.091,0.072-0.132,0.112
			c-0.03,0.029-0.06,0.061-0.088,0.092c-0.032,0.039-0.064,0.079-0.096,0.121c-0.033,0.047-0.063,0.095-0.092,0.146
			c-0.015,0.027-0.028,0.055-0.042,0.082c-0.021,0.041-0.044,0.077-0.062,0.12c-0.128,0.332-0.13,0.68-0.037,0.996l2.899,20.707
			c-3.686,1.049-9.003,1.29-12.446,1.29C18.117,39.061,12.94,38.85,9.278,37.848z"/>
	</g>
</g>
</svg>
