<svg xmlns="http://www.w3.org/2000/svg" height="92px" viewBox="0 0 48 92" width="48px" x="0px" y="0px">
<path clip-rule="evenodd" d="M7.108,60.212c-0.196,0.245-0.42,0.467-0.683,0.642   c-0.133,0.119-0.255,0.254-0.391,0.369c0,0-0.859,0.145-1.296,0.145c-1.687,0-3.053-1.371-3.053-3.063   c0-1.007,1.201-2.509,1.201-2.509c2.634-2.603,4.287-6.193,4.287-10.191c0-3.698-1.406-7.061-3.702-9.603l0.027-0.047   c-0.727-0.56-1.203-1.432-1.203-2.424c0-1.692,1.368-3.063,3.052-3.063c0.422,0,1.295,0.063,1.295,0.063   c0.227,0.207,0.431,0.44,0.648,0.657c0.151,0.125,0.287,0.263,0.411,0.415c3.454,3.659,5.591,8.569,5.591,13.999   C13.292,51.337,10.913,56.498,7.108,60.212L7.108,60.212z" fill="#389d00" fill-rule="evenodd" />
	<path clip-rule="evenodd" d="M14.661,75.454c0,0-1.421,1.039-2.275,1.039   c-1.854,0-3.36-1.506-3.36-3.363c0-1.529,2.291-3.441,2.291-3.441c7.507-5.632,12.377-14.59,12.377-24.698   c0-9.724-4.508-18.387-11.533-24.045c0,0-1.912-1.591-1.912-2.864c0-1.52,1.23-2.751,2.749-2.751c0.762,0,2.017,0.695,2.017,0.695   c8.986,6.748,14.805,17.477,14.805,29.576C29.82,57.864,23.852,68.725,14.661,75.454L14.661,75.454z" fill="#389d00" fill-rule="evenodd" />
	<path clip-rule="evenodd" d="M22.321,90.231l-0.004-0.008c-0.485,0.32-1.062,0.509-1.687,0.509   c-1.693,0-3.063-1.369-3.063-3.057c0-1.196,0.693-2.22,1.696-2.723l-0.018-0.029c12.637-8.508,20.949-22.947,20.949-39.326   c0-15.977-7.916-30.095-20.029-38.677l0.021-0.037c-0.837-0.546-1.396-1.486-1.396-2.559c0-1.69,1.373-3.058,3.063-3.058   c0.503,0,0.971,0.131,1.389,0.346l0.006-0.011c0.026,0.018,0.05,0.038,0.075,0.056c0.261,0.145,0.507,0.315,0.716,0.527   c13.482,9.713,22.277,25.526,22.277,43.416C46.315,64.244,36.775,80.653,22.321,90.231L22.321,90.231z" fill="#389d00" fill-rule="evenodd" />
</svg>