<svg xmlns="http://www.w3.org/2000/svg" height="92px" viewBox="0 0 48 92" width="48px" x="0px" y="0px">
<path d="M40.894,60.212c-3.805-3.714-6.184-8.875-6.184-14.61c0-5.43,2.137-10.34,5.591-13.999   c0.124-0.152,0.26-0.29,0.411-0.415c0.217-0.217,0.421-0.45,0.647-0.657c0,0,0.873-0.063,1.295-0.063   c1.685,0,3.053,1.371,3.053,3.063c0,0.992-0.477,1.864-1.203,2.424l0.026,0.047c-2.296,2.542-3.701,5.905-3.701,9.603   c0,3.999,1.652,7.588,4.287,10.191c0,0,1.2,1.502,1.2,2.509c0,1.692-1.365,3.063-3.053,3.063c-0.437,0-1.296-0.146-1.296-0.146   c-0.136-0.115-0.258-0.25-0.391-0.369C41.313,60.68,41.09,60.457,40.894,60.212L40.894,60.212z" fill="#EDEDED" />
	<path d="M33.341,75.454c-9.191-6.729-15.159-17.59-15.159-29.852c0-12.099,5.819-22.828,14.805-29.576   c0,0,1.256-0.695,2.018-0.695c1.519,0,2.749,1.231,2.749,2.751c0,1.273-1.912,2.864-1.912,2.864   c-7.025,5.658-11.533,14.321-11.533,24.045c0,10.108,4.87,19.065,12.376,24.698c0,0,2.291,1.912,2.291,3.44   c0,1.856-1.506,3.363-3.359,3.363C34.762,76.493,33.341,75.454,33.341,75.454L33.341,75.454z" fill="#EDEDED" />
	<path d="M25.681,90.23C11.227,80.652,1.688,64.244,1.686,45.6c0-17.89,8.795-33.703,22.277-43.416   c0.209-0.212,0.455-0.382,0.716-0.527c0.025-0.018,0.049-0.038,0.075-0.056l0.006,0.011c0.418-0.215,0.886-0.346,1.389-0.346   c1.69,0,3.063,1.368,3.063,3.058c0,1.073-0.56,2.013-1.396,2.559l0.021,0.037C15.725,15.502,7.809,29.62,7.809,45.597   c0,16.379,8.312,30.818,20.948,39.326l-0.019,0.029c1.004,0.503,1.696,1.526,1.696,2.723c0,1.688-1.37,3.058-3.063,3.058   c-0.625,0-1.202-0.189-1.688-0.51L25.681,90.23L25.681,90.23z" fill="#EDEDED" />
</svg>