<svg xmlns="http://www.w3.org/2000/svg" height="95px" viewBox="0 0 25 95" width="25px" x="0px" y="0px">
<path clip-rule="evenodd" d="M23.168,24.615c-1.769,12.249-6.105,33.324-8.667,45.416  c-0.512-0.051-1.031-0.078-1.556-0.078c-0.833,0-1.644,0.082-2.441,0.209c-2.393-11.074-6.35-30.19-8.643-45.547  C-0.145,11.179-1.04,0.018,12.515,0.018S25.108,11.169,23.168,24.615L23.168,24.615z M12.945,77.721  c4.755,0,8.611,3.863,8.611,8.631s-3.855,8.631-8.611,8.631c-4.756,0-8.611-3.863-8.611-8.631S8.189,77.721,12.945,77.721  L12.945,77.721z" fill="#389d00" fill-rule="evenodd" />
</svg>